<svg width="12" height="12" viewBox="0 0 12 12" fill="none" xmlns="http://www.w3.org/2000/svg">
<mask id="mask0_172_98" style="mask-type:alpha" maskUnits="userSpaceOnUse" x="-5" y="-5" width="22" height="22">
<rect x="-4.66667" y="-4.66667" width="21.3333" height="21.3333" fill="#D9D9D9"/>
</mask>
<g mask="url(#mask0_172_98)">
<path d="M6 12C5.80729 12 5.64053 11.9296 5.49973 11.7888C5.35893 11.648 5.28853 11.4812 5.28853 11.2885V6.71147H0.711466C0.518755 6.71147 0.352 6.64107 0.2112 6.50027C0.0704 6.35947 0 6.19271 0 6C0 5.80729 0.0704 5.64053 0.2112 5.49973C0.352 5.35893 0.518755 5.28853 0.711466 5.28853H5.28853V0.711466C5.28853 0.518755 5.35893 0.352 5.49973 0.2112C5.64053 0.0704 5.80729 0 6 0C6.19271 0 6.35947 0.0704 6.50027 0.2112C6.64107 0.352 6.71147 0.518755 6.71147 0.711466V5.28853H11.2885C11.4812 5.28853 11.648 5.35893 11.7888 5.49973C11.9296 5.64053 12 5.80729 12 6C12 6.19271 11.9296 6.35947 11.7888 6.50027C11.648 6.64107 11.4812 6.71147 11.2885 6.71147H6.71147V11.2885C6.71147 11.4812 6.64107 11.648 6.50027 11.7888C6.35947 11.9296 6.19271 12 6 12Z" fill="#0A0A0C"/>
</g>
</svg>
