<svg width="15" height="16" viewBox="0 0 15 16" fill="none" xmlns="http://www.w3.org/2000/svg">
<mask id="mask0_74_2092" style="mask-type:alpha" maskUnits="userSpaceOnUse" x="-3" y="-2" width="21" height="21">
<rect x="-2.92834" y="-1.9867" width="20.0778" height="20.0778" fill="#D9D9D9"/>
</mask>
<g mask="url(#mask0_74_2092)">
<path d="M1.58916 16C1.14276 16 0.766303 15.8464 0.459782 15.5392C0.153261 15.2327 0 14.8562 0 14.4098V3.45138C0 3.00498 0.153261 2.62852 0.459782 2.322C0.766303 2.01481 1.14276 1.86121 1.58916 1.86121H2.59305V0.669595C2.59305 0.488225 2.65596 0.331284 2.78178 0.19877C2.90693 0.0662569 3.06722 0 3.26264 0C3.4574 0 3.62103 0.0699377 3.75355 0.209813C3.88606 0.349019 3.95232 0.509307 3.95232 0.690677V1.86121H10.2899V0.648513C10.2899 0.481198 10.3561 0.331284 10.4887 0.19877C10.6205 0.0662569 10.7771 0 10.9585 0C11.1398 0 11.2968 0.0699377 11.4293 0.209813C11.5618 0.349019 11.6281 0.50228 11.6281 0.669595V1.86121H12.632C13.0784 1.86121 13.4548 2.01481 13.7613 2.322C14.0679 2.62852 14.2211 3.00498 14.2211 3.45138V14.4098C14.2211 14.8562 14.0679 15.2327 13.7613 15.5392C13.4548 15.8464 13.0784 16 12.632 16H1.58916ZM1.58916 14.6608H12.632C12.7016 14.6608 12.7608 14.6364 12.8096 14.5875C12.8585 14.5394 12.8829 14.4801 12.8829 14.4098V6.67186H1.33819V14.4098C1.33819 14.4801 1.36261 14.5394 1.41147 14.5875C1.46033 14.6364 1.51956 14.6608 1.58916 14.6608ZM1.33819 5.33367H12.8829V3.45138C12.8829 3.3811 12.8585 3.32187 12.8096 3.27369C12.7608 3.22483 12.7016 3.2004 12.632 3.2004H1.58916C1.51956 3.2004 1.46033 3.22483 1.41147 3.27369C1.36261 3.32187 1.33819 3.3811 1.33819 3.45138V5.33367Z" fill="#0A0A0C"/>
</g>
</svg>
