<svg width="16" height="14" viewBox="0 0 16 14" fill="none" xmlns="http://www.w3.org/2000/svg">
<mask id="mask0_74_1602" style="mask-type:alpha" maskUnits="userSpaceOnUse" x="-2" y="-3" width="19" height="20">
<rect x="-1.49997" y="-2.23117" width="18.4624" height="18.4624" fill="#D9D9D9"/>
</mask>
<g mask="url(#mask0_74_1602)">
<path d="M12.6162 3.46169C12.7824 3.46169 12.9264 3.40077 13.0483 3.27891C13.1701 3.15706 13.231 3.01275 13.231 2.84597C13.231 2.6792 13.1701 2.53488 13.0483 2.41303C12.9264 2.29118 12.7824 2.23025 12.6162 2.23025C12.4495 2.23025 12.3052 2.29118 12.1833 2.41303C12.0615 2.53488 12.0005 2.6792 12.0005 2.84597C12.0005 3.01275 12.0615 3.15706 12.1833 3.27891C12.3052 3.40077 12.4495 3.46169 12.6162 3.46169ZM9.8469 3.46169C10.0131 3.46169 10.1571 3.40077 10.2789 3.27891C10.4008 3.15706 10.4617 3.01275 10.4617 2.84597C10.4617 2.6792 10.4008 2.53488 10.2789 2.41303C10.1571 2.29118 10.0131 2.23025 9.8469 2.23025C9.68012 2.23025 9.5358 2.29118 9.41395 2.41303C9.2921 2.53488 9.23118 2.6792 9.23118 2.84597C9.23118 3.01275 9.2921 3.15706 9.41395 3.27891C9.5358 3.40077 9.68012 3.46169 9.8469 3.46169ZM9.48134 6.46182H12.9818C12.956 6.07719 12.7698 5.77595 12.4233 5.55809C12.0775 5.33962 11.6802 5.23038 11.2316 5.23038C10.77 5.23038 10.366 5.33962 10.0195 5.55809C9.67366 5.77595 9.49426 6.07719 9.48134 6.46182ZM4.23065 14C3.05152 14 2.05147 13.5898 1.23052 12.7695C0.410172 11.9491 0 10.9491 0 9.76935V4.61559H8.46222V9.76935C8.46222 10.9491 8.05174 11.9491 7.23078 12.7695C6.41044 13.5898 5.41039 14 4.23065 14ZM4.23065 13.0003C5.12853 13.0003 5.89164 12.6861 6.51998 12.0578C7.1477 11.4294 7.46156 10.6666 7.46156 9.76935V5.61532H0.999736V9.76935C0.999736 10.6666 1.3139 11.4294 1.94224 12.0578C2.57057 12.6861 3.33338 13.0003 4.23065 13.0003ZM11.2316 9.38441C10.9109 9.38441 10.5872 9.34595 10.2605 9.26902C9.93305 9.1921 9.63489 9.07671 9.36595 8.92286L9.38534 7.78834C9.64135 8.0062 9.92659 8.16005 10.2411 8.2499C10.5549 8.33975 10.8851 8.38468 11.2316 8.38468C12.1288 8.38468 12.8916 8.07051 13.52 7.44217C14.1483 6.81384 14.4625 6.05104 14.4625 5.15377V0.999736H8.00066V3.69247H7V0H15.4622V5.15377C15.4622 6.33351 15.052 7.33355 14.2317 8.1539C13.4107 8.97424 12.4107 9.38441 11.2316 9.38441ZM2.84597 8.07728C3.01275 8.07728 3.15706 8.01635 3.27891 7.8945C3.40077 7.77265 3.46169 7.62834 3.46169 7.46156C3.46169 7.29478 3.40077 7.15047 3.27891 7.02862C3.15706 6.90677 3.01275 6.84584 2.84597 6.84584C2.67981 6.84584 2.5358 6.90677 2.41395 7.02862C2.2921 7.15047 2.23118 7.29478 2.23118 7.46156C2.23118 7.62834 2.2921 7.77265 2.41395 7.8945C2.5358 8.01635 2.67981 8.07728 2.84597 8.07728ZM5.61532 8.07728C5.7821 8.07728 5.92641 8.01635 6.04827 7.8945C6.17012 7.77265 6.23104 7.62834 6.23104 7.46156C6.23104 7.29478 6.17012 7.15047 6.04827 7.02862C5.92641 6.90677 5.7821 6.84584 5.61532 6.84584C5.44916 6.84584 5.30516 6.90677 5.1833 7.02862C5.06145 7.15047 5.00053 7.29478 5.00053 7.46156C5.00053 7.62834 5.06145 7.77265 5.1833 7.8945C5.30516 8.01635 5.44916 8.07728 5.61532 8.07728ZM4.23065 11.0774C4.69221 11.0774 5.09622 10.9682 5.4427 10.7497C5.78856 10.5318 5.96796 10.2306 5.98088 9.84597H2.48042C2.49334 10.2306 2.67304 10.5318 3.01952 10.7497C3.36538 10.9682 3.76909 11.0774 4.23065 11.0774Z" fill="#0A0A0C"/>
</g>
</svg>
