<svg width="330" height="206" viewBox="0 0 330 206" fill="none" xmlns="http://www.w3.org/2000/svg">
<g filter="url(#filter0_d_174_125)">
<mask id="path-1-inside-1_174_125" fill="white">
<path fill-rule="evenodd" clip-rule="evenodd" d="M295.226 0H34.7739C34.9233 1.31267 35 2.64737 35 4C35 23.33 19.33 39 0 39V190C0 198.837 7.16345 206 16 206H314C322.837 206 330 198.837 330 190V39C310.67 39 295 23.33 295 4C295 2.64737 295.077 1.31267 295.226 0Z"/>
</mask>
<path fill-rule="evenodd" clip-rule="evenodd" d="M295.226 0H34.7739C34.9233 1.31267 35 2.64737 35 4C35 23.33 19.33 39 0 39V190C0 198.837 7.16345 206 16 206H314C322.837 206 330 198.837 330 190V39C310.67 39 295 23.33 295 4C295 2.64737 295.077 1.31267 295.226 0Z" fill="#EBEBF0"/>
<path d="M34.7739 0V-0.4H34.3258L34.3765 0.0452172L34.7739 0ZM295.226 0L295.624 0.0452195L295.674 -0.4H295.226V0ZM0 39V38.6H-0.4V39H0ZM330 39H330.4V38.6H330V39ZM34.4744 1.03105C34.4931 1.25117 34.6867 1.41445 34.9069 1.39575C35.127 1.37705 35.2903 1.18344 35.2716 0.963321L34.4744 1.03105ZM35.3858 2.98676C35.3796 2.76593 35.1955 2.59195 34.9747 2.59815C34.7539 2.60436 34.5799 2.78841 34.5861 3.00924L35.3858 2.98676ZM34.4949 6.7178C34.4777 6.93805 34.6424 7.13047 34.8627 7.14758C35.0829 7.16469 35.2753 7.00002 35.2924 6.77977L34.4949 6.7178ZM34.4294 12.2672C34.4808 12.0523 34.3483 11.8365 34.1334 11.7851C33.9186 11.7337 33.7027 11.8662 33.6513 12.081L34.4294 12.2672ZM31.9747 17.2444C31.8901 17.4484 31.9869 17.6824 32.191 17.7671C32.395 17.8517 32.6291 17.7549 32.7137 17.5508L31.9747 17.2444ZM30.1878 22.4989C30.3034 22.3107 30.2445 22.0643 30.0562 21.9487C29.868 21.8331 29.6217 21.892 29.5061 22.0803L30.1878 22.4989ZM26.3108 26.471C26.1673 26.6389 26.187 26.8914 26.3549 27.035C26.5229 27.1785 26.7753 27.1588 26.9189 26.9909L26.3108 26.471ZM22.9909 30.9189C23.1588 30.7753 23.1785 30.5229 23.035 30.3549C22.8914 30.187 22.6389 30.1673 22.471 30.3108L22.9909 30.9189ZM18.0803 33.5061C17.892 33.6217 17.8331 33.868 17.9487 34.0562C18.0643 34.2445 18.3107 34.3034 18.4989 34.1878L18.0803 33.5061ZM13.5508 36.7137C13.7549 36.6291 13.8517 36.395 13.7671 36.191C13.6824 35.9869 13.4484 35.8901 13.2444 35.9747L13.5508 36.7137ZM8.08105 37.6513C7.86619 37.7027 7.7337 37.9186 7.7851 38.1334C7.8365 38.3483 8.05234 38.4808 8.26719 38.4294L8.08105 37.6513ZM2.77977 39.2924C3.00002 39.2753 3.16469 39.0829 3.14758 38.8627C3.13047 38.6424 2.93805 38.4777 2.7178 38.4949L2.77977 39.2924ZM-0.4 41.9038C-0.4 42.1248 -0.220914 42.3038 0 42.3038C0.220914 42.3038 0.4 42.1248 0.4 41.9038H-0.4ZM0.4 47.7115C0.4 47.4906 0.220914 47.3115 0 47.3115C-0.220914 47.3115 -0.4 47.4906 -0.4 47.7115H0.4ZM-0.4 53.5192C-0.4 53.7401 -0.220914 53.9192 0 53.9192C0.220914 53.9192 0.4 53.7401 0.4 53.5192H-0.4ZM0.4 59.3269C0.4 59.106 0.220914 58.9269 0 58.9269C-0.220914 58.9269 -0.4 59.106 -0.4 59.3269H0.4ZM-0.4 65.1346C-0.4 65.3555 -0.220914 65.5346 0 65.5346C0.220914 65.5346 0.4 65.3555 0.4 65.1346H-0.4ZM0.4 70.9423C0.4 70.7214 0.220914 70.5423 0 70.5423C-0.220914 70.5423 -0.4 70.7214 -0.4 70.9423H0.4ZM-0.4 76.75C-0.4 76.9709 -0.220914 77.15 0 77.15C0.220914 77.15 0.4 76.9709 0.4 76.75H-0.4ZM0.4 82.5577C0.4 82.3368 0.220914 82.1577 0 82.1577C-0.220914 82.1577 -0.4 82.3368 -0.4 82.5577H0.4ZM-0.4 88.3654C-0.4 88.5863 -0.220914 88.7654 0 88.7654C0.220914 88.7654 0.4 88.5863 0.4 88.3654H-0.4ZM0.4 94.1731C0.4 93.9522 0.220914 93.7731 0 93.7731C-0.220914 93.7731 -0.4 93.9522 -0.4 94.1731H0.4ZM-0.4 99.9808C-0.4 100.202 -0.220914 100.381 0 100.381C0.220914 100.381 0.4 100.202 0.4 99.9808H-0.4ZM0.4 105.788C0.4 105.568 0.220914 105.388 0 105.388C-0.220914 105.388 -0.4 105.568 -0.4 105.788H0.4ZM-0.4 111.596C-0.4 111.817 -0.220914 111.996 0 111.996C0.220914 111.996 0.4 111.817 0.4 111.596H-0.4ZM0.4 117.404C0.4 117.183 0.220914 117.004 0 117.004C-0.220914 117.004 -0.4 117.183 -0.4 117.404H0.4ZM-0.4 123.212C-0.4 123.432 -0.220914 123.612 0 123.612C0.220914 123.612 0.4 123.432 0.4 123.212H-0.4ZM0.4 129.019C0.4 128.798 0.220914 128.619 0 128.619C-0.220914 128.619 -0.4 128.798 -0.4 129.019H0.4ZM-0.4 134.827C-0.4 135.048 -0.220914 135.227 0 135.227C0.220914 135.227 0.4 135.048 0.4 134.827H-0.4ZM0.4 140.635C0.4 140.414 0.220914 140.235 0 140.235C-0.220914 140.235 -0.4 140.414 -0.4 140.635H0.4ZM-0.4 146.442C-0.4 146.663 -0.220914 146.842 0 146.842C0.220914 146.842 0.4 146.663 0.4 146.442H-0.4ZM0.4 152.25C0.4 152.029 0.220914 151.85 0 151.85C-0.220914 151.85 -0.4 152.029 -0.4 152.25H0.4ZM-0.4 158.058C-0.4 158.279 -0.220914 158.458 0 158.458C0.220914 158.458 0.4 158.279 0.4 158.058H-0.4ZM0.4 163.865C0.4 163.644 0.220914 163.465 0 163.465C-0.220914 163.465 -0.4 163.644 -0.4 163.865H0.4ZM-0.4 169.673C-0.4 169.894 -0.220914 170.073 0 170.073C0.220914 170.073 0.4 169.894 0.4 169.673H-0.4ZM0.4 175.481C0.4 175.26 0.220914 175.081 0 175.081C-0.220914 175.081 -0.4 175.26 -0.4 175.481H0.4ZM-0.4 181.288C-0.4 181.509 -0.220914 181.688 0 181.688C0.220914 181.688 0.4 181.509 0.4 181.288H-0.4ZM0.4 187.096C0.4 186.875 0.220914 186.696 0 186.696C-0.220914 186.696 -0.4 186.875 -0.4 187.096H0.4ZM-0.0878505 193.2C-0.0449779 193.417 0.165458 193.558 0.382172 193.515C0.598886 193.472 0.739812 193.262 0.69694 193.045L-0.0878505 193.2ZM3.02734 198.667C2.90444 198.484 2.656 198.435 2.47243 198.557C2.28885 198.68 2.23967 198.929 2.36257 199.112L3.02734 198.667ZM6.88763 203.637C7.0712 203.76 7.31964 203.711 7.44254 203.528C7.56544 203.344 7.51625 203.096 7.33268 202.973L6.88763 203.637ZM12.955 205.303C12.7383 205.26 12.5279 205.401 12.485 205.618C12.4421 205.835 12.5831 206.045 12.7998 206.088L12.955 205.303ZM18.98 206.4C19.2009 206.4 19.38 206.221 19.38 206C19.38 205.779 19.2009 205.6 18.98 205.6V206.4ZM24.94 205.6C24.7191 205.6 24.54 205.779 24.54 206C24.54 206.221 24.7191 206.4 24.94 206.4V205.6ZM30.9 206.4C31.1209 206.4 31.3 206.221 31.3 206C31.3 205.779 31.1209 205.6 30.9 205.6V206.4ZM36.86 205.6C36.6391 205.6 36.46 205.779 36.46 206C36.46 206.221 36.6391 206.4 36.86 206.4V205.6ZM42.82 206.4C43.0409 206.4 43.22 206.221 43.22 206C43.22 205.779 43.0409 205.6 42.82 205.6V206.4ZM48.78 205.6C48.5591 205.6 48.38 205.779 48.38 206C48.38 206.221 48.5591 206.4 48.78 206.4V205.6ZM54.74 206.4C54.9609 206.4 55.14 206.221 55.14 206C55.14 205.779 54.9609 205.6 54.74 205.6V206.4ZM60.7 205.6C60.4791 205.6 60.3 205.779 60.3 206C60.3 206.221 60.4791 206.4 60.7 206.4V205.6ZM66.66 206.4C66.8809 206.4 67.06 206.221 67.06 206C67.06 205.779 66.8809 205.6 66.66 205.6V206.4ZM72.62 205.6C72.3991 205.6 72.22 205.779 72.22 206C72.22 206.221 72.3991 206.4 72.62 206.4V205.6ZM78.58 206.4C78.8009 206.4 78.98 206.221 78.98 206C78.98 205.779 78.8009 205.6 78.58 205.6V206.4ZM84.54 205.6C84.3191 205.6 84.14 205.779 84.14 206C84.14 206.221 84.3191 206.4 84.54 206.4V205.6ZM90.5 206.4C90.7209 206.4 90.9 206.221 90.9 206C90.9 205.779 90.7209 205.6 90.5 205.6V206.4ZM96.46 205.6C96.2391 205.6 96.06 205.779 96.06 206C96.06 206.221 96.2391 206.4 96.46 206.4V205.6ZM102.42 206.4C102.641 206.4 102.82 206.221 102.82 206C102.82 205.779 102.641 205.6 102.42 205.6V206.4ZM108.38 205.6C108.159 205.6 107.98 205.779 107.98 206C107.98 206.221 108.159 206.4 108.38 206.4V205.6ZM114.34 206.4C114.561 206.4 114.74 206.221 114.74 206C114.74 205.779 114.561 205.6 114.34 205.6V206.4ZM120.3 205.6C120.079 205.6 119.9 205.779 119.9 206C119.9 206.221 120.079 206.4 120.3 206.4V205.6ZM126.26 206.4C126.481 206.4 126.66 206.221 126.66 206C126.66 205.779 126.481 205.6 126.26 205.6V206.4ZM132.22 205.6C131.999 205.6 131.82 205.779 131.82 206C131.82 206.221 131.999 206.4 132.22 206.4V205.6ZM138.18 206.4C138.401 206.4 138.58 206.221 138.58 206C138.58 205.779 138.401 205.6 138.18 205.6V206.4ZM144.14 205.6C143.919 205.6 143.74 205.779 143.74 206C143.74 206.221 143.919 206.4 144.14 206.4V205.6ZM150.1 206.4C150.321 206.4 150.5 206.221 150.5 206C150.5 205.779 150.321 205.6 150.1 205.6V206.4ZM156.06 205.6C155.839 205.6 155.66 205.779 155.66 206C155.66 206.221 155.839 206.4 156.06 206.4V205.6ZM162.02 206.4C162.241 206.4 162.42 206.221 162.42 206C162.42 205.779 162.241 205.6 162.02 205.6V206.4ZM167.98 205.6C167.759 205.6 167.58 205.779 167.58 206C167.58 206.221 167.759 206.4 167.98 206.4V205.6ZM173.94 206.4C174.161 206.4 174.34 206.221 174.34 206C174.34 205.779 174.161 205.6 173.94 205.6V206.4ZM179.9 205.6C179.679 205.6 179.5 205.779 179.5 206C179.5 206.221 179.679 206.4 179.9 206.4V205.6ZM185.86 206.4C186.081 206.4 186.26 206.221 186.26 206C186.26 205.779 186.081 205.6 185.86 205.6V206.4ZM191.82 205.6C191.599 205.6 191.42 205.779 191.42 206C191.42 206.221 191.599 206.4 191.82 206.4V205.6ZM197.78 206.4C198.001 206.4 198.18 206.221 198.18 206C198.18 205.779 198.001 205.6 197.78 205.6V206.4ZM203.74 205.6C203.519 205.6 203.34 205.779 203.34 206C203.34 206.221 203.519 206.4 203.74 206.4V205.6ZM209.7 206.4C209.921 206.4 210.1 206.221 210.1 206C210.1 205.779 209.921 205.6 209.7 205.6V206.4ZM215.66 205.6C215.439 205.6 215.26 205.779 215.26 206C215.26 206.221 215.439 206.4 215.66 206.4V205.6ZM221.62 206.4C221.841 206.4 222.02 206.221 222.02 206C222.02 205.779 221.841 205.6 221.62 205.6V206.4ZM227.58 205.6C227.359 205.6 227.18 205.779 227.18 206C227.18 206.221 227.359 206.4 227.58 206.4V205.6ZM233.54 206.4C233.761 206.4 233.94 206.221 233.94 206C233.94 205.779 233.761 205.6 233.54 205.6V206.4ZM239.5 205.6C239.279 205.6 239.1 205.779 239.1 206C239.1 206.221 239.279 206.4 239.5 206.4V205.6ZM245.46 206.4C245.681 206.4 245.86 206.221 245.86 206C245.86 205.779 245.681 205.6 245.46 205.6V206.4ZM251.42 205.6C251.199 205.6 251.02 205.779 251.02 206C251.02 206.221 251.199 206.4 251.42 206.4V205.6ZM257.38 206.4C257.601 206.4 257.78 206.221 257.78 206C257.78 205.779 257.601 205.6 257.38 205.6V206.4ZM263.34 205.6C263.119 205.6 262.94 205.779 262.94 206C262.94 206.221 263.119 206.4 263.34 206.4V205.6ZM269.3 206.4C269.521 206.4 269.7 206.221 269.7 206C269.7 205.779 269.521 205.6 269.3 205.6V206.4ZM275.26 205.6C275.039 205.6 274.86 205.779 274.86 206C274.86 206.221 275.039 206.4 275.26 206.4V205.6ZM281.22 206.4C281.441 206.4 281.62 206.221 281.62 206C281.62 205.779 281.441 205.6 281.22 205.6V206.4ZM287.18 205.6C286.959 205.6 286.78 205.779 286.78 206C286.78 206.221 286.959 206.4 287.18 206.4V205.6ZM293.14 206.4C293.361 206.4 293.54 206.221 293.54 206C293.54 205.779 293.361 205.6 293.14 205.6V206.4ZM299.1 205.6C298.879 205.6 298.7 205.779 298.7 206C298.7 206.221 298.879 206.4 299.1 206.4V205.6ZM305.06 206.4C305.281 206.4 305.46 206.221 305.46 206C305.46 205.779 305.281 205.6 305.06 205.6V206.4ZM311.02 205.6C310.799 205.6 310.62 205.779 310.62 206C310.62 206.221 310.799 206.4 311.02 206.4V205.6ZM317.2 206.088C317.417 206.045 317.558 205.835 317.515 205.618C317.472 205.401 317.262 205.26 317.045 205.303L317.2 206.088ZM322.667 202.973C322.484 203.096 322.435 203.344 322.557 203.528C322.68 203.711 322.929 203.76 323.112 203.637L322.667 202.973ZM327.637 199.112C327.76 198.929 327.711 198.68 327.528 198.557C327.344 198.435 327.096 198.484 326.973 198.667L327.637 199.112ZM329.303 193.045C329.26 193.262 329.401 193.472 329.618 193.515C329.835 193.558 330.045 193.417 330.088 193.2L329.303 193.045ZM330.4 187.096C330.4 186.875 330.221 186.696 330 186.696C329.779 186.696 329.6 186.875 329.6 187.096H330.4ZM329.6 181.288C329.6 181.509 329.779 181.688 330 181.688C330.221 181.688 330.4 181.509 330.4 181.288H329.6ZM330.4 175.481C330.4 175.26 330.221 175.081 330 175.081C329.779 175.081 329.6 175.26 329.6 175.481H330.4ZM329.6 169.673C329.6 169.894 329.779 170.073 330 170.073C330.221 170.073 330.4 169.894 330.4 169.673H329.6ZM330.4 163.865C330.4 163.644 330.221 163.465 330 163.465C329.779 163.465 329.6 163.644 329.6 163.865H330.4ZM329.6 158.058C329.6 158.279 329.779 158.458 330 158.458C330.221 158.458 330.4 158.279 330.4 158.058H329.6ZM330.4 152.25C330.4 152.029 330.221 151.85 330 151.85C329.779 151.85 329.6 152.029 329.6 152.25H330.4ZM329.6 146.442C329.6 146.663 329.779 146.842 330 146.842C330.221 146.842 330.4 146.663 330.4 146.442H329.6ZM330.4 140.635C330.4 140.414 330.221 140.235 330 140.235C329.779 140.235 329.6 140.414 329.6 140.635H330.4ZM329.6 134.827C329.6 135.048 329.779 135.227 330 135.227C330.221 135.227 330.4 135.048 330.4 134.827H329.6ZM330.4 129.019C330.4 128.798 330.221 128.619 330 128.619C329.779 128.619 329.6 128.798 329.6 129.019H330.4ZM329.6 123.212C329.6 123.432 329.779 123.612 330 123.612C330.221 123.612 330.4 123.432 330.4 123.212H329.6ZM330.4 117.404C330.4 117.183 330.221 117.004 330 117.004C329.779 117.004 329.6 117.183 329.6 117.404H330.4ZM329.6 111.596C329.6 111.817 329.779 111.996 330 111.996C330.221 111.996 330.4 111.817 330.4 111.596H329.6ZM330.4 105.788C330.4 105.568 330.221 105.388 330 105.388C329.779 105.388 329.6 105.568 329.6 105.788H330.4ZM329.6 99.9808C329.6 100.202 329.779 100.381 330 100.381C330.221 100.381 330.4 100.202 330.4 99.9808H329.6ZM330.4 94.1731C330.4 93.9521 330.221 93.7731 330 93.7731C329.779 93.7731 329.6 93.9521 329.6 94.1731H330.4ZM329.6 88.3654C329.6 88.5863 329.779 88.7654 330 88.7654C330.221 88.7654 330.4 88.5863 330.4 88.3654H329.6ZM330.4 82.5577C330.4 82.3368 330.221 82.1577 330 82.1577C329.779 82.1577 329.6 82.3368 329.6 82.5577H330.4ZM329.6 76.75C329.6 76.9709 329.779 77.15 330 77.15C330.221 77.15 330.4 76.9709 330.4 76.75H329.6ZM330.4 70.9423C330.4 70.7214 330.221 70.5423 330 70.5423C329.779 70.5423 329.6 70.7214 329.6 70.9423H330.4ZM329.6 65.1346C329.6 65.3555 329.779 65.5346 330 65.5346C330.221 65.5346 330.4 65.3555 330.4 65.1346H329.6ZM330.4 59.3269C330.4 59.106 330.221 58.9269 330 58.9269C329.779 58.9269 329.6 59.106 329.6 59.3269H330.4ZM329.6 53.5192C329.6 53.7401 329.779 53.9192 330 53.9192C330.221 53.9192 330.4 53.7401 330.4 53.5192H329.6ZM330.4 47.7115C330.4 47.4906 330.221 47.3115 330 47.3115C329.779 47.3115 329.6 47.4906 329.6 47.7115H330.4ZM329.6 41.9038C329.6 42.1247 329.779 42.3038 330 42.3038C330.221 42.3038 330.4 42.1247 330.4 41.9038H329.6ZM327.282 38.4949C327.062 38.4777 326.87 38.6424 326.852 38.8627C326.835 39.0829 327 39.2753 327.22 39.2924L327.282 38.4949ZM321.733 38.4294C321.948 38.4808 322.164 38.3483 322.215 38.1334C322.266 37.9186 322.134 37.7027 321.919 37.6513L321.733 38.4294ZM316.756 35.9747C316.552 35.8901 316.318 35.9869 316.233 36.191C316.148 36.395 316.245 36.629 316.449 36.7137L316.756 35.9747ZM311.501 34.1878C311.689 34.3034 311.936 34.2445 312.051 34.0562C312.167 33.868 312.108 33.6217 311.92 33.5061L311.501 34.1878ZM307.529 30.3108C307.361 30.1673 307.109 30.187 306.965 30.3549C306.821 30.5229 306.841 30.7753 307.009 30.9189L307.529 30.3108ZM303.081 26.9909C303.225 27.1588 303.477 27.1785 303.645 27.035C303.813 26.8914 303.833 26.6389 303.689 26.471L303.081 26.9909ZM300.494 22.0803C300.378 21.892 300.132 21.8331 299.944 21.9487C299.756 22.0643 299.697 22.3107 299.812 22.4989L300.494 22.0803ZM297.286 17.5508C297.371 17.7549 297.605 17.8517 297.809 17.7671C298.013 17.6824 298.11 17.4484 298.025 17.2444L297.286 17.5508ZM296.349 12.081C296.297 11.8662 296.081 11.7337 295.867 11.7851C295.652 11.8365 295.519 12.0523 295.571 12.2672L296.349 12.081ZM294.708 6.77977C294.725 7.00002 294.917 7.16469 295.137 7.14758C295.358 7.13047 295.522 6.93805 295.505 6.7178L294.708 6.77977ZM295.414 3.00924C295.42 2.78841 295.246 2.60436 295.025 2.59815C294.804 2.59195 294.62 2.76593 294.614 2.98676L295.414 3.00924ZM294.728 0.96332C294.71 1.18344 294.873 1.37705 295.093 1.39575C295.313 1.41445 295.507 1.25117 295.526 1.03105L294.728 0.96332ZM292.266 -0.4C292.045 -0.4 291.866 -0.220914 291.866 0C291.866 0.220914 292.045 0.4 292.266 0.4V-0.4ZM286.347 0.4C286.568 0.4 286.747 0.220914 286.747 0C286.747 -0.220914 286.568 -0.4 286.347 -0.4V0.4ZM280.428 -0.4C280.207 -0.4 280.028 -0.220914 280.028 0C280.028 0.220914 280.207 0.4 280.428 0.4V-0.4ZM274.508 0.4C274.729 0.4 274.908 0.220914 274.908 0C274.908 -0.220914 274.729 -0.4 274.508 -0.4V0.4ZM268.589 -0.4C268.368 -0.4 268.189 -0.220914 268.189 0C268.189 0.220914 268.368 0.4 268.589 0.4V-0.4ZM262.67 0.4C262.89 0.4 263.07 0.220914 263.07 0C263.07 -0.220914 262.89 -0.4 262.67 -0.4V0.4ZM256.75 -0.4C256.529 -0.4 256.35 -0.220914 256.35 0C256.35 0.220914 256.529 0.4 256.75 0.4V-0.4ZM250.831 0.4C251.052 0.4 251.231 0.220914 251.231 0C251.231 -0.220914 251.052 -0.4 250.831 -0.4V0.4ZM244.911 -0.4C244.691 -0.4 244.511 -0.220914 244.511 0C244.511 0.220914 244.691 0.4 244.911 0.4V-0.4ZM238.992 0.4C239.213 0.4 239.392 0.220914 239.392 0C239.392 -0.220914 239.213 -0.4 238.992 -0.4V0.4ZM233.073 -0.4C232.852 -0.4 232.673 -0.220914 232.673 0C232.673 0.220914 232.852 0.4 233.073 0.4V-0.4ZM227.153 0.4C227.374 0.4 227.553 0.220914 227.553 0C227.553 -0.220914 227.374 -0.4 227.153 -0.4V0.4ZM221.234 -0.4C221.013 -0.4 220.834 -0.220914 220.834 0C220.834 0.220914 221.013 0.4 221.234 0.4V-0.4ZM215.315 0.4C215.536 0.4 215.715 0.220914 215.715 0C215.715 -0.220914 215.536 -0.4 215.315 -0.4V0.4ZM209.395 -0.4C209.174 -0.4 208.995 -0.220914 208.995 0C208.995 0.220914 209.174 0.4 209.395 0.4V-0.4ZM203.476 0.4C203.697 0.4 203.876 0.220914 203.876 0C203.876 -0.220914 203.697 -0.4 203.476 -0.4V0.4ZM197.557 -0.4C197.336 -0.4 197.157 -0.220914 197.157 0C197.157 0.220914 197.336 0.4 197.557 0.4V-0.4ZM191.637 0.4C191.858 0.4 192.037 0.220914 192.037 0C192.037 -0.220914 191.858 -0.4 191.637 -0.4V0.4ZM185.718 -0.4C185.497 -0.4 185.318 -0.220914 185.318 0C185.318 0.220914 185.497 0.4 185.718 0.4V-0.4ZM179.798 0.4C180.019 0.4 180.198 0.220914 180.198 0C180.198 -0.220914 180.019 -0.4 179.798 -0.4V0.4ZM173.879 -0.4C173.658 -0.4 173.479 -0.220914 173.479 0C173.479 0.220914 173.658 0.4 173.879 0.4V-0.4ZM167.96 0.4C168.181 0.4 168.36 0.220914 168.36 0C168.36 -0.220914 168.181 -0.4 167.96 -0.4V0.4ZM162.04 -0.4C161.819 -0.4 161.64 -0.220914 161.64 0C161.64 0.220914 161.819 0.4 162.04 0.4V-0.4ZM156.121 0.4C156.342 0.4 156.521 0.220914 156.521 0C156.521 -0.220914 156.342 -0.4 156.121 -0.4V0.4ZM150.202 -0.4C149.981 -0.4 149.802 -0.220914 149.802 0C149.802 0.220914 149.981 0.4 150.202 0.4V-0.4ZM144.282 0.4C144.503 0.4 144.682 0.220914 144.682 0C144.682 -0.220914 144.503 -0.4 144.282 -0.4V0.4ZM138.363 -0.4C138.142 -0.4 137.963 -0.220914 137.963 0C137.963 0.220914 138.142 0.4 138.363 0.4V-0.4ZM132.443 0.4C132.664 0.4 132.843 0.220914 132.843 0C132.843 -0.220914 132.664 -0.4 132.443 -0.4V0.4ZM126.524 -0.4C126.303 -0.4 126.124 -0.220914 126.124 0C126.124 0.220914 126.303 0.4 126.524 0.4V-0.4ZM120.605 0.4C120.826 0.4 121.005 0.220914 121.005 0C121.005 -0.220914 120.826 -0.4 120.605 -0.4V0.4ZM114.685 -0.4C114.464 -0.4 114.285 -0.220914 114.285 0C114.285 0.220914 114.464 0.4 114.685 0.4V-0.4ZM108.766 0.4C108.987 0.4 109.166 0.220914 109.166 0C109.166 -0.220914 108.987 -0.4 108.766 -0.4V0.4ZM102.847 -0.4C102.626 -0.4 102.447 -0.220914 102.447 0C102.447 0.220914 102.626 0.4 102.847 0.4V-0.4ZM96.9273 0.4C97.1482 0.4 97.3272 0.220914 97.3272 0C97.3272 -0.220914 97.1482 -0.4 96.9273 -0.4V0.4ZM91.0079 -0.4C90.787 -0.4 90.6079 -0.220914 90.6079 0C90.6079 0.220914 90.787 0.4 91.0079 0.4V-0.4ZM85.0885 0.4C85.3094 0.4 85.4885 0.220914 85.4885 0C85.4885 -0.220914 85.3094 -0.4 85.0885 -0.4V0.4ZM79.1691 -0.4C78.9482 -0.4 78.7691 -0.220914 78.7691 0C78.7691 0.220914 78.9482 0.4 79.1691 0.4V-0.4ZM73.2498 0.4C73.4707 0.4 73.6498 0.220914 73.6498 0C73.6498 -0.220914 73.4707 -0.4 73.2498 -0.4V0.4ZM67.3304 -0.4C67.1095 -0.4 66.9304 -0.220914 66.9304 0C66.9304 0.220914 67.1095 0.4 67.3304 0.4V-0.4ZM61.411 0.4C61.6319 0.4 61.811 0.220914 61.811 0C61.811 -0.220914 61.6319 -0.4 61.411 -0.4V0.4ZM55.4916 -0.4C55.2707 -0.4 55.0916 -0.220914 55.0916 0C55.0916 0.220914 55.2707 0.4 55.4916 0.4V-0.4ZM49.5723 0.4C49.7932 0.4 49.9723 0.220914 49.9723 0C49.9723 -0.220914 49.7932 -0.4 49.5723 -0.4V0.4ZM43.6529 -0.4C43.432 -0.4 43.2529 -0.220914 43.2529 0C43.2529 0.220914 43.432 0.4 43.6529 0.4V-0.4ZM37.7335 0.4C37.9544 0.4 38.1335 0.220914 38.1335 0C38.1335 -0.220914 37.9544 -0.4 37.7335 -0.4V0.4ZM34.3765 0.0452172C34.4137 0.372458 34.4464 0.701092 34.4744 1.03105L35.2716 0.963321C35.2429 0.625776 35.2095 0.289574 35.1714 -0.0452172L34.3765 0.0452172ZM34.5861 3.00924C34.5953 3.33835 34.6 3.66863 34.6 4H35.4C35.4 3.66113 35.3952 3.32336 35.3858 2.98676L34.5861 3.00924ZM34.6 4C34.6 4.91473 34.5645 5.8211 34.4949 6.7178L35.2924 6.77977C35.3637 5.86247 35.4 4.93543 35.4 4H34.6ZM33.6513 12.081C33.2258 13.8594 32.663 15.5845 31.9747 17.2444L32.7137 17.5508C33.418 15.8523 33.994 14.087 34.4294 12.2672L33.6513 12.081ZM29.5061 22.0803C28.5553 23.6286 27.486 25.0964 26.3108 26.471L26.9189 26.9909C28.1211 25.5846 29.215 24.083 30.1878 22.4989L29.5061 22.0803ZM22.471 30.3108C21.0964 31.486 19.6286 32.5553 18.0803 33.5061L18.4989 34.1878C20.083 33.215 21.5846 32.1211 22.9909 30.9189L22.471 30.3108ZM13.2444 35.9747C11.5845 36.663 9.85945 37.2258 8.08105 37.6513L8.26719 38.4294C10.087 37.994 11.8523 37.418 13.5508 36.7137L13.2444 35.9747ZM2.7178 38.4949C1.8211 38.5645 0.914733 38.6 0 38.6V39.4C0.935433 39.4 1.86247 39.3637 2.77977 39.2924L2.7178 38.4949ZM-0.4 39V41.9038H0.4V39H-0.4ZM-0.4 47.7115V53.5192H0.4V47.7115H-0.4ZM-0.4 59.3269V65.1346H0.4V59.3269H-0.4ZM-0.4 70.9423V76.75H0.4V70.9423H-0.4ZM-0.4 82.5577V88.3654H0.4V82.5577H-0.4ZM-0.4 94.1731V99.9808H0.4V94.1731H-0.4ZM-0.4 105.788V111.596H0.4V105.788H-0.4ZM-0.4 117.404V123.212H0.4V117.404H-0.4ZM-0.4 129.019V134.827H0.4V129.019H-0.4ZM-0.4 140.635V146.442H0.4V140.635H-0.4ZM-0.4 152.25V158.058H0.4V152.25H-0.4ZM-0.4 163.865V169.673H0.4V163.865H-0.4ZM-0.4 175.481V181.288H0.4V175.481H-0.4ZM-0.4 187.096V190H0.4V187.096H-0.4ZM-0.4 190C-0.4 191.095 -0.292675 192.165 -0.0878505 193.2L0.69694 193.045C0.502177 192.06 0.4 191.042 0.4 190H-0.4ZM2.36257 199.112C3.55979 200.901 5.09935 202.44 6.88763 203.637L7.33268 202.973C5.63131 201.834 4.16638 200.369 3.02734 198.667L2.36257 199.112ZM12.7998 206.088C13.8351 206.293 14.9052 206.4 16 206.4V205.6C14.9576 205.6 13.9395 205.498 12.955 205.303L12.7998 206.088ZM16 206.4H18.98V205.6H16V206.4ZM24.94 206.4H30.9V205.6H24.94V206.4ZM36.86 206.4H42.82V205.6H36.86V206.4ZM48.78 206.4H54.74V205.6H48.78V206.4ZM60.7 206.4H66.66V205.6H60.7V206.4ZM72.62 206.4H78.58V205.6H72.62V206.4ZM84.54 206.4H90.5V205.6H84.54V206.4ZM96.46 206.4H102.42V205.6H96.46V206.4ZM108.38 206.4H114.34V205.6H108.38V206.4ZM120.3 206.4H126.26V205.6H120.3V206.4ZM132.22 206.4H138.18V205.6H132.22V206.4ZM144.14 206.4H150.1V205.6H144.14V206.4ZM156.06 206.4H162.02V205.6H156.06V206.4ZM167.98 206.4H173.94V205.6H167.98V206.4ZM179.9 206.4H185.86V205.6H179.9V206.4ZM191.82 206.4H197.78V205.6H191.82V206.4ZM203.74 206.4H209.7V205.6H203.74V206.4ZM215.66 206.4H221.62V205.6H215.66V206.4ZM227.58 206.4H233.54V205.6H227.58V206.4ZM239.5 206.4H245.46V205.6H239.5V206.4ZM251.42 206.4H257.38V205.6H251.42V206.4ZM263.34 206.4H269.3V205.6H263.34V206.4ZM275.26 206.4H281.22V205.6H275.26V206.4ZM287.18 206.4H293.14V205.6H287.18V206.4ZM299.1 206.4H305.06V205.6H299.1V206.4ZM311.02 206.4H314V205.6H311.02V206.4ZM314 206.4C315.095 206.4 316.165 206.293 317.2 206.088L317.045 205.303C316.06 205.498 315.042 205.6 314 205.6V206.4ZM323.112 203.637C324.901 202.44 326.44 200.901 327.637 199.112L326.973 198.667C325.834 200.369 324.369 201.834 322.667 202.973L323.112 203.637ZM330.088 193.2C330.293 192.165 330.4 191.095 330.4 190H329.6C329.6 191.042 329.498 192.06 329.303 193.045L330.088 193.2ZM330.4 190V187.096H329.6V190H330.4ZM330.4 181.288V175.481H329.6V181.288H330.4ZM330.4 169.673V163.865H329.6V169.673H330.4ZM330.4 158.058V152.25H329.6V158.058H330.4ZM330.4 146.442V140.635H329.6V146.442H330.4ZM330.4 134.827V129.019H329.6V134.827H330.4ZM330.4 123.212V117.404H329.6V123.212H330.4ZM330.4 111.596V105.788H329.6V111.596H330.4ZM330.4 99.9808V94.1731H329.6V99.9808H330.4ZM330.4 88.3654V82.5577H329.6V88.3654H330.4ZM330.4 76.75V70.9423H329.6V76.75H330.4ZM330.4 65.1346V59.3269H329.6V65.1346H330.4ZM330.4 53.5192V47.7115H329.6V53.5192H330.4ZM330.4 41.9038V39H329.6V41.9038H330.4ZM330 38.6C329.085 38.6 328.179 38.5645 327.282 38.4949L327.22 39.2924C328.138 39.3637 329.065 39.4 330 39.4V38.6ZM321.919 37.6513C320.141 37.2258 318.416 36.663 316.756 35.9747L316.449 36.7137C318.148 37.418 319.913 37.994 321.733 38.4294L321.919 37.6513ZM311.92 33.5061C310.371 32.5553 308.904 31.486 307.529 30.3108L307.009 30.9189C308.415 32.1211 309.917 33.215 311.501 34.1878L311.92 33.5061ZM303.689 26.471C302.514 25.0964 301.445 23.6286 300.494 22.0803L299.812 22.4989C300.785 24.083 301.879 25.5846 303.081 26.9909L303.689 26.471ZM298.025 17.2444C297.337 15.5845 296.774 13.8594 296.349 12.081L295.571 12.2672C296.006 14.087 296.582 15.8523 297.286 17.5508L298.025 17.2444ZM295.505 6.7178C295.435 5.8211 295.4 4.91473 295.4 4H294.6C294.6 4.93543 294.636 5.86247 294.708 6.77977L295.505 6.7178ZM295.4 4C295.4 3.66863 295.405 3.33835 295.414 3.00924L294.614 2.98676C294.605 3.32336 294.6 3.66113 294.6 4H295.4ZM295.526 1.03105C295.554 0.701093 295.586 0.37246 295.624 0.0452195L294.829 -0.0452195C294.791 0.289573 294.757 0.625775 294.728 0.96332L295.526 1.03105ZM295.226 -0.4H292.266V0.4H295.226V-0.4ZM286.347 -0.4H280.428V0.4H286.347V-0.4ZM274.508 -0.4H268.589V0.4H274.508V-0.4ZM262.67 -0.4H256.75V0.4H262.67V-0.4ZM250.831 -0.4H244.911V0.4H250.831V-0.4ZM238.992 -0.4H233.073V0.4H238.992V-0.4ZM227.153 -0.4H221.234V0.4H227.153V-0.4ZM215.315 -0.4H209.395V0.4H215.315V-0.4ZM203.476 -0.4H197.557V0.4H203.476V-0.4ZM191.637 -0.4H185.718V0.4H191.637V-0.4ZM179.798 -0.4H173.879V0.4H179.798V-0.4ZM167.96 -0.4H162.04V0.4H167.96V-0.4ZM156.121 -0.4H150.202V0.4H156.121V-0.4ZM144.282 -0.4H138.363V0.4H144.282V-0.4ZM132.443 -0.4H126.524V0.4H132.443V-0.4ZM120.605 -0.4H114.685V0.4H120.605V-0.4ZM108.766 -0.4H102.847V0.4H108.766V-0.4ZM96.9273 -0.4H91.0079V0.4H96.9273V-0.4ZM85.0885 -0.4H79.1691V0.4H85.0885V-0.4ZM73.2498 -0.4H67.3304V0.4H73.2498V-0.4ZM61.411 -0.4H55.4916V0.4H61.411V-0.4ZM49.5723 -0.4H43.6529V0.4H49.5723V-0.4ZM37.7335 -0.4H34.7739V0.4H37.7335V-0.4ZM34.7739 0V-0.8H33.8777L33.9791 0.0904345L34.7739 0ZM295.226 0L296.021 0.090439L296.122 -0.8H295.226V0ZM0 39V38.2H-0.8V39H0ZM330 39H330.8V38.2H330V39ZM34.0759 1.06492C34.1133 1.50516 34.5005 1.83172 34.9407 1.79431C35.381 1.75691 35.7075 1.3697 35.6701 0.929454L34.0759 1.06492ZM35.7856 2.97552C35.7732 2.53386 35.4051 2.1859 34.9635 2.19831C34.5218 2.21073 34.1738 2.57882 34.1862 3.02048L35.7856 2.97552ZM34.0961 6.68682C34.0618 7.12732 34.3912 7.51216 34.8317 7.54638C35.2722 7.5806 35.657 7.25125 35.6912 6.81075L34.0961 6.68682ZM34.8184 12.3603C34.9212 11.9306 34.6562 11.4989 34.2265 11.3961C33.7968 11.2933 33.3651 11.5583 33.2623 11.988L34.8184 12.3603ZM31.6052 17.0911C31.436 17.4993 31.6296 17.9673 32.0377 18.1366C32.4459 18.3058 32.9139 18.1121 33.0832 17.704L31.6052 17.0911ZM30.5286 22.7082C30.7598 22.3317 30.6421 21.8391 30.2656 21.6079C29.889 21.3767 29.3964 21.4944 29.1652 21.871L30.5286 22.7082ZM26.0068 26.2111C25.7197 26.5469 25.7592 27.0519 26.095 27.339C26.4309 27.6261 26.9358 27.5866 27.2229 27.2508L26.0068 26.2111ZM23.2508 31.2229C23.5866 30.9358 23.6261 30.4308 23.339 30.095C23.0519 29.7592 22.5469 29.7197 22.2111 30.0068L23.2508 31.2229ZM17.871 33.1652C17.4944 33.3964 17.3767 33.889 17.6079 34.2656C17.8391 34.6421 18.3317 34.7598 18.7082 34.5286L17.871 33.1652ZM13.704 37.0832C14.1121 36.9139 14.3058 36.4459 14.1366 36.0377C13.9673 35.6296 13.4993 35.436 13.0911 35.6052L13.704 37.0832ZM7.98797 37.2623C7.55827 37.3651 7.29327 37.7968 7.39608 38.2265C7.49889 38.6562 7.93057 38.9212 8.36027 38.8184L7.98797 37.2623ZM2.81075 39.6912C3.25125 39.657 3.5806 39.2722 3.54638 38.8317C3.51216 38.3912 3.12732 38.0618 2.68682 38.0961L2.81075 39.6912ZM-0.8 41.9038C-0.8 42.3457 -0.441828 42.7038 0 42.7038C0.441828 42.7038 0.8 42.3457 0.8 41.9038H-0.8ZM0.8 47.7115C0.8 47.2697 0.441828 46.9115 0 46.9115C-0.441828 46.9115 -0.8 47.2697 -0.8 47.7115H0.8ZM-0.8 53.5192C-0.8 53.9611 -0.441828 54.3192 0 54.3192C0.441828 54.3192 0.8 53.9611 0.8 53.5192H-0.8ZM0.8 59.3269C0.8 58.8851 0.441828 58.5269 0 58.5269C-0.441828 58.5269 -0.8 58.8851 -0.8 59.3269H0.8ZM-0.8 65.1346C-0.8 65.5764 -0.441828 65.9346 0 65.9346C0.441828 65.9346 0.8 65.5764 0.8 65.1346H-0.8ZM0.8 70.9423C0.8 70.5005 0.441828 70.1423 0 70.1423C-0.441828 70.1423 -0.8 70.5005 -0.8 70.9423H0.8ZM-0.8 76.75C-0.8 77.1918 -0.441828 77.55 0 77.55C0.441828 77.55 0.8 77.1918 0.8 76.75H-0.8ZM0.8 82.5577C0.8 82.1159 0.441828 81.7577 0 81.7577C-0.441828 81.7577 -0.8 82.1159 -0.8 82.5577H0.8ZM-0.8 88.3654C-0.8 88.8072 -0.441828 89.1654 0 89.1654C0.441828 89.1654 0.8 88.8072 0.8 88.3654H-0.8ZM0.8 94.1731C0.8 93.7313 0.441828 93.3731 0 93.3731C-0.441828 93.3731 -0.8 93.7313 -0.8 94.1731H0.8ZM-0.8 99.9808C-0.8 100.423 -0.441828 100.781 0 100.781C0.441828 100.781 0.8 100.423 0.8 99.9808H-0.8ZM0.8 105.788C0.8 105.347 0.441828 104.988 0 104.988C-0.441828 104.988 -0.8 105.347 -0.8 105.788H0.8ZM-0.8 111.596C-0.8 112.038 -0.441828 112.396 0 112.396C0.441828 112.396 0.8 112.038 0.8 111.596H-0.8ZM0.8 117.404C0.8 116.962 0.441828 116.604 0 116.604C-0.441828 116.604 -0.8 116.962 -0.8 117.404H0.8ZM-0.8 123.212C-0.8 123.653 -0.441828 124.012 0 124.012C0.441828 124.012 0.8 123.653 0.8 123.212H-0.8ZM0.8 129.019C0.8 128.577 0.441828 128.219 0 128.219C-0.441828 128.219 -0.8 128.577 -0.8 129.019H0.8ZM-0.8 134.827C-0.8 135.269 -0.441828 135.627 0 135.627C0.441828 135.627 0.8 135.269 0.8 134.827H-0.8ZM0.8 140.635C0.8 140.193 0.441828 139.835 0 139.835C-0.441828 139.835 -0.8 140.193 -0.8 140.635H0.8ZM-0.8 146.442C-0.8 146.884 -0.441828 147.242 0 147.242C0.441828 147.242 0.8 146.884 0.8 146.442H-0.8ZM0.8 152.25C0.8 151.808 0.441828 151.45 0 151.45C-0.441828 151.45 -0.8 151.808 -0.8 152.25H0.8ZM-0.8 158.058C-0.8 158.5 -0.441828 158.858 0 158.858C0.441828 158.858 0.8 158.5 0.8 158.058H-0.8ZM0.8 163.865C0.8 163.424 0.441828 163.065 0 163.065C-0.441828 163.065 -0.8 163.424 -0.8 163.865H0.8ZM-0.8 169.673C-0.8 170.115 -0.441828 170.473 0 170.473C0.441828 170.473 0.8 170.115 0.8 169.673H-0.8ZM0.8 175.481C0.8 175.039 0.441828 174.681 0 174.681C-0.441828 174.681 -0.8 175.039 -0.8 175.481H0.8ZM-0.8 181.288C-0.8 181.73 -0.441828 182.088 0 182.088C0.441828 182.088 0.8 181.73 0.8 181.288H-0.8ZM0.8 187.096C0.8 186.654 0.441828 186.296 0 186.296C-0.441828 186.296 -0.8 186.654 -0.8 187.096H0.8ZM-0.480246 193.278C-0.394501 193.711 0.0263721 193.993 0.4598 193.907C0.893228 193.822 1.17508 193.401 1.08934 192.967L-0.480246 193.278ZM3.35973 198.445C3.11393 198.078 2.61704 197.979 2.2499 198.225C1.88275 198.471 1.78438 198.968 2.03018 199.335L3.35973 198.445ZM6.6651 203.97C7.03224 204.216 7.52913 204.117 7.77493 203.75C8.02073 203.383 7.92235 202.886 7.55521 202.64L6.6651 203.97ZM13.0327 204.911C12.5992 204.825 12.1784 205.107 12.0926 205.54C12.0069 205.974 12.2887 206.395 12.7222 206.48L13.0327 204.911ZM18.98 206.8C19.4218 206.8 19.78 206.442 19.78 206C19.78 205.558 19.4218 205.2 18.98 205.2V206.8ZM24.94 205.2C24.4982 205.2 24.14 205.558 24.14 206C24.14 206.442 24.4982 206.8 24.94 206.8V205.2ZM30.9 206.8C31.3418 206.8 31.7 206.442 31.7 206C31.7 205.558 31.3418 205.2 30.9 205.2V206.8ZM36.86 205.2C36.4182 205.2 36.06 205.558 36.06 206C36.06 206.442 36.4182 206.8 36.86 206.8V205.2ZM42.82 206.8C43.2618 206.8 43.62 206.442 43.62 206C43.62 205.558 43.2618 205.2 42.82 205.2V206.8ZM48.78 205.2C48.3382 205.2 47.98 205.558 47.98 206C47.98 206.442 48.3382 206.8 48.78 206.8V205.2ZM54.74 206.8C55.1818 206.8 55.54 206.442 55.54 206C55.54 205.558 55.1818 205.2 54.74 205.2V206.8ZM60.7 205.2C60.2582 205.2 59.9 205.558 59.9 206C59.9 206.442 60.2582 206.8 60.7 206.8V205.2ZM66.66 206.8C67.1018 206.8 67.46 206.442 67.46 206C67.46 205.558 67.1018 205.2 66.66 205.2V206.8ZM72.62 205.2C72.1782 205.2 71.82 205.558 71.82 206C71.82 206.442 72.1782 206.8 72.62 206.8V205.2ZM78.58 206.8C79.0218 206.8 79.38 206.442 79.38 206C79.38 205.558 79.0218 205.2 78.58 205.2V206.8ZM84.54 205.2C84.0982 205.2 83.74 205.558 83.74 206C83.74 206.442 84.0982 206.8 84.54 206.8V205.2ZM90.5 206.8C90.9418 206.8 91.3 206.442 91.3 206C91.3 205.558 90.9418 205.2 90.5 205.2V206.8ZM96.46 205.2C96.0182 205.2 95.66 205.558 95.66 206C95.66 206.442 96.0182 206.8 96.46 206.8V205.2ZM102.42 206.8C102.862 206.8 103.22 206.442 103.22 206C103.22 205.558 102.862 205.2 102.42 205.2V206.8ZM108.38 205.2C107.938 205.2 107.58 205.558 107.58 206C107.58 206.442 107.938 206.8 108.38 206.8V205.2ZM114.34 206.8C114.782 206.8 115.14 206.442 115.14 206C115.14 205.558 114.782 205.2 114.34 205.2V206.8ZM120.3 205.2C119.858 205.2 119.5 205.558 119.5 206C119.5 206.442 119.858 206.8 120.3 206.8V205.2ZM126.26 206.8C126.702 206.8 127.06 206.442 127.06 206C127.06 205.558 126.702 205.2 126.26 205.2V206.8ZM132.22 205.2C131.778 205.2 131.42 205.558 131.42 206C131.42 206.442 131.778 206.8 132.22 206.8V205.2ZM138.18 206.8C138.622 206.8 138.98 206.442 138.98 206C138.98 205.558 138.622 205.2 138.18 205.2V206.8ZM144.14 205.2C143.698 205.2 143.34 205.558 143.34 206C143.34 206.442 143.698 206.8 144.14 206.8V205.2ZM150.1 206.8C150.542 206.8 150.9 206.442 150.9 206C150.9 205.558 150.542 205.2 150.1 205.2V206.8ZM156.06 205.2C155.618 205.2 155.26 205.558 155.26 206C155.26 206.442 155.618 206.8 156.06 206.8V205.2ZM162.02 206.8C162.462 206.8 162.82 206.442 162.82 206C162.82 205.558 162.462 205.2 162.02 205.2V206.8ZM167.98 205.2C167.538 205.2 167.18 205.558 167.18 206C167.18 206.442 167.538 206.8 167.98 206.8V205.2ZM173.94 206.8C174.382 206.8 174.74 206.442 174.74 206C174.74 205.558 174.382 205.2 173.94 205.2V206.8ZM179.9 205.2C179.458 205.2 179.1 205.558 179.1 206C179.1 206.442 179.458 206.8 179.9 206.8V205.2ZM185.86 206.8C186.302 206.8 186.66 206.442 186.66 206C186.66 205.558 186.302 205.2 185.86 205.2V206.8ZM191.82 205.2C191.378 205.2 191.02 205.558 191.02 206C191.02 206.442 191.378 206.8 191.82 206.8V205.2ZM197.78 206.8C198.222 206.8 198.58 206.442 198.58 206C198.58 205.558 198.222 205.2 197.78 205.2V206.8ZM203.74 205.2C203.298 205.2 202.94 205.558 202.94 206C202.94 206.442 203.298 206.8 203.74 206.8V205.2ZM209.7 206.8C210.142 206.8 210.5 206.442 210.5 206C210.5 205.558 210.142 205.2 209.7 205.2V206.8ZM215.66 205.2C215.218 205.2 214.86 205.558 214.86 206C214.86 206.442 215.218 206.8 215.66 206.8V205.2ZM221.62 206.8C222.062 206.8 222.42 206.442 222.42 206C222.42 205.558 222.062 205.2 221.62 205.2V206.8ZM227.58 205.2C227.138 205.2 226.78 205.558 226.78 206C226.78 206.442 227.138 206.8 227.58 206.8V205.2ZM233.54 206.8C233.982 206.8 234.34 206.442 234.34 206C234.34 205.558 233.982 205.2 233.54 205.2V206.8ZM239.5 205.2C239.058 205.2 238.7 205.558 238.7 206C238.7 206.442 239.058 206.8 239.5 206.8V205.2ZM245.46 206.8C245.902 206.8 246.26 206.442 246.26 206C246.26 205.558 245.902 205.2 245.46 205.2V206.8ZM251.42 205.2C250.978 205.2 250.62 205.558 250.62 206C250.62 206.442 250.978 206.8 251.42 206.8V205.2ZM257.38 206.8C257.822 206.8 258.18 206.442 258.18 206C258.18 205.558 257.822 205.2 257.38 205.2V206.8ZM263.34 205.2C262.898 205.2 262.54 205.558 262.54 206C262.54 206.442 262.898 206.8 263.34 206.8V205.2ZM269.3 206.8C269.742 206.8 270.1 206.442 270.1 206C270.1 205.558 269.742 205.2 269.3 205.2V206.8ZM275.26 205.2C274.818 205.2 274.46 205.558 274.46 206C274.46 206.442 274.818 206.8 275.26 206.8V205.2ZM281.22 206.8C281.662 206.8 282.02 206.442 282.02 206C282.02 205.558 281.662 205.2 281.22 205.2V206.8ZM287.18 205.2C286.738 205.2 286.38 205.558 286.38 206C286.38 206.442 286.738 206.8 287.18 206.8V205.2ZM293.14 206.8C293.582 206.8 293.94 206.442 293.94 206C293.94 205.558 293.582 205.2 293.14 205.2V206.8ZM299.1 205.2C298.658 205.2 298.3 205.558 298.3 206C298.3 206.442 298.658 206.8 299.1 206.8V205.2ZM305.06 206.8C305.502 206.8 305.86 206.442 305.86 206C305.86 205.558 305.502 205.2 305.06 205.2V206.8ZM311.02 205.2C310.578 205.2 310.22 205.558 310.22 206C310.22 206.442 310.578 206.8 311.02 206.8V205.2ZM317.278 206.48C317.711 206.395 317.993 205.974 317.907 205.54C317.822 205.107 317.401 204.825 316.967 204.911L317.278 206.48ZM322.445 202.64C322.078 202.886 321.979 203.383 322.225 203.75C322.471 204.117 322.968 204.216 323.335 203.97L322.445 202.64ZM327.97 199.335C328.216 198.968 328.117 198.471 327.75 198.225C327.383 197.979 326.886 198.078 326.64 198.445L327.97 199.335ZM328.911 192.967C328.825 193.401 329.107 193.822 329.54 193.907C329.974 193.993 330.395 193.711 330.48 193.278L328.911 192.967ZM330.8 187.096C330.8 186.654 330.442 186.296 330 186.296C329.558 186.296 329.2 186.654 329.2 187.096H330.8ZM329.2 181.288C329.2 181.73 329.558 182.088 330 182.088C330.442 182.088 330.8 181.73 330.8 181.288H329.2ZM330.8 175.481C330.8 175.039 330.442 174.681 330 174.681C329.558 174.681 329.2 175.039 329.2 175.481H330.8ZM329.2 169.673C329.2 170.115 329.558 170.473 330 170.473C330.442 170.473 330.8 170.115 330.8 169.673H329.2ZM330.8 163.865C330.8 163.424 330.442 163.065 330 163.065C329.558 163.065 329.2 163.424 329.2 163.865H330.8ZM329.2 158.058C329.2 158.5 329.558 158.858 330 158.858C330.442 158.858 330.8 158.5 330.8 158.058H329.2ZM330.8 152.25C330.8 151.808 330.442 151.45 330 151.45C329.558 151.45 329.2 151.808 329.2 152.25H330.8ZM329.2 146.442C329.2 146.884 329.558 147.242 330 147.242C330.442 147.242 330.8 146.884 330.8 146.442H329.2ZM330.8 140.635C330.8 140.193 330.442 139.835 330 139.835C329.558 139.835 329.2 140.193 329.2 140.635H330.8ZM329.2 134.827C329.2 135.269 329.558 135.627 330 135.627C330.442 135.627 330.8 135.269 330.8 134.827H329.2ZM330.8 129.019C330.8 128.577 330.442 128.219 330 128.219C329.558 128.219 329.2 128.577 329.2 129.019H330.8ZM329.2 123.212C329.2 123.653 329.558 124.012 330 124.012C330.442 124.012 330.8 123.653 330.8 123.212H329.2ZM330.8 117.404C330.8 116.962 330.442 116.604 330 116.604C329.558 116.604 329.2 116.962 329.2 117.404H330.8ZM329.2 111.596C329.2 112.038 329.558 112.396 330 112.396C330.442 112.396 330.8 112.038 330.8 111.596H329.2ZM330.8 105.788C330.8 105.347 330.442 104.988 330 104.988C329.558 104.988 329.2 105.347 329.2 105.788H330.8ZM329.2 99.9808C329.2 100.423 329.558 100.781 330 100.781C330.442 100.781 330.8 100.423 330.8 99.9808H329.2ZM330.8 94.1731C330.8 93.7312 330.442 93.3731 330 93.3731C329.558 93.3731 329.2 93.7312 329.2 94.1731H330.8ZM329.2 88.3654C329.2 88.8072 329.558 89.1654 330 89.1654C330.442 89.1654 330.8 88.8072 330.8 88.3654H329.2ZM330.8 82.5577C330.8 82.1159 330.442 81.7577 330 81.7577C329.558 81.7577 329.2 82.1159 329.2 82.5577H330.8ZM329.2 76.75C329.2 77.1918 329.558 77.55 330 77.55C330.442 77.55 330.8 77.1918 330.8 76.75H329.2ZM330.8 70.9423C330.8 70.5005 330.442 70.1423 330 70.1423C329.558 70.1423 329.2 70.5005 329.2 70.9423H330.8ZM329.2 65.1346C329.2 65.5764 329.558 65.9346 330 65.9346C330.442 65.9346 330.8 65.5764 330.8 65.1346H329.2ZM330.8 59.3269C330.8 58.8851 330.442 58.5269 330 58.5269C329.558 58.5269 329.2 58.8851 329.2 59.3269H330.8ZM329.2 53.5192C329.2 53.961 329.558 54.3192 330 54.3192C330.442 54.3192 330.8 53.961 330.8 53.5192H329.2ZM330.8 47.7115C330.8 47.2697 330.442 46.9115 330 46.9115C329.558 46.9115 329.2 47.2697 329.2 47.7115H330.8ZM329.2 41.9038C329.2 42.3456 329.558 42.7038 330 42.7038C330.442 42.7038 330.8 42.3456 330.8 41.9038H329.2ZM327.313 38.0961C326.873 38.0618 326.488 38.3912 326.454 38.8317C326.419 39.2722 326.749 39.657 327.189 39.6912L327.313 38.0961ZM321.64 38.8184C322.069 38.9212 322.501 38.6562 322.604 38.2265C322.707 37.7968 322.442 37.3651 322.012 37.2623L321.64 38.8184ZM316.909 35.6052C316.501 35.436 316.033 35.6296 315.863 36.0377C315.694 36.4459 315.888 36.9139 316.296 37.0832L316.909 35.6052ZM311.292 34.5286C311.668 34.7598 312.161 34.6421 312.392 34.2656C312.623 33.889 312.506 33.3964 312.129 33.1652L311.292 34.5286ZM307.789 30.0068C307.453 29.7197 306.948 29.7592 306.661 30.095C306.374 30.4309 306.413 30.9358 306.749 31.2229L307.789 30.0068ZM302.777 27.2508C303.064 27.5866 303.569 27.6261 303.905 27.339C304.241 27.0519 304.28 26.5469 303.993 26.2111L302.777 27.2508ZM300.835 21.871C300.604 21.4944 300.111 21.3767 299.734 21.6079C299.358 21.8391 299.24 22.3317 299.471 22.7082L300.835 21.871ZM296.917 17.704C297.086 18.1121 297.554 18.3058 297.962 18.1366C298.37 17.9673 298.564 17.4993 298.395 17.0911L296.917 17.704ZM296.738 11.988C296.635 11.5583 296.203 11.2933 295.774 11.3961C295.344 11.4989 295.079 11.9306 295.182 12.3603L296.738 11.988ZM294.309 6.81075C294.343 7.25125 294.728 7.5806 295.168 7.54638C295.609 7.51216 295.938 7.12732 295.904 6.68682L294.309 6.81075ZM295.814 3.02048C295.826 2.57882 295.478 2.21073 295.037 2.19831C294.595 2.1859 294.227 2.53386 294.214 2.97552L295.814 3.02048ZM294.33 0.929453C294.292 1.36969 294.619 1.75691 295.059 1.79431C295.5 1.83172 295.887 1.50516 295.924 1.06492L294.33 0.929453ZM292.266 -0.8C291.825 -0.8 291.466 -0.441828 291.466 0C291.466 0.441828 291.825 0.8 292.266 0.8V-0.8ZM286.347 0.8C286.789 0.8 287.147 0.441828 287.147 0C287.147 -0.441828 286.789 -0.8 286.347 -0.8V0.8ZM280.428 -0.8C279.986 -0.8 279.628 -0.441828 279.628 0C279.628 0.441828 279.986 0.8 280.428 0.8V-0.8ZM274.508 0.8C274.95 0.8 275.308 0.441828 275.308 0C275.308 -0.441828 274.95 -0.8 274.508 -0.8V0.8ZM268.589 -0.8C268.147 -0.8 267.789 -0.441828 267.789 0C267.789 0.441828 268.147 0.8 268.589 0.8V-0.8ZM262.67 0.8C263.111 0.8 263.47 0.441828 263.47 0C263.47 -0.441828 263.111 -0.8 262.67 -0.8V0.8ZM256.75 -0.8C256.308 -0.8 255.95 -0.441828 255.95 0C255.95 0.441828 256.308 0.8 256.75 0.8V-0.8ZM250.831 0.8C251.273 0.8 251.631 0.441828 251.631 0C251.631 -0.441828 251.273 -0.8 250.831 -0.8V0.8ZM244.911 -0.8C244.47 -0.8 244.111 -0.441828 244.111 0C244.111 0.441828 244.47 0.8 244.911 0.8V-0.8ZM238.992 0.8C239.434 0.8 239.792 0.441828 239.792 0C239.792 -0.441828 239.434 -0.8 238.992 -0.8V0.8ZM233.073 -0.8C232.631 -0.8 232.273 -0.441828 232.273 0C232.273 0.441828 232.631 0.8 233.073 0.8V-0.8ZM227.153 0.8C227.595 0.8 227.953 0.441828 227.953 0C227.953 -0.441828 227.595 -0.8 227.153 -0.8V0.8ZM221.234 -0.8C220.792 -0.8 220.434 -0.441828 220.434 0C220.434 0.441828 220.792 0.8 221.234 0.8V-0.8ZM215.315 0.8C215.756 0.8 216.115 0.441828 216.115 0C216.115 -0.441828 215.756 -0.8 215.315 -0.8V0.8ZM209.395 -0.8C208.953 -0.8 208.595 -0.441828 208.595 0C208.595 0.441828 208.953 0.8 209.395 0.8V-0.8ZM203.476 0.8C203.918 0.8 204.276 0.441828 204.276 0C204.276 -0.441828 203.918 -0.8 203.476 -0.8V0.8ZM197.557 -0.8C197.115 -0.8 196.757 -0.441828 196.757 0C196.757 0.441828 197.115 0.8 197.557 0.8V-0.8ZM191.637 0.8C192.079 0.8 192.437 0.441828 192.437 0C192.437 -0.441828 192.079 -0.8 191.637 -0.8V0.8ZM185.718 -0.8C185.276 -0.8 184.918 -0.441828 184.918 0C184.918 0.441828 185.276 0.8 185.718 0.8V-0.8ZM179.798 0.8C180.24 0.8 180.598 0.441828 180.598 0C180.598 -0.441828 180.24 -0.8 179.798 -0.8V0.8ZM173.879 -0.8C173.437 -0.8 173.079 -0.441828 173.079 0C173.079 0.441828 173.437 0.8 173.879 0.8V-0.8ZM167.96 0.8C168.402 0.8 168.76 0.441828 168.76 0C168.76 -0.441828 168.402 -0.8 167.96 -0.8V0.8ZM162.04 -0.8C161.599 -0.8 161.24 -0.441828 161.24 0C161.24 0.441828 161.599 0.8 162.04 0.8V-0.8ZM156.121 0.8C156.563 0.8 156.921 0.441828 156.921 0C156.921 -0.441828 156.563 -0.8 156.121 -0.8V0.8ZM150.202 -0.8C149.76 -0.8 149.402 -0.441828 149.402 0C149.402 0.441828 149.76 0.8 150.202 0.8V-0.8ZM144.282 0.8C144.724 0.8 145.082 0.441828 145.082 0C145.082 -0.441828 144.724 -0.8 144.282 -0.8V0.8ZM138.363 -0.8C137.921 -0.8 137.563 -0.441828 137.563 0C137.563 0.441828 137.921 0.8 138.363 0.8V-0.8ZM132.443 0.8C132.885 0.8 133.243 0.441828 133.243 0C133.243 -0.441828 132.885 -0.8 132.443 -0.8V0.8ZM126.524 -0.8C126.082 -0.8 125.724 -0.441828 125.724 0C125.724 0.441828 126.082 0.8 126.524 0.8V-0.8ZM120.605 0.8C121.047 0.8 121.405 0.441828 121.405 0C121.405 -0.441828 121.047 -0.8 120.605 -0.8V0.8ZM114.685 -0.8C114.244 -0.8 113.885 -0.441828 113.885 0C113.885 0.441828 114.244 0.8 114.685 0.8V-0.8ZM108.766 0.8C109.208 0.8 109.566 0.441828 109.566 0C109.566 -0.441828 109.208 -0.8 108.766 -0.8V0.8ZM102.847 -0.8C102.405 -0.8 102.047 -0.441828 102.047 0C102.047 0.441828 102.405 0.8 102.847 0.8V-0.8ZM96.9273 0.8C97.3691 0.8 97.7272 0.441828 97.7272 0C97.7272 -0.441828 97.3691 -0.8 96.9273 -0.8V0.8ZM91.0079 -0.8C90.566 -0.8 90.2079 -0.441828 90.2079 0C90.2079 0.441828 90.566 0.8 91.0079 0.8V-0.8ZM85.0885 0.8C85.5303 0.8 85.8885 0.441828 85.8885 0C85.8885 -0.441828 85.5303 -0.8 85.0885 -0.8V0.8ZM79.1691 -0.8C78.7273 -0.8 78.3691 -0.441828 78.3691 0C78.3691 0.441828 78.7273 0.8 79.1691 0.8V-0.8ZM73.2498 0.8C73.6916 0.8 74.0498 0.441828 74.0498 0C74.0498 -0.441828 73.6916 -0.8 73.2498 -0.8V0.8ZM67.3304 -0.8C66.8886 -0.8 66.5304 -0.441828 66.5304 0C66.5304 0.441828 66.8886 0.8 67.3304 0.8V-0.8ZM61.411 0.8C61.8528 0.8 62.211 0.441828 62.211 0C62.211 -0.441828 61.8528 -0.8 61.411 -0.8V0.8ZM55.4916 -0.8C55.0498 -0.8 54.6916 -0.441828 54.6916 0C54.6916 0.441828 55.0498 0.8 55.4916 0.8V-0.8ZM49.5723 0.8C50.0141 0.8 50.3723 0.441828 50.3723 0C50.3723 -0.441828 50.0141 -0.8 49.5723 -0.8V0.8ZM43.6529 -0.8C43.2111 -0.8 42.8529 -0.441828 42.8529 0C42.8529 0.441828 43.2111 0.8 43.6529 0.8V-0.8ZM37.7335 0.8C38.1753 0.8 38.5335 0.441828 38.5335 0C38.5335 -0.441828 38.1753 -0.8 37.7335 -0.8V0.8ZM33.9791 0.0904345C34.0159 0.413901 34.0481 0.73875 34.0759 1.06492L35.6701 0.929454C35.6411 0.588118 35.6073 0.248132 35.5688 -0.0904345L33.9791 0.0904345ZM34.1862 3.02048C34.1954 3.34585 34.2 3.67237 34.2 4H35.8C35.8 3.65738 35.7952 3.31587 35.7856 2.97552L34.1862 3.02048ZM34.2 4C34.2 4.90438 34.1649 5.80041 34.0961 6.68682L35.6912 6.81075C35.7633 5.88315 35.8 4.94578 35.8 4H34.2ZM33.2623 11.988C32.8418 13.7457 32.2855 15.4506 31.6052 17.0911L33.0832 17.704C33.7955 15.9862 34.378 14.2008 34.8184 12.3603L33.2623 11.988ZM29.1652 21.871C28.2254 23.4014 27.1684 24.8523 26.0068 26.2111L27.2229 27.2508C28.4386 25.8287 29.5449 24.3102 30.5286 22.7082L29.1652 21.871ZM22.2111 30.0068C20.8523 31.1684 19.4014 32.2254 17.871 33.1652L18.7082 34.5286C20.3102 33.5449 21.8287 32.4386 23.2508 31.2229L22.2111 30.0068ZM13.0911 35.6052C11.4506 36.2855 9.74565 36.8418 7.98797 37.2623L8.36027 38.8184C10.2008 38.378 11.9862 37.7955 13.704 37.0832L13.0911 35.6052ZM2.68682 38.0961C1.80041 38.1649 0.904384 38.2 0 38.2V39.8C0.945783 39.8 1.88315 39.7633 2.81075 39.6912L2.68682 38.0961ZM-0.8 39V41.9038H0.8V39H-0.8ZM-0.8 47.7115V53.5192H0.8V47.7115H-0.8ZM-0.8 59.3269V65.1346H0.8V59.3269H-0.8ZM-0.8 70.9423V76.75H0.8V70.9423H-0.8ZM-0.8 82.5577V88.3654H0.8V82.5577H-0.8ZM-0.8 94.1731V99.9808H0.8V94.1731H-0.8ZM-0.8 105.788V111.596H0.8V105.788H-0.8ZM-0.8 117.404V123.212H0.8V117.404H-0.8ZM-0.8 129.019V134.827H0.8V129.019H-0.8ZM-0.8 140.635V146.442H0.8V140.635H-0.8ZM-0.8 152.25V158.058H0.8V152.25H-0.8ZM-0.8 163.865V169.673H0.8V163.865H-0.8ZM-0.8 175.481V181.288H0.8V175.481H-0.8ZM-0.8 187.096V190H0.8V187.096H-0.8ZM-0.8 190C-0.8 191.121 -0.6901 192.217 -0.480246 193.278L1.08934 192.967C0.899602 192.008 0.8 191.016 0.8 190H-0.8ZM2.03018 199.335C3.25649 201.167 4.83338 202.744 6.6651 203.97L7.55521 202.64C5.89728 201.53 4.46968 200.103 3.35973 198.445L2.03018 199.335ZM12.7222 206.48C13.7829 206.69 14.879 206.8 16 206.8V205.2C14.9838 205.2 13.9917 205.1 13.0327 204.911L12.7222 206.48ZM16 206.8H18.98V205.2H16V206.8ZM24.94 206.8H30.9V205.2H24.94V206.8ZM36.86 206.8H42.82V205.2H36.86V206.8ZM48.78 206.8H54.74V205.2H48.78V206.8ZM60.7 206.8H66.66V205.2H60.7V206.8ZM72.62 206.8H78.58V205.2H72.62V206.8ZM84.54 206.8H90.5V205.2H84.54V206.8ZM96.46 206.8H102.42V205.2H96.46V206.8ZM108.38 206.8H114.34V205.2H108.38V206.8ZM120.3 206.8H126.26V205.2H120.3V206.8ZM132.22 206.8H138.18V205.2H132.22V206.8ZM144.14 206.8H150.1V205.2H144.14V206.8ZM156.06 206.8H162.02V205.2H156.06V206.8ZM167.98 206.8H173.94V205.2H167.98V206.8ZM179.9 206.8H185.86V205.2H179.9V206.8ZM191.82 206.8H197.78V205.2H191.82V206.8ZM203.74 206.8H209.7V205.2H203.74V206.8ZM215.66 206.8H221.62V205.2H215.66V206.8ZM227.58 206.8H233.54V205.2H227.58V206.8ZM239.5 206.8H245.46V205.2H239.5V206.8ZM251.42 206.8H257.38V205.2H251.42V206.8ZM263.34 206.8H269.3V205.2H263.34V206.8ZM275.26 206.8H281.22V205.2H275.26V206.8ZM287.18 206.8H293.14V205.2H287.18V206.8ZM299.1 206.8H305.06V205.2H299.1V206.8ZM311.02 206.8H314V205.2H311.02V206.8ZM314 206.8C315.121 206.8 316.217 206.69 317.278 206.48L316.967 204.911C316.008 205.1 315.016 205.2 314 205.2V206.8ZM323.335 203.97C325.167 202.744 326.743 201.167 327.97 199.335L326.64 198.445C325.53 200.103 324.103 201.53 322.445 202.64L323.335 203.97ZM330.48 193.278C330.69 192.217 330.8 191.121 330.8 190H329.2C329.2 191.016 329.1 192.008 328.911 192.967L330.48 193.278ZM330.8 190V187.096H329.2V190H330.8ZM330.8 181.288V175.481H329.2V181.288H330.8ZM330.8 169.673V163.865H329.2V169.673H330.8ZM330.8 158.058V152.25H329.2V158.058H330.8ZM330.8 146.442V140.635H329.2V146.442H330.8ZM330.8 134.827V129.019H329.2V134.827H330.8ZM330.8 123.212V117.404H329.2V123.212H330.8ZM330.8 111.596V105.788H329.2V111.596H330.8ZM330.8 99.9808V94.1731H329.2V99.9808H330.8ZM330.8 88.3654V82.5577H329.2V88.3654H330.8ZM330.8 76.75V70.9423H329.2V76.75H330.8ZM330.8 65.1346V59.3269H329.2V65.1346H330.8ZM330.8 53.5192V47.7115H329.2V53.5192H330.8ZM330.8 41.9038V39H329.2V41.9038H330.8ZM330 38.2C329.096 38.2 328.2 38.1649 327.313 38.0961L327.189 39.6912C328.117 39.7633 329.054 39.8 330 39.8V38.2ZM322.012 37.2623C320.254 36.8418 318.549 36.2855 316.909 35.6052L316.296 37.0832C318.014 37.7955 319.799 38.378 321.64 38.8184L322.012 37.2623ZM312.129 33.1652C310.599 32.2254 309.148 31.1684 307.789 30.0068L306.749 31.2229C308.171 32.4386 309.69 33.5449 311.292 34.5286L312.129 33.1652ZM303.993 26.2111C302.832 24.8523 301.775 23.4014 300.835 21.871L299.471 22.7082C300.455 24.3102 301.561 25.8287 302.777 27.2508L303.993 26.2111ZM298.395 17.0911C297.715 15.4506 297.158 13.7457 296.738 11.988L295.182 12.3603C295.622 14.2008 296.204 15.9862 296.917 17.704L298.395 17.0911ZM295.904 6.68682C295.835 5.80041 295.8 4.90438 295.8 4H294.2C294.2 4.94578 294.237 5.88315 294.309 6.81075L295.904 6.68682ZM295.8 4C295.8 3.67237 295.805 3.34584 295.814 3.02048L294.214 2.97552C294.205 3.31587 294.2 3.65738 294.2 4H295.8ZM295.924 1.06492C295.952 0.738752 295.984 0.413904 296.021 0.090439L294.431 -0.090439C294.393 0.248129 294.359 0.588116 294.33 0.929453L295.924 1.06492ZM295.226 -0.8H292.266V0.8H295.226V-0.8ZM286.347 -0.8H280.428V0.8H286.347V-0.8ZM274.508 -0.8H268.589V0.8H274.508V-0.8ZM262.67 -0.8H256.75V0.8H262.67V-0.8ZM250.831 -0.8H244.911V0.8H250.831V-0.8ZM238.992 -0.8H233.073V0.8H238.992V-0.8ZM227.153 -0.8H221.234V0.8H227.153V-0.8ZM215.315 -0.8H209.395V0.8H215.315V-0.8ZM203.476 -0.8H197.557V0.8H203.476V-0.8ZM191.637 -0.8H185.718V0.8H191.637V-0.8ZM179.798 -0.8H173.879V0.8H179.798V-0.8ZM167.96 -0.8H162.04V0.8H167.96V-0.8ZM156.121 -0.8H150.202V0.8H156.121V-0.8ZM144.282 -0.8H138.363V0.8H144.282V-0.8ZM132.443 -0.8H126.524V0.8H132.443V-0.8ZM120.605 -0.8H114.685V0.8H120.605V-0.8ZM108.766 -0.8H102.847V0.8H108.766V-0.8ZM96.9273 -0.8H91.0079V0.8H96.9273V-0.8ZM85.0885 -0.8H79.1691V0.8H85.0885V-0.8ZM73.2498 -0.8H67.3304V0.8H73.2498V-0.8ZM61.411 -0.8H55.4916V0.8H61.411V-0.8ZM49.5723 -0.8H43.6529V0.8H49.5723V-0.8ZM37.7335 -0.8H34.7739V0.8H37.7335V-0.8Z" fill="#0A0A0C" fill-opacity="0.2" mask="url(#path-1-inside-1_174_125)"/>
</g>
<defs>
<filter id="filter0_d_174_125" x="-12" y="-10" width="354" height="230" filterUnits="userSpaceOnUse" color-interpolation-filters="sRGB">
<feFlood flood-opacity="0" result="BackgroundImageFix"/>
<feColorMatrix in="SourceAlpha" type="matrix" values="0 0 0 0 0 0 0 0 0 0 0 0 0 0 0 0 0 0 127 0" result="hardAlpha"/>
<feOffset dy="2"/>
<feGaussianBlur stdDeviation="6"/>
<feColorMatrix type="matrix" values="0 0 0 0 0.5 0 0 0 0 0.5 0 0 0 0 0.5 0 0 0 0.16 0"/>
<feBlend mode="normal" in2="BackgroundImageFix" result="effect1_dropShadow_174_125"/>
<feBlend mode="normal" in="SourceGraphic" in2="effect1_dropShadow_174_125" result="shape"/>
</filter>
</defs>
</svg>
