<svg width="15" height="15" viewBox="0 0 15 15" fill="none" xmlns="http://www.w3.org/2000/svg">
<mask id="mask0_174_421" style="mask-type:alpha" maskUnits="userSpaceOnUse" x="-3" y="-3" width="21" height="21">
<rect x="-2.5" y="-2.5" width="20" height="20" fill="#D9D9D9"/>
</mask>
<g mask="url(#mask0_174_421)">
<path d="M7.521 11.875C7.715 11.875 7.88167 11.809 8.021 11.677C8.15967 11.545 8.229 11.382 8.229 11.188C8.229 10.9793 8.15967 10.809 8.021 10.677C7.88167 10.545 7.715 10.479 7.521 10.479C7.32633 10.479 7.163 10.5487 7.031 10.688C6.899 10.8267 6.833 10.9933 6.833 11.188C6.833 11.382 6.899 11.545 7.031 11.677C7.163 11.809 7.32633 11.875 7.521 11.875ZM7.521 4C7.993 4 8.375 4.118 8.667 4.354C8.95833 4.59 9.104 4.90933 9.104 5.312C9.104 5.54867 9.03467 5.792 8.896 6.042C8.75733 6.292 8.556 6.535 8.292 6.771C7.88933 7.14567 7.594 7.47533 7.406 7.76C7.21867 8.04533 7.118 8.34067 7.104 8.646C7.09 8.75667 7.118 8.85733 7.188 8.948C7.25733 9.038 7.35433 9.083 7.479 9.083C7.61833 9.083 7.72933 9.04833 7.812 8.979C7.896 8.90967 7.94467 8.80567 7.958 8.667C8 8.44433 8.087 8.23233 8.219 8.031C8.351 7.82967 8.56267 7.59 8.854 7.312C9.27067 6.896 9.55533 6.53867 9.708 6.24C9.86133 5.94133 9.938 5.61833 9.938 5.271C9.938 4.64567 9.72267 4.13533 9.292 3.74C8.86133 3.344 8.29867 3.146 7.604 3.146C7.146 3.146 6.72233 3.257 6.333 3.479C5.94433 3.701 5.59733 4.00667 5.292 4.396C5.22267 4.46533 5.20533 4.54867 5.24 4.646C5.27467 4.74333 5.33367 4.83367 5.417 4.917C5.51367 5.00033 5.628 5.02467 5.76 4.99C5.892 4.95533 6.00667 4.87533 6.104 4.75C6.29867 4.542 6.49667 4.365 6.698 4.219C6.89933 4.073 7.17367 4 7.521 4ZM7.5 15C6.45867 15 5.483 14.8057 4.573 14.417C3.663 14.0277 2.868 13.4963 2.188 12.823C1.50733 12.149 0.972333 11.354 0.583 10.438C0.194333 9.52067 0 8.54133 0 7.5C0 6.45867 0.194333 5.47933 0.583 4.562C0.972333 3.646 1.50733 2.851 2.188 2.177C2.868 1.50367 3.663 0.972333 4.573 0.583C5.483 0.194333 6.45867 0 7.5 0C8.55533 0 9.538 0.194333 10.448 0.583C11.3573 0.972333 12.149 1.50367 12.823 2.177C13.4963 2.851 14.0277 3.646 14.417 4.562C14.8057 5.47933 15 6.45867 15 7.5C15 8.54133 14.8057 9.52067 14.417 10.438C14.0277 11.354 13.4963 12.149 12.823 12.823C12.149 13.4963 11.3573 14.0277 10.448 14.417C9.538 14.8057 8.55533 15 7.5 15ZM7.5 14.083C9.33333 14.083 10.889 13.4407 12.167 12.156C13.4443 10.8713 14.083 9.31933 14.083 7.5C14.083 5.68067 13.4443 4.12867 12.167 2.844C10.889 1.55933 9.33333 0.917 7.5 0.917C5.66667 0.917 4.111 1.55933 2.833 2.844C1.55567 4.12867 0.917 5.68067 0.917 7.5C0.917 9.31933 1.55567 10.8713 2.833 12.156C4.111 13.4407 5.66667 14.083 7.5 14.083Z" fill="#1C1B1F"/>
</g>
</svg>
