<svg width="18" height="20" viewBox="0 0 18 20" fill="none" xmlns="http://www.w3.org/2000/svg">
<mask id="mask0_74_2182" style="mask-type:alpha" maskUnits="userSpaceOnUse" x="-4" y="-3" width="26" height="26">
<rect x="-3.33333" y="-2.30769" width="24.6154" height="24.6154" fill="#D9D9D9"/>
</mask>
<g mask="url(#mask0_74_2182)">
<path d="M15.1282 20C14.3419 20 13.6752 19.7265 13.1282 19.1795C12.5812 18.6325 12.3077 17.9658 12.3077 17.1795C12.3077 17.0598 12.3162 16.9272 12.3333 16.7815C12.3504 16.6366 12.3846 16.5128 12.4359 16.4103L4.84615 11.9487C4.57265 12.2222 4.26496 12.4359 3.92308 12.5897C3.5812 12.7436 3.21368 12.8205 2.82051 12.8205C2.03419 12.8205 1.36752 12.547 0.820513 12C0.273504 11.453 0 10.7863 0 10C0 9.21368 0.273504 8.54701 0.820513 8C1.36752 7.45299 2.03419 7.17949 2.82051 7.17949C3.21368 7.17949 3.5812 7.25641 3.92308 7.41026C4.26496 7.5641 4.57265 7.77778 4.84615 8.05128L12.4359 3.58974C12.3846 3.48718 12.3504 3.36308 12.3333 3.21744C12.3162 3.07248 12.3077 2.94017 12.3077 2.82051C12.3077 2.03419 12.5812 1.36752 13.1282 0.820513C13.6752 0.273504 14.3419 0 15.1282 0C15.9145 0 16.5812 0.273504 17.1282 0.820513C17.6752 1.36752 17.9487 2.03419 17.9487 2.82051C17.9487 3.60684 17.6752 4.2735 17.1282 4.82051C16.5812 5.36752 15.9145 5.64103 15.1282 5.64103C14.735 5.64103 14.3675 5.5641 14.0256 5.41026C13.6838 5.25641 13.3761 5.04274 13.1026 4.76923L5.51282 9.23077C5.5641 9.33333 5.59829 9.45299 5.61539 9.58974C5.63248 9.7265 5.64103 9.86325 5.64103 10C5.64103 10.1197 5.63248 10.252 5.61539 10.3969C5.59829 10.5426 5.5641 10.6667 5.51282 10.7692L13.1026 15.2308C13.3761 14.9573 13.6838 14.7436 14.0256 14.5897C14.3675 14.4359 14.735 14.359 15.1282 14.359C15.9145 14.359 16.5812 14.6325 17.1282 15.1795C17.6752 15.7265 17.9487 16.3932 17.9487 17.1795C17.9487 17.9658 17.6752 18.6325 17.1282 19.1795C16.5812 19.7265 15.9145 20 15.1282 20ZM15.1282 4.10256C15.4872 4.10256 15.7908 3.97846 16.039 3.73026C16.2865 3.48274 16.4103 3.17949 16.4103 2.82051C16.4103 2.46154 16.2865 2.15795 16.039 1.90974C15.7908 1.66222 15.4872 1.53846 15.1282 1.53846C14.7692 1.53846 14.466 1.66222 14.2185 1.90974C13.9703 2.15795 13.8462 2.46154 13.8462 2.82051C13.8462 3.17949 13.9703 3.48274 14.2185 3.73026C14.466 3.97846 14.7692 4.10256 15.1282 4.10256ZM2.82051 11.2821C3.17949 11.2821 3.48308 11.1579 3.73128 10.9097C3.9788 10.6622 4.10256 10.359 4.10256 10C4.10256 9.64103 3.9788 9.33778 3.73128 9.09026C3.48308 8.84205 3.17949 8.71795 2.82051 8.71795C2.46154 8.71795 2.15829 8.84205 1.91077 9.09026C1.66256 9.33778 1.53846 9.64103 1.53846 10C1.53846 10.359 1.66256 10.6622 1.91077 10.9097C2.15829 11.1579 2.46154 11.2821 2.82051 11.2821ZM15.1282 18.4615C15.4872 18.4615 15.7908 18.3374 16.039 18.0892C16.2865 17.8417 16.4103 17.5385 16.4103 17.1795C16.4103 16.8205 16.2865 16.5173 16.039 16.2697C15.7908 16.0215 15.4872 15.8974 15.1282 15.8974C14.7692 15.8974 14.466 16.0215 14.2185 16.2697C13.9703 16.5173 13.8462 16.8205 13.8462 17.1795C13.8462 17.5385 13.9703 17.8417 14.2185 18.0892C14.466 18.3374 14.7692 18.4615 15.1282 18.4615Z" fill="#0A0A0C"/>
</g>
</svg>
