<svg width="15" height="15" viewBox="0 0 15 15" fill="none" xmlns="http://www.w3.org/2000/svg">
<mask id="mask0_74_1640" style="mask-type:alpha" maskUnits="userSpaceOnUse" x="-5" y="-5" width="25" height="25">
<rect x="-4.5" y="-4.70001" width="24" height="24" fill="#D9D9D9"/>
</mask>
<g mask="url(#mask0_74_1640)">
<path d="M7.5 7C6.53333 7 5.70833 6.654 5.025 5.962C4.34167 5.27067 4 4.45 4 3.5C4 2.53333 4.34167 1.70833 5.025 1.025C5.70833 0.341667 6.53333 0 7.5 0C8.46667 0 9.29167 0.341667 9.975 1.025C10.6583 1.70833 11 2.53333 11 3.5C11 4.45 10.6583 5.27067 9.975 5.962C9.29167 6.654 8.46667 7 7.5 7ZM13.475 14.6H1.525C1.09167 14.6 0.729334 14.4543 0.438 14.163C0.146 13.871 0 13.5167 0 13.1V12.375C0 11.8917 0.133333 11.4417 0.4 11.025C0.666667 10.6083 1.025 10.2833 1.475 10.05C2.45833 9.56667 3.45433 9.204 4.463 8.962C5.471 8.72067 6.48333 8.6 7.5 8.6C8.51667 8.6 9.52933 8.72067 10.538 8.962C11.546 9.204 12.5417 9.56667 13.525 10.05C13.975 10.2833 14.3333 10.6083 14.6 11.025C14.8667 11.4417 15 11.8917 15 12.375V13.1C15 13.5167 14.854 13.871 14.562 14.163C14.2707 14.4543 13.9083 14.6 13.475 14.6ZM1.5 13.1H13.5V12.375C13.5 12.175 13.4417 11.9917 13.325 11.825C13.2083 11.6583 13.05 11.5167 12.85 11.4C11.9833 10.9833 11.1043 10.6623 10.213 10.437C9.321 10.2123 8.41667 10.1 7.5 10.1C6.58333 10.1 5.679 10.2123 4.787 10.437C3.89567 10.6623 3.01667 10.9833 2.15 11.4C1.95 11.5167 1.79167 11.6583 1.675 11.825C1.55833 11.9917 1.5 12.175 1.5 12.375V13.1ZM7.5 5.5C8.05 5.5 8.521 5.304 8.913 4.912C9.30433 4.52067 9.5 4.05 9.5 3.5C9.5 2.95 9.30433 2.479 8.913 2.087C8.521 1.69567 8.05 1.5 7.5 1.5C6.95 1.5 6.47933 1.69567 6.088 2.087C5.696 2.479 5.5 2.95 5.5 3.5C5.5 4.05 5.696 4.52067 6.088 4.912C6.47933 5.304 6.95 5.5 7.5 5.5Z" fill="#0A0A0C" fill-opacity="0.6"/>
</g>
</svg>
