<svg width="16" height="17" viewBox="0 0 16 17" fill="none" xmlns="http://www.w3.org/2000/svg">
<mask id="mask0_74_1704" style="mask-type:alpha" maskUnits="userSpaceOnUse" x="-3" y="-2" width="21" height="21">
<rect x="-2.60892" y="-1.66864" width="20.3662" height="20.3662" fill="#D9D9D9"/>
</mask>
<g mask="url(#mask0_74_1704)">
<path d="M4.24329 10.9329L0.763731 14.4125C0.679551 14.4973 0.584169 14.5432 0.477586 14.5499C0.371682 14.5574 0.255256 14.4973 0.128307 14.3697C0.0427688 14.2848 0 14.1789 0 14.052C0 13.9244 0.0495575 13.811 0.148673 13.7119L3.58546 10.2751C4.00976 9.83654 4.28572 9.34504 4.41334 8.80058C4.54029 8.25613 4.60377 7.37597 4.60377 6.16011C4.60377 5.42421 4.77009 4.69205 5.10274 3.96362C5.43471 3.23519 5.90483 2.56684 6.5131 1.95857C7.63052 0.84183 8.85385 0.201994 10.1831 0.0390643C11.513 -0.123186 12.6094 0.219984 13.4722 1.06857C14.3344 1.93074 14.6877 3.01965 14.5323 4.3353C14.3768 5.65028 13.7404 6.86648 12.6229 7.9839C12.0011 8.60643 11.3222 9.08367 10.5863 9.41564C9.85111 9.74829 9.10876 9.91461 8.35929 9.91461C7.18552 9.91461 6.31215 9.97809 5.73918 10.105C5.16621 10.2327 4.66758 10.5086 4.24329 10.9329ZM6.25852 8.21709C6.92381 8.89596 7.81483 9.14375 8.93158 8.96046C10.049 8.77648 11.0534 8.23882 11.9447 7.34746C12.8354 6.45678 13.3656 5.46325 13.5353 4.36687C13.7051 3.27049 13.4647 2.39 12.8144 1.72538C12.164 1.08928 11.2869 0.856086 10.1831 1.0258C9.08059 1.19552 8.08366 1.71893 7.19231 2.59603C6.30095 3.48671 5.75276 4.48024 5.54774 5.57662C5.34272 6.67232 5.57965 7.55248 6.25852 8.21709ZM12.7288 17C12.0079 17 11.3894 16.742 10.8735 16.2261C10.3569 15.7095 10.0986 15.0907 10.0986 14.3697C10.0986 13.6345 10.3569 13.0123 10.8735 12.5031C11.3894 11.994 12.0079 11.7394 12.7288 11.7394C13.4647 11.7394 14.0873 11.9974 14.5964 12.5133C15.1056 13.03 15.3602 13.6487 15.3602 14.3697C15.3602 15.1049 15.1018 15.7271 14.5852 16.2363C14.0693 16.7454 13.4505 17 12.7288 17ZM12.7288 16.0672C13.1959 16.0672 13.5958 15.9009 13.9284 15.5683C14.2604 15.2363 14.4264 14.8368 14.4264 14.3697C14.4264 13.9026 14.2604 13.5031 13.9284 13.1712C13.5958 12.8385 13.1959 12.6722 12.7288 12.6722C12.2625 12.6722 11.8629 12.8385 11.5303 13.1712C11.1983 13.5031 11.0323 13.9026 11.0323 14.3697C11.0323 14.8368 11.1983 15.2363 11.5303 15.5683C11.8629 15.9009 12.2625 16.0672 12.7288 16.0672Z" fill="#0A0A0C"/>
</g>
</svg>
