<svg width="17" height="17" viewBox="0 0 17 17" fill="none" xmlns="http://www.w3.org/2000/svg">
<mask id="mask0_74_1588" style="mask-type:alpha" maskUnits="userSpaceOnUse" x="-4" y="-4" width="25" height="25">
<rect x="-3.42002" y="-3.39497" width="24.142" height="24.142" fill="#D9D9D9"/>
</mask>
<g mask="url(#mask0_74_1588)">
<path d="M15.7175 16.7737L9.90829 10.9896C9.40533 11.4088 8.82693 11.7357 8.17308 11.9704C7.51923 12.2051 6.84862 12.3225 6.16124 12.3225C4.43442 12.3225 2.97584 11.7273 1.7855 10.537C0.595168 9.34665 0 7.88807 0 6.16124C0 4.45119 0.595168 2.99663 1.7855 1.79757C2.97584 0.599192 4.43442 0 6.16124 0C7.8713 0 9.3215 0.595168 10.5118 1.7855C11.7022 2.97584 12.2973 4.43442 12.2973 6.16124C12.2973 6.88215 12.18 7.56953 11.9453 8.22338C11.7106 8.87722 11.392 9.44724 10.9896 9.93344L16.7988 15.7426C16.9329 15.8767 17 16.0444 17 16.2456C17 16.4468 16.9246 16.6228 16.7737 16.7737C16.6228 16.9246 16.4427 17 16.2335 17C16.0236 17 15.8516 16.9246 15.7175 16.7737ZM6.16124 10.8136C7.45217 10.8136 8.54628 10.3609 9.44355 9.45562C10.3402 8.5503 10.7885 7.45217 10.7885 6.16124C10.7885 4.87032 10.3402 3.77219 9.44355 2.86686C8.54628 1.96154 7.45217 1.50888 6.16124 1.50888C4.85355 1.50888 3.7514 1.96154 2.85479 2.86686C1.95752 3.77219 1.50888 4.87032 1.50888 6.16124C1.50888 7.45217 1.95752 8.5503 2.85479 9.45562C3.7514 10.3609 4.85355 10.8136 6.16124 10.8136Z" fill="#0A0A0C"/>
</g>
</svg>
