<svg width="16" height="15" viewBox="0 0 16 15" fill="none" xmlns="http://www.w3.org/2000/svg">
<mask id="mask0_74_1692" style="mask-type:alpha" maskUnits="userSpaceOnUse" x="-3" y="-3" width="21" height="21">
<rect x="-2.08301" y="-2.5" width="20" height="20" fill="#D9D9D9"/>
</mask>
<g mask="url(#mask0_74_1692)">
<path d="M13.292 3.667C13.4727 3.667 13.636 3.594 13.782 3.448C13.9273 3.302 14 3.13867 14 2.958C14 2.778 13.9273 2.615 13.782 2.469C13.636 2.323 13.4727 2.25 13.292 2.25C13.1113 2.25 12.948 2.323 12.802 2.469C12.6567 2.615 12.584 2.778 12.584 2.958C12.584 3.13867 12.6567 3.302 12.802 3.448C12.948 3.594 13.1113 3.667 13.292 3.667ZM10.021 3.667C10.2017 3.667 10.365 3.594 10.511 3.448C10.6563 3.302 10.729 3.13867 10.729 2.958C10.729 2.778 10.6563 2.615 10.511 2.469C10.365 2.323 10.2017 2.25 10.021 2.25C9.84033 2.25 9.67733 2.323 9.532 2.469C9.386 2.615 9.313 2.778 9.313 2.958C9.313 3.13867 9.386 3.302 9.532 3.448C9.67733 3.594 9.84033 3.667 10.021 3.667ZM10.625 6.438H12.667C12.917 6.438 13.101 6.344 13.219 6.156C13.337 5.96867 13.3127 5.79867 13.146 5.646C12.938 5.50733 12.709 5.39267 12.459 5.302C12.209 5.212 11.938 5.167 11.646 5.167C11.3547 5.167 11.077 5.212 10.813 5.302C10.549 5.39267 10.3197 5.50733 10.125 5.646C9.97233 5.79867 9.955 5.96867 10.073 6.156C10.191 6.344 10.375 6.438 10.625 6.438ZM4.188 15C3.03533 15 2.049 14.5937 1.229 13.781C0.409667 12.9683 0 11.9787 0 10.812V7.188C0 6.78467 0.139 6.44433 0.417 6.167C0.695 5.889 1.03533 5.75 1.438 5.75H6.938C7.34067 5.75 7.681 5.889 7.959 6.167C8.23633 6.44433 8.375 6.78467 8.375 7.188V10.812C8.375 11.9653 7.969 12.9517 7.157 13.771C6.34433 14.5903 5.35467 15 4.188 15ZM4.188 14.083C5.09067 14.083 5.86133 13.767 6.5 13.135C7.13933 12.5037 7.459 11.7293 7.459 10.812V7.188C7.459 7.03467 7.41033 6.90933 7.313 6.812C7.21567 6.71533 7.09067 6.667 6.938 6.667H1.438C1.28533 6.667 1.16033 6.71533 1.063 6.812C0.965667 6.90933 0.917 7.03467 0.917 7.188V10.812C0.917 11.7293 1.23633 12.5037 1.875 13.135C2.51433 13.767 3.28533 14.083 4.188 14.083ZM11.646 9.229C11.2853 9.229 10.9243 9.18033 10.563 9.083C10.2017 8.98633 9.889 8.85467 9.625 8.688L9.667 7.646C9.945 7.854 10.2507 8.017 10.584 8.135C10.9173 8.253 11.2713 8.312 11.646 8.312C12.5487 8.312 13.3197 7.99267 13.959 7.354C14.5977 6.71533 14.917 5.93767 14.917 5.021V1.438C14.917 1.28467 14.8683 1.15967 14.771 1.063C14.6737 0.965667 14.5487 0.917 14.396 0.917H8.896C8.74333 0.917 8.61833 0.965667 8.521 1.063C8.42367 1.15967 8.375 1.28467 8.375 1.438V4.458H7.459V1.438C7.459 1.03467 7.59767 0.694333 7.875 0.417C8.153 0.139 8.49333 0 8.896 0H14.396C14.7987 0 15.139 0.139 15.417 0.417C15.695 0.694333 15.834 1.03467 15.834 1.438V5.021C15.834 6.18767 15.4277 7.18067 14.615 8C13.8023 8.81933 12.8127 9.229 11.646 9.229ZM2.563 9.438C2.74367 9.438 2.90667 9.365 3.052 9.219C3.198 9.073 3.271 8.90967 3.271 8.729C3.271 8.54833 3.198 8.38533 3.052 8.24C2.90667 8.094 2.74367 8.021 2.563 8.021C2.38233 8.021 2.219 8.094 2.073 8.24C1.92767 8.38533 1.855 8.54833 1.855 8.729C1.855 8.90967 1.92767 9.073 2.073 9.219C2.219 9.365 2.38233 9.438 2.563 9.438ZM5.813 9.438C5.99367 9.438 6.15667 9.365 6.302 9.219C6.448 9.073 6.521 8.90967 6.521 8.729C6.521 8.54833 6.448 8.38533 6.302 8.24C6.15667 8.094 5.99367 8.021 5.813 8.021C5.63233 8.021 5.469 8.094 5.323 8.24C5.17767 8.38533 5.105 8.54833 5.105 8.729C5.105 8.90967 5.17767 9.073 5.323 9.219C5.469 9.365 5.63233 9.438 5.813 9.438ZM4.167 12.208C4.47233 12.208 4.76067 12.163 5.032 12.073C5.30267 11.983 5.535 11.8547 5.729 11.688C5.89567 11.5213 5.90633 11.3547 5.761 11.188C5.615 11.0213 5.417 10.938 5.167 10.938H3.209C2.959 10.938 2.761 11.0213 2.615 11.188C2.469 11.3547 2.47933 11.5213 2.646 11.688C2.84067 11.8547 3.07 11.983 3.334 12.073C3.59733 12.163 3.875 12.208 4.167 12.208Z" fill="#0A0A0C"/>
</g>
</svg>
