<svg width="13" height="13" viewBox="0 0 13 13" fill="none" xmlns="http://www.w3.org/2000/svg">
<mask id="mask0_74_1719" style="mask-type:alpha" maskUnits="userSpaceOnUse" x="-6" y="-6" width="25" height="25">
<rect x="-5.78328" y="-5.78337" width="24.5666" height="24.5666" fill="#D9D9D9"/>
</mask>
<g mask="url(#mask0_74_1719)">
<path d="M6.4999 7.57469L1.3051 12.7695C1.16862 12.906 0.993922 12.9783 0.781012 12.9865C0.567419 12.9954 0.383852 12.923 0.230311 12.7695C0.0767704 12.6159 0 12.4368 0 12.2321C0 12.0274 0.0767704 11.8482 0.230311 11.6947L5.42511 6.4999L0.230311 1.3051C0.0938305 1.16862 0.0214957 0.993581 0.0133069 0.779988C0.00443564 0.567078 0.0767704 0.383852 0.230311 0.230311C0.383852 0.0767704 0.562983 0 0.767705 0C0.972426 0 1.15156 0.0767704 1.3051 0.230311L6.4999 5.42511L11.6947 0.230311C11.8312 0.0938305 12.0062 0.0211546 12.2198 0.0122834C12.4327 0.00409451 12.6159 0.0767704 12.7695 0.230311C12.923 0.383852 12.9998 0.562983 12.9998 0.767705C12.9998 0.972426 12.923 1.15156 12.7695 1.3051L7.57469 6.4999L12.7695 11.6947C12.906 11.8312 12.9783 12.0059 12.9865 12.2188C12.9954 12.4324 12.923 12.6159 12.7695 12.7695C12.6159 12.923 12.4368 12.9998 12.2321 12.9998C12.0274 12.9998 11.8482 12.923 11.6947 12.7695L6.4999 7.57469Z" fill="#0A0A0C"/>
</g>
</svg>
