<svg width="18" height="16" viewBox="0 0 18 16" fill="none" xmlns="http://www.w3.org/2000/svg">
<mask id="mask0_74_1686" style="mask-type:alpha" maskUnits="userSpaceOnUse" x="-2" y="-3" width="22" height="22">
<rect x="-1.28571" y="-2.50765" width="20.5714" height="20.5714" fill="#D9D9D9"/>
</mask>
<g mask="url(#mask0_74_1686)">
<path d="M1.58606 15.9213C1.44274 15.9213 1.332 15.8746 1.25383 15.7814C1.17497 15.6888 1.1712 15.564 1.24251 15.407C1.45714 14.5642 1.61794 13.6533 1.72491 12.6741C1.83189 11.6955 1.90697 10.6207 1.95017 9.44949C1.36457 9.26366 0.893143 8.91017 0.535886 8.38903C0.178629 7.8672 0 7.24937 0 6.53554V6.2784C0 6.06377 0.0713142 5.85291 0.213943 5.64583C0.357257 5.43874 0.535886 5.29234 0.749829 5.20663C2.63554 4.49211 4.26789 3.59931 5.64686 2.52823C7.02514 1.45646 7.98583 0.670629 8.52891 0.170743C8.61463 0.113829 8.69314 0.0709716 8.76446 0.0421716C8.83577 0.0140573 8.91429 0 9 0C9.08571 0 9.16423 0.0140573 9.23554 0.0421716C9.30686 0.0709716 9.38537 0.113829 9.47109 0.170743C10.0142 0.670629 10.9749 1.45646 12.3531 2.52823C13.7321 3.59931 15.3645 4.49211 17.2502 5.20663C17.4641 5.29234 17.6427 5.43874 17.7861 5.64583C17.9287 5.85291 18 6.06377 18 6.2784V6.53554C18 7.26377 17.8214 7.88503 17.4641 8.39931C17.1069 8.9136 16.6354 9.26366 16.0498 9.44949C16.093 10.6063 16.1681 11.6743 16.2751 12.6535C16.3821 13.632 16.5497 14.5498 16.7781 15.407C16.8501 15.564 16.8466 15.6888 16.7678 15.7814C16.6896 15.8746 16.5789 15.9213 16.4355 15.9213H1.58606ZM2.18571 5.59234H15.8359C14.7072 5.10686 13.5535 4.48183 12.3747 3.71726C11.196 2.95337 10.0711 2.05714 9 1.02857C7.90011 2.07086 6.768 2.97429 5.60366 3.73886C4.43931 4.50343 3.3 5.12126 2.18571 5.59234ZM11.1425 8.57109C11.6568 8.57109 12.0603 8.36743 12.3531 7.96011C12.6466 7.5528 12.7934 7.07794 12.7934 6.53554H9.47109C9.47109 7.07794 9.62469 7.5528 9.93189 7.96011C10.2391 8.36743 10.6426 8.57109 11.1425 8.57109ZM6.87909 8.57109C7.39337 8.57109 7.79691 8.36743 8.08971 7.96011C8.38251 7.5528 8.52891 7.07794 8.52891 6.53554H5.20663C5.20663 7.07794 5.36023 7.5528 5.66743 7.96011C5.97463 8.36743 6.37851 8.57109 6.87909 8.57109ZM2.61463 8.57109C3.12891 8.57109 3.53246 8.36743 3.82526 7.96011C4.11806 7.5528 4.26446 7.07794 4.26446 6.53554H0.9432C0.9432 7.07794 1.0968 7.5528 1.404 7.96011C1.71051 8.36743 2.11406 8.57109 2.61463 8.57109ZM2.27109 14.9781H5.4C5.52891 14.0352 5.62903 13.0958 5.70034 12.1598C5.77166 11.2245 5.82857 10.2782 5.87109 9.32091C5.61394 9.192 5.39246 9.04183 5.20663 8.8704C5.02149 8.69897 4.87166 8.49189 4.75714 8.24914C4.57131 8.6208 4.3176 8.9136 3.996 9.12754C3.67509 9.34217 3.3072 9.46389 2.89234 9.49269C2.86423 10.6207 2.80354 11.6242 2.71029 12.5033C2.61771 13.3817 2.47131 14.2066 2.27109 14.9781ZM6.3216 14.9781H11.6784C11.5646 14.2066 11.4717 13.3923 11.3997 12.5352C11.3283 11.6781 11.2642 10.6711 11.2073 9.51429C10.7643 9.5424 10.343 9.43851 9.9432 9.20263C9.54274 8.96743 9.22834 8.62114 9 8.16377C8.77166 8.62114 8.46103 8.96743 8.06811 9.20263C7.6752 9.43851 7.25726 9.5424 6.81429 9.51429C6.77109 10.5285 6.7104 11.4819 6.63223 12.3747C6.55337 13.2675 6.44983 14.1353 6.3216 14.9781ZM12.6216 14.9781H15.7289C15.5287 14.1634 15.3823 13.3097 15.2897 12.4169C15.1965 11.5241 15.1358 10.5494 15.1077 9.49269C14.736 9.47829 14.375 9.36034 14.0246 9.13886C13.6749 8.91737 13.4143 8.60674 13.2429 8.20697C13.1283 8.47783 12.9785 8.70274 12.7934 8.88171C12.6075 9.06 12.3929 9.2064 12.1495 9.32091C12.1783 10.307 12.2283 11.2677 12.2997 12.203C12.371 13.139 12.4783 14.064 12.6216 14.9781ZM15.407 8.57109C15.9213 8.57109 16.3248 8.36743 16.6176 7.96011C16.9104 7.5528 17.0568 7.07794 17.0568 6.53554H13.7355C13.7355 7.07794 13.8891 7.5528 14.1963 7.96011C14.5035 8.36743 14.9071 8.57109 15.407 8.57109Z" fill="#0A0A0C"/>
</g>
</svg>
