<svg width="14" height="15" viewBox="0 0 14 15" fill="none" xmlns="http://www.w3.org/2000/svg">
<mask id="mask0_174_415" style="mask-type:alpha" maskUnits="userSpaceOnUse" x="-4" y="-3" width="21" height="21">
<rect x="-3.33301" y="-2.5" width="20" height="20" fill="#D9D9D9"/>
</mask>
<g mask="url(#mask0_174_415)">
<path d="M11.896 15H1.438C1.02133 15 0.677667 14.861 0.407 14.583C0.135667 14.3057 0 13.9587 0 13.542V4.792C0 4.37533 0.135667 4.03133 0.407 3.76C0.677667 3.48933 1.02133 3.354 1.438 3.354H3.292C3.292 2.41 3.61833 1.615 4.271 0.969C4.92367 0.323 5.72233 0 6.667 0C7.61167 0 8.41367 0.323 9.073 0.969C9.733 1.615 10.063 2.41 10.063 3.354H11.896C12.3127 3.354 12.6563 3.48933 12.927 3.76C13.1983 4.03133 13.334 4.37533 13.334 4.792V13.542C13.334 13.9587 13.1983 14.3057 12.927 14.583C12.6563 14.861 12.3127 15 11.896 15ZM4.209 3.354H9.146C9.146 2.68733 8.903 2.11433 8.417 1.635C7.931 1.15633 7.35467 0.917 6.688 0.917C6.00733 0.917 5.424 1.15633 4.938 1.635C4.452 2.11433 4.209 2.68733 4.209 3.354ZM11.896 14.083C12.0487 14.083 12.1737 14.0347 12.271 13.938C12.3683 13.8407 12.417 13.7153 12.417 13.562V4.792C12.417 4.63867 12.3683 4.51367 12.271 4.417C12.1737 4.31967 12.0487 4.271 11.896 4.271H1.438C1.28533 4.271 1.16033 4.31967 1.063 4.417C0.965667 4.51367 0.917 4.63867 0.917 4.792V13.562C0.917 13.7153 0.965667 13.8407 1.063 13.938C1.16033 14.0347 1.28533 14.083 1.438 14.083H11.896ZM6.667 8.458C7.58367 8.458 8.36833 8.13867 9.021 7.5C9.67367 6.86133 10.007 6.167 10.021 5.417C10.021 5.347 9.97233 5.274 9.875 5.198C9.77767 5.12133 9.67367 5.083 9.563 5.083C9.46567 5.083 9.37867 5.12133 9.302 5.198C9.226 5.274 9.174 5.354 9.146 5.438C9.04867 6.02067 8.76733 6.517 8.302 6.927C7.83733 7.337 7.29233 7.542 6.667 7.542C6.05567 7.542 5.51733 7.337 5.052 6.927C4.58733 6.517 4.30633 6.02067 4.209 5.438C4.195 5.396 4.14267 5.32633 4.052 5.229C3.962 5.13167 3.86133 5.083 3.75 5.083C3.62533 5.083 3.52467 5.11433 3.448 5.177C3.372 5.23967 3.334 5.31967 3.334 5.417C3.334 6.167 3.66033 6.86133 4.313 7.5C4.96567 8.13867 5.75033 8.458 6.667 8.458Z" fill="#1C1B1F"/>
</g>
</svg>
