<svg width="13" height="13" viewBox="0 0 13 13" fill="none" xmlns="http://www.w3.org/2000/svg">
<mask id="mask0_74_2106" style="mask-type:alpha" maskUnits="userSpaceOnUse" x="-3" y="-3" width="18" height="18">
<rect x="-2.40405" y="-2.52841" width="17.0954" height="17.0954" fill="#D9D9D9"/>
</mask>
<g mask="url(#mask0_74_2106)">
<path d="M3.86442 5.14658C3.59147 5.14658 3.39259 5.02777 3.26779 4.79014C3.14357 4.55308 3.1467 4.32173 3.27719 4.09607L5.57397 0.33849C5.70446 0.11283 5.90049 0 6.16205 0C6.42304 0 6.61878 0.11283 6.74928 0.33849L9.0469 4.09607C9.1774 4.32173 9.18025 4.55308 9.05545 4.79014C8.93122 5.02777 8.73235 5.14658 8.45882 5.14658H3.86442ZM10.0436 12.8754C9.2247 12.8754 8.52749 12.5874 7.95194 12.0113C7.37582 11.4357 7.08777 10.7382 7.08777 9.91877C7.08777 9.0999 7.37582 8.40269 7.95194 7.82714C8.52749 7.25103 9.2247 6.96297 10.0436 6.96297C10.863 6.96297 11.5605 7.25103 12.136 7.82714C12.7122 8.40269 13.0002 9.0999 13.0002 9.91877C13.0002 10.7382 12.7122 11.4357 12.136 12.0113C11.5605 12.5874 10.863 12.8754 10.0436 12.8754ZM0.676979 12.519C0.499187 12.519 0.341909 12.4509 0.205145 12.3147C0.0683817 12.1779 0 12.0204 0 11.842V7.97844C0 7.80008 0.0683817 7.6428 0.205145 7.5066C0.341909 7.36984 0.499187 7.30146 0.676979 7.30146H4.5414C4.71976 7.30146 4.87704 7.36984 5.01324 7.5066C5.15 7.6428 5.21838 7.80008 5.21838 7.97844V11.842C5.21838 12.0204 5.15 12.1779 5.01324 12.3147C4.87704 12.4509 4.71976 12.519 4.5414 12.519H0.676979ZM10.0436 11.736C10.5661 11.736 10.9995 11.5636 11.3437 11.2189C11.6884 10.8747 11.8608 10.4413 11.8608 9.91877C11.8608 9.39679 11.6884 8.9637 11.3437 8.61952C10.9995 8.27533 10.5661 8.10323 10.0436 8.10323C9.52159 8.10323 9.0885 8.27533 8.74431 8.61952C8.40013 8.9637 8.22803 9.39679 8.22803 9.91877C8.22803 10.4413 8.40013 10.8747 8.74431 11.2189C9.0885 11.5636 9.52159 11.736 10.0436 11.736ZM1.14027 11.3796H4.07812V8.44087H1.14027V11.3796ZM4.68415 4.00717H7.63995L6.16205 1.6027L4.68415 4.00717Z" fill="#0A0A0C"/>
</g>
</svg>
