<svg width="15" height="15" viewBox="0 0 15 15" fill="none" xmlns="http://www.w3.org/2000/svg">
<mask id="mask0_74_1844" style="mask-type:alpha" maskUnits="userSpaceOnUse" x="-5" y="-5" width="25" height="25">
<rect x="-4.74121" y="-4.5" width="24" height="24" fill="#D9D9D9"/>
</mask>
<g mask="url(#mask0_74_1844)">
<path d="M6.63421 15C6.38421 15 6.17588 14.9167 6.00921 14.75C5.84254 14.5833 5.75921 14.375 5.75921 14.125V8.325L0.159211 1.225C-0.0241226 0.958333 -0.0491229 0.687334 0.0842104 0.412C0.217544 0.137334 0.442544 0 0.759211 0H13.7592C14.0759 0 14.3009 0.137334 14.4342 0.412C14.5675 0.687334 14.5425 0.958333 14.3592 1.225L8.75921 8.325V14.125C8.75921 14.375 8.67588 14.5833 8.50921 14.75C8.34254 14.9167 8.13421 15 7.88421 15H6.63421ZM7.25921 7.8L12.2092 1.5H2.30921L7.25921 7.8Z" fill="#EBEBF0"/>
</g>
</svg>
