<svg width="354" height="402" viewBox="0 0 354 402" fill="none" xmlns="http://www.w3.org/2000/svg">
<path d="M138.939 209.911C123.041 209.911 110.16 197.006 110.16 181.088C110.16 165.171 123.041 152.274 138.939 152.274C154.837 152.274 167.718 165.18 167.718 181.088C167.718 186.17 166.405 190.935 164.104 195.076C163.928 195.402 163.741 195.719 163.555 196.035L163.536 196.064C158.488 204.363 149.361 209.911 138.939 209.911Z" fill="#EBEBF0"/>
<path d="M203.315 181.088C203.315 197.006 216.196 209.911 232.094 209.911C242.516 209.911 251.643 204.363 256.691 196.064L256.71 196.036C256.896 195.719 257.082 195.402 257.259 195.076C259.56 190.935 260.873 186.17 260.873 181.088C260.873 165.18 247.992 152.274 232.094 152.274C216.196 152.274 203.315 165.171 203.315 181.088Z" fill="#EBEBF0"/>
<path fill-rule="evenodd" clip-rule="evenodd" d="M158.233 11.0936C164.358 0.485167 177.923 -3.14954 188.531 2.97523L219.264 20.719C229.762 26.7801 232.491 40.895 234.802 52.8431L234.874 53.219C236.524 61.748 241.724 69.5415 249.838 74.2261C257.952 78.9107 267.301 79.5171 275.512 76.6814L275.874 76.5565C287.377 72.5831 300.965 67.8892 311.463 73.9502L342.196 91.694C352.805 97.8187 356.439 111.384 350.315 121.992L235.117 321.52L226.199 316.371C223.547 314.84 220.156 315.749 218.625 318.401C217.094 321.053 218.002 324.444 220.655 325.975L229.572 331.124L195.057 390.906C188.932 401.515 175.367 405.15 164.759 399.025L134.026 381.281C123.528 375.22 120.798 361.105 118.488 349.157L118.416 348.781C116.766 340.252 111.566 332.459 103.452 327.774C95.3381 323.089 85.9888 322.483 77.7775 325.319L77.4157 325.444C65.9132 329.417 52.3247 334.111 41.8267 328.05L11.0936 310.306C0.485168 304.181 -3.14953 290.616 2.97522 280.008L37.5188 220.177C37.7244 220.338 37.9439 220.487 38.1769 220.622L47.781 226.167C50.4331 227.698 53.8243 226.789 55.3555 224.137C56.8867 221.485 55.978 218.094 53.326 216.563L43.7219 211.018C43.4889 210.883 43.2501 210.767 43.0075 210.67L158.233 11.0936ZM162.223 140.712C171.63 146.148 178.429 154.382 182.173 163.753C187.286 176.566 186.699 191.504 179.276 204.372L179.258 204.419L142.55 268.076L149.367 272.012C152.019 273.543 152.928 276.934 151.396 279.586C149.865 282.238 146.474 283.147 143.822 281.616L124.614 270.526C121.962 268.995 121.053 265.604 122.584 262.952C123.454 261.444 124.926 260.5 126.521 260.247L145.561 227.237C135.577 228.692 125.062 226.911 115.655 221.474C93.3771 208.597 85.7492 180.081 98.6113 157.776C111.473 135.48 139.945 127.843 162.223 140.712ZM275.327 163.753C271.583 154.382 264.784 146.148 255.378 140.712C233.1 127.843 204.628 135.48 191.766 157.776C178.904 180.081 186.532 208.597 208.81 221.474C218.217 226.911 228.732 228.692 238.716 227.237L215.469 267.539H236.015L272.412 204.419L272.431 204.372C279.854 191.504 280.441 176.566 275.327 163.753ZM82.1382 233.197C79.4861 231.666 76.0949 232.575 74.5637 235.227C73.0325 237.879 73.9412 241.27 76.5933 242.801L95.8015 253.891C98.4536 255.422 101.845 254.514 103.376 251.862C104.907 249.21 103.998 245.818 101.346 244.287L82.1382 233.197ZM178.179 288.647C175.527 287.115 172.136 288.024 170.605 290.676C169.073 293.328 169.982 296.719 172.634 298.251L191.842 309.34C194.494 310.872 197.886 309.963 199.417 307.311C200.948 304.659 200.039 301.268 197.387 299.736L178.179 288.647Z" fill="#EBEBF0"/>
</svg>
