<svg width="19" height="15" viewBox="0 0 19 15" fill="none" xmlns="http://www.w3.org/2000/svg">
<mask id="mask0_74_1635" style="mask-type:alpha" maskUnits="userSpaceOnUse" x="-3" y="-5" width="25" height="25">
<rect x="-2.5" y="-4.5" width="24" height="24" fill="#D9D9D9"/>
</mask>
<g mask="url(#mask0_74_1635)">
<path d="M1.5 15C1.08333 15 0.729333 14.854 0.438 14.562C0.146 14.2707 0 13.9167 0 13.5V9.9C0.566667 9.8 1.04167 9.525 1.425 9.075C1.80833 8.625 2 8.1 2 7.5C2 6.9 1.80833 6.375 1.425 5.925C1.04167 5.475 0.566667 5.2 0 5.1V1.5C0 1.08333 0.146 0.729334 0.438 0.438C0.729333 0.146 1.08333 0 1.5 0H17.5C17.9167 0 18.2707 0.146 18.562 0.438C18.854 0.729334 19 1.08333 19 1.5V5.1C18.4333 5.2 17.9583 5.475 17.575 5.925C17.1917 6.375 17 6.9 17 7.5C17 8.1 17.1917 8.625 17.575 9.075C17.9583 9.525 18.4333 9.8 19 9.9V13.5C19 13.9167 18.854 14.2707 18.562 14.562C18.2707 14.854 17.9167 15 17.5 15H1.5ZM1.5 13.5H17.5V10.95C16.8833 10.5833 16.396 10.096 16.038 9.488C15.6793 8.87933 15.5 8.21667 15.5 7.5C15.5 6.78333 15.6793 6.12067 16.038 5.512C16.396 4.904 16.8833 4.41667 17.5 4.05V1.5H1.5V4.05C2.11667 4.41667 2.60433 4.904 2.963 5.512C3.321 6.12067 3.5 6.78333 3.5 7.5C3.5 8.21667 3.321 8.87933 2.963 9.488C2.60433 10.096 2.11667 10.5833 1.5 10.95V13.5ZM9.5 12.15C9.71667 12.15 9.896 12.0793 10.038 11.938C10.1793 11.796 10.25 11.6167 10.25 11.4C10.25 11.1833 10.1793 11.0043 10.038 10.863C9.896 10.721 9.71667 10.65 9.5 10.65C9.28333 10.65 9.10433 10.721 8.963 10.863C8.821 11.0043 8.75 11.1833 8.75 11.4C8.75 11.6167 8.821 11.796 8.963 11.938C9.10433 12.0793 9.28333 12.15 9.5 12.15ZM9.5 8.25C9.71667 8.25 9.896 8.179 10.038 8.037C10.1793 7.89567 10.25 7.71667 10.25 7.5C10.25 7.28333 10.1793 7.104 10.038 6.962C9.896 6.82067 9.71667 6.75 9.5 6.75C9.28333 6.75 9.10433 6.82067 8.963 6.962C8.821 7.104 8.75 7.28333 8.75 7.5C8.75 7.71667 8.821 7.89567 8.963 8.037C9.10433 8.179 9.28333 8.25 9.5 8.25ZM9.5 4.35C9.71667 4.35 9.896 4.279 10.038 4.137C10.1793 3.99567 10.25 3.81667 10.25 3.6C10.25 3.38333 10.1793 3.204 10.038 3.062C9.896 2.92067 9.71667 2.85 9.5 2.85C9.28333 2.85 9.10433 2.92067 8.963 3.062C8.821 3.204 8.75 3.38333 8.75 3.6C8.75 3.81667 8.821 3.99567 8.963 4.137C9.10433 4.279 9.28333 4.35 9.5 4.35Z" fill="#0A0A0C" fill-opacity="0.6"/>
</g>
</svg>
