<svg width="8" height="12" viewBox="0 0 8 12" fill="none" xmlns="http://www.w3.org/2000/svg">
<mask id="mask0_74_1607" style="mask-type:alpha" maskUnits="userSpaceOnUse" x="-6" y="-4" width="19" height="20">
<rect x="-5.48127" y="-3.23076" width="18.4615" height="18.4615" fill="#D9D9D9"/>
</mask>
<g mask="url(#mask0_74_1607)">
<path d="M2.38431 12C1.71785 12 1.15385 11.7692 0.692308 11.3077C0.230769 10.8462 0 10.2822 0 9.61569C0 8.94862 0.230769 8.38431 0.692308 7.92277C1.15385 7.46123 1.71785 7.23046 2.38431 7.23046C2.64092 7.23046 2.88769 7.27539 3.12462 7.36523C3.36154 7.45508 3.57631 7.57692 3.76892 7.73077V0H7.49908V2.21169H4.76862V9.61569C4.76862 10.2822 4.53785 10.8462 4.07631 11.3077C3.61477 11.7692 3.05077 12 2.38431 12Z" fill="#0A0A0C"/>
</g>
</svg>
