<svg width="10" height="15" viewBox="0 0 10 15" fill="none" xmlns="http://www.w3.org/2000/svg">
<mask id="mask0_74_1622" style="mask-type:alpha" maskUnits="userSpaceOnUse" x="-5" y="-3" width="20" height="21">
<rect x="-4.57313" y="-2.03454" width="19.1485" height="19.1485" fill="#D9D9D9"/>
</mask>
<g mask="url(#mask0_74_1622)">
<path d="M1.46997 15L3.42504 4.8666C3.47866 4.58767 3.61174 4.35182 3.82429 4.15906C4.03684 3.9663 4.30268 3.86992 4.62182 3.86992C4.86118 3.86992 5.10405 3.9363 5.35043 4.06906C5.59616 4.20183 5.78542 4.3681 5.91818 4.56788L6.23796 5.08681C6.67646 5.76467 7.08847 6.25646 7.474 6.5622C7.86016 6.86794 8.32579 7.07411 8.87088 7.1807V5.74456H9.58895V15H8.87088V8.15823C8.27217 8.03824 7.70346 7.80207 7.16475 7.44974C6.62668 7.0974 6.14477 6.63529 5.71903 6.06338L5.16085 8.97588L6.55678 10.3718V15H5.51989V10.7912L3.6644 9.17502L2.50783 15H1.46997ZM1.60976 8.31717L0.254043 8.05866C0.160853 8.03185 0.0909612 7.98526 0.0443664 7.91888C-0.00222836 7.85249 -0.0121219 7.78611 0.0146861 7.71973L0.572866 4.90681C0.639248 4.56086 0.815414 4.29151 1.10137 4.09874C1.38732 3.90598 1.68986 3.84279 2.00901 3.90917L2.44751 4.02885L1.60976 8.31717ZM5.7985 3.11164C5.3734 3.11164 5.00799 2.95877 4.70225 2.65303C4.39587 2.34729 4.24268 1.98155 4.24268 1.55582C4.24268 1.13008 4.39587 0.764346 4.70225 0.458607C5.00799 0.152869 5.3734 0 5.7985 0C6.23764 0 6.60689 0.152869 6.90624 0.458607C7.20496 0.764346 7.35432 1.13008 7.35432 1.55582C7.35432 1.98155 7.20496 2.34729 6.90624 2.65303C6.60689 2.95877 6.23764 3.11164 5.7985 3.11164Z" fill="#0A0A0C"/>
</g>
</svg>
