<svg width="9" height="13" viewBox="0 0 9 13" fill="none" xmlns="http://www.w3.org/2000/svg">
<mask id="mask0_74_1698" style="mask-type:alpha" maskUnits="userSpaceOnUse" x="-6" y="-4" width="21" height="21">
<rect x="-5.875" y="-3.5" width="20" height="20" fill="#D9D9D9"/>
</mask>
<g mask="url(#mask0_74_1698)">
<path d="M2.542 13C1.84733 13 1.25 12.7533 0.75 12.26C0.25 11.7673 0 11.1667 0 10.458C0 9.764 0.25 9.167 0.75 8.667C1.25 8.167 1.84733 7.917 2.542 7.917C2.86133 7.917 3.15967 7.97233 3.437 8.083C3.715 8.19433 3.95833 8.34733 4.167 8.542V1.417C4.167 1.02767 4.30933 0.694333 4.594 0.417C4.87867 0.139 5.21533 0 5.604 0H7.125C7.44433 0 7.71167 0.104 7.927 0.312C8.14233 0.520667 8.25 0.784667 8.25 1.104C8.25 1.42333 8.14233 1.69067 7.927 1.906C7.71167 2.12133 7.44433 2.229 7.125 2.229H5.083V10.458C5.083 11.1667 4.83667 11.7673 4.344 12.26C3.85067 12.7533 3.25 13 2.542 13Z" fill="#0A0A0C"/>
</g>
</svg>
