<svg width="15" height="17" viewBox="0 0 15 17" fill="none" xmlns="http://www.w3.org/2000/svg">
<mask id="mask0_74_1829" style="mask-type:alpha" maskUnits="userSpaceOnUse" x="-5" y="-4" width="25" height="24">
<rect x="-4.5" y="-4" width="24" height="24" fill="#D9D9D9"/>
</mask>
<g mask="url(#mask0_74_1829)">
<path d="M1.5 15H4.85V9.05H10.15V15H13.5V6L7.5 1.475L1.5 6V15ZM1.5 16.5C1.08333 16.5 0.729334 16.354 0.438 16.062C0.146 15.7707 0 15.4167 0 15V6C0 5.76667 0.0540002 5.54167 0.162 5.325C0.270667 5.10833 0.416667 4.93333 0.6 4.8L6.6 0.275C6.73333 0.175 6.875 0.104 7.025 0.0619998C7.175 0.0206665 7.33333 0 7.5 0C7.66667 0 7.825 0.0206665 7.975 0.0619998C8.125 0.104 8.26667 0.175 8.4 0.275L14.4 4.8C14.5833 4.93333 14.729 5.10833 14.837 5.325C14.9457 5.54167 15 5.76667 15 6V15C15 15.4167 14.854 15.7707 14.562 16.062C14.2707 16.354 13.9167 16.5 13.5 16.5H8.65V10.55H6.35V16.5H1.5Z" fill="#0A0A0C" fill-opacity="0.6"/>
</g>
</svg>
