<svg width="13" height="16" viewBox="0 0 13 16" fill="none" xmlns="http://www.w3.org/2000/svg">
<mask id="mask0_74_2097" style="mask-type:alpha" maskUnits="userSpaceOnUse" x="-4" y="-2" width="21" height="21">
<rect x="-3.55131" y="-1.87993" width="20.0526" height="20.0526" fill="#D9D9D9"/>
</mask>
<g mask="url(#mask0_74_2097)">
<path d="M6.47499 7.97894C6.89276 7.97894 7.24769 7.83289 7.53979 7.54079C7.83256 7.24802 7.97894 6.89276 7.97894 6.47499C7.97894 6.05723 7.83256 5.7023 7.53979 5.4102C7.24769 5.11743 6.89276 4.97105 6.47499 4.97105C6.05723 4.97105 5.7023 5.11743 5.4102 5.4102C5.11743 5.7023 4.97105 6.05723 4.97105 6.47499C4.97105 6.89276 5.11743 7.24802 5.4102 7.54079C5.7023 7.83289 6.05723 7.97894 6.47499 7.97894ZM6.47499 14.5382C8.18749 13.0202 9.47219 11.5754 10.3291 10.2038C11.1854 8.83218 11.6135 7.64506 11.6135 6.64243C11.6135 5.05493 11.1192 3.7739 10.1306 2.79935C9.14199 1.82412 7.92346 1.33651 6.47499 1.33651C5.02653 1.33651 3.80799 1.82412 2.8194 2.79935C1.8308 3.7739 1.33651 5.05493 1.33651 6.64243C1.33651 7.64506 1.76463 8.83218 2.62088 10.2038C3.47779 11.5754 4.7625 13.0202 6.47499 14.5382ZM6.47499 16C6.36337 16 6.25909 15.9863 6.16217 15.9589C6.06458 15.9308 5.96699 15.882 5.8694 15.8125C3.89222 14.0024 2.41968 12.3417 1.45181 10.8304C0.483936 9.31979 0 7.9238 0 6.64243C0 4.6091 0.647366 2.99386 1.9421 1.79672C3.2375 0.598905 4.74846 0 6.47499 0C8.20153 0 9.71249 0.598905 11.0079 1.79672C12.3026 2.99386 12.95 4.6091 12.95 6.64243C12.95 7.9238 12.4661 9.31979 11.4982 10.8304C10.5303 12.3417 9.05777 14.0024 7.08058 15.8125C6.99703 15.882 6.90312 15.9308 6.79884 15.9589C6.69457 15.9863 6.58662 16 6.47499 16Z" fill="#0A0A0C"/>
</g>
</svg>
