<svg width="11" height="19" viewBox="0 0 11 19" fill="none" xmlns="http://www.w3.org/2000/svg">
<mask id="mask0_74_1570" style="mask-type:alpha" maskUnits="userSpaceOnUse" x="-8" y="-3" width="26" height="25">
<rect x="-7.18919" y="-2.82432" width="24.6486" height="24.6486" fill="#D9D9D9"/>
</mask>
<g mask="url(#mask0_74_1570)">
<path d="M0.333784 18.6662C0.128378 18.4779 0.0256758 18.2424 0.0256758 17.9596C0.0256758 17.6775 0.128378 17.4338 0.333784 17.2284L8.03649 9.5L0.308108 1.74595C0.102703 1.55766 0 1.32213 0 1.03935C0 0.757261 0.111261 0.513513 0.333784 0.308108C0.522072 0.102703 0.757603 0 1.04038 0C1.32247 0 1.56622 0.102703 1.77162 0.308108L10.2959 8.85811C10.3986 8.94369 10.4716 9.04195 10.5147 9.15286C10.5572 9.26447 10.5784 9.38018 10.5784 9.5C10.5784 9.61982 10.5572 9.73519 10.5147 9.84611C10.4716 9.95771 10.3986 10.0563 10.2959 10.1419L1.74595 18.6919C1.55766 18.8973 1.32658 19 1.0527 19C0.778828 19 0.539189 18.8887 0.333784 18.6662Z" fill="#0A0A0C"/>
</g>
</svg>
