<svg width="12" height="10" viewBox="0 0 12 10" fill="none" xmlns="http://www.w3.org/2000/svg">
<mask id="mask0_174_817" style="mask-type:alpha" maskUnits="userSpaceOnUse" x="-2" y="-3" width="15" height="16">
<rect x="-1.47033" y="-2.05916" width="14.1183" height="14.1183" fill="#D9D9D9"/>
</mask>
<g mask="url(#mask0_174_817)">
<path d="M5.60356 8.01497C6.28971 8.01497 6.86809 7.77966 7.3387 7.30905C7.80931 6.83844 8.04461 6.25983 8.04461 5.5732C8.04461 4.88705 7.80931 4.30867 7.3387 3.83806C6.86809 3.36745 6.28971 3.13215 5.60356 3.13215C4.90753 3.13215 4.32656 3.36745 3.86065 3.83806C3.39475 4.30867 3.1618 4.88705 3.1618 5.5732C3.1618 6.25983 3.39475 6.83844 3.86065 7.30905C4.32656 7.77966 4.90753 8.01497 5.60356 8.01497ZM1.11817 10C0.804273 10 0.539555 9.89223 0.324015 9.67669C0.108005 9.46115 0 9.19643 0 8.88254V2.2794C0 1.9655 0.108005 1.70079 0.324015 1.48525C0.539555 1.26924 0.804273 1.16123 1.11817 1.16123H2.85331L3.6037 0.352958C3.71147 0.245188 3.83877 0.159302 3.9856 0.0952986C4.1329 0.0317662 4.27997 0 4.4268 0H6.7655C6.91233 0 7.0568 0.0317662 7.19893 0.0952986C7.34105 0.159302 7.466 0.245188 7.57377 0.352958L8.33898 1.16123H10.0593C10.3732 1.16123 10.6379 1.26924 10.8535 1.48525C11.0695 1.70079 11.1775 1.9655 11.1775 2.2794V8.88254C11.1775 9.19643 11.0695 9.46115 10.8535 9.67669C10.6379 9.89223 10.3732 10 10.0593 10H1.11817ZM10.0593 9.05902C10.1087 9.05902 10.1504 9.04184 10.1842 9.00748C10.2186 8.97313 10.2358 8.93148 10.2358 8.88254V2.2794C10.2358 2.23046 10.2186 2.18881 10.1842 2.15445C10.1504 2.1201 10.1087 2.10292 10.0593 2.10292H1.11817C1.06876 2.10292 1.02711 2.1201 0.993223 2.15445C0.958869 2.18881 0.941692 2.23046 0.941692 2.2794V8.88254C0.941692 8.93148 0.958869 8.97313 0.993223 9.00748C1.02711 9.04184 1.06876 9.05902 1.11817 9.05902H10.0593Z" fill="#EBEBF0"/>
</g>
</svg>
