<svg width="11" height="7" viewBox="0 0 11 7" fill="none" xmlns="http://www.w3.org/2000/svg">
<mask id="mask0_74_1584" style="mask-type:alpha" maskUnits="userSpaceOnUse" x="-7" y="-9" width="25" height="25">
<rect x="-6.83622" y="-8.87837" width="24.6724" height="24.6724" fill="#D9D9D9"/>
</mask>
<g mask="url(#mask0_74_1584)">
<path d="M5.4999 6.1821C5.37996 6.1821 5.26448 6.16497 5.15346 6.1307C5.04175 6.09643 4.94306 6.0279 4.85739 5.9251L0.205604 1.29901C0.0685344 1.14481 0 0.964906 0 0.759302C0 0.553699 0.0771013 0.373796 0.231304 0.219593C0.385507 0.0825237 0.56541 0.0139884 0.771014 0.0139884C0.976618 0.0139884 1.15652 0.0825237 1.31072 0.219593L5.4999 4.40877L9.71478 0.219593C9.85185 0.0653901 10.0232 -0.00759953 10.2288 0.000624617C10.4344 0.00953411 10.6143 0.0825237 10.7685 0.219593C10.9227 0.373796 10.9998 0.557811 10.9998 0.771639C10.9998 0.986152 10.9227 1.16194 10.7685 1.29901L6.14241 5.9251C6.05674 6.0279 5.9584 6.09643 5.84737 6.1307C5.73566 6.16497 5.61984 6.1821 5.4999 6.1821Z" fill="#0A0A0C"/>
</g>
</svg>
