<svg width="10" height="13" viewBox="0 0 10 13" fill="none" xmlns="http://www.w3.org/2000/svg">
<mask id="mask0_74_2111" style="mask-type:alpha" maskUnits="userSpaceOnUse" x="-4" y="-2" width="18" height="17">
<rect x="-3.10768" y="-1.68881" width="16.2154" height="16.2154" fill="#D9D9D9"/>
</mask>
<g mask="url(#mask0_74_2111)">
<path d="M2.4323 11.7561H7.56771V9.76327C7.56771 9.00871 7.32259 8.35551 6.83234 7.80364C6.34264 7.25232 5.73186 6.97666 5.00001 6.97666C4.26815 6.97666 3.65737 7.25232 3.16767 7.80364C2.67743 8.35551 2.4323 9.00871 2.4323 9.76327V11.7561ZM5.00001 5.86104C5.73186 5.86104 6.34264 5.58538 6.83234 5.03406C7.32259 4.4822 7.56771 3.83466 7.56771 3.09146V1.08156H2.4323V3.09146C2.4323 3.84601 2.67743 4.49625 3.16767 5.04217C3.65737 5.58808 4.26815 5.86104 5.00001 5.86104ZM9.45923 12.8377H0.540782C0.394304 12.8377 0.267554 12.7842 0.160532 12.6772C0.0535108 12.5701 0 12.4434 0 12.2969C0 12.1504 0.0535108 12.0237 0.160532 11.9167C0.267554 11.8096 0.394304 11.7561 0.540782 11.7561H1.35155V9.76327C1.35155 9.04277 1.52884 8.38118 1.88341 7.77851C2.23799 7.17584 2.72499 6.72262 3.34442 6.41885C2.72499 6.11508 2.23799 5.66186 1.88341 5.05919C1.52884 4.45652 1.35155 3.80061 1.35155 3.09146V1.08156H0.540782C0.394304 1.08156 0.267554 1.02805 0.160532 0.921033C0.0535108 0.814011 0 0.687261 0 0.540782C0 0.394304 0.0535108 0.267553 0.160532 0.160532C0.267554 0.0535107 0.394304 0 0.540782 0H9.45923C9.60571 0 9.73246 0.0535107 9.83948 0.160532C9.9465 0.267553 10 0.394304 10 0.540782C10 0.687261 9.9465 0.814011 9.83948 0.921033C9.73246 1.02805 9.60571 1.08156 9.45923 1.08156H8.64846V3.09146C8.64846 3.80061 8.47117 4.45652 8.1166 5.05919C7.76202 5.66186 7.27502 6.11508 6.65559 6.41885C7.27502 6.72262 7.76202 7.17584 8.1166 7.77851C8.47117 8.38118 8.64846 9.04277 8.64846 9.76327V11.7561H9.45923C9.60571 11.7561 9.73246 11.8096 9.83948 11.9167C9.9465 12.0237 10 12.1504 10 12.2969C10 12.4434 9.9465 12.5701 9.83948 12.6772C9.73246 12.7842 9.60571 12.8377 9.45923 12.8377Z" fill="#0A0A0C"/>
</g>
</svg>
