<svg width="328" height="227" viewBox="0 0 328 227" fill="none" xmlns="http://www.w3.org/2000/svg">
<rect width="328" height="227" rx="32" fill="#EBEBF0"/>
<g clip-path="url(#clip0_166_261)">
<path d="M136.473 200.293L130.302 204.733L114.418 216.173L112.107 217.844L78.5371 219.726C71.0725 201.562 64.2229 151.15 60.5118 120.087C58.7305 104.989 57.6914 94.4794 57.6914 94.4794L73.6809 84.2025L95.1628 103.001L100.676 107.844L111.301 117.148L136.473 200.293Z" fill="url(#paint0_linear_166_261)"/>
<path d="M136.473 200.293L130.302 204.734L114.418 216.173C104.494 191.961 82.3118 134.678 81.2515 103.91L100.676 107.844L111.301 117.148L136.473 200.293Z" fill="url(#paint1_linear_166_261)"/>
<path d="M288.903 123.09C273.995 136.052 138.106 217.844 138.106 217.844C138.106 217.844 135.052 212.853 130.302 204.733C117.854 183.545 93.6574 141.042 81.3154 110.444C76.9893 99.787 74.1265 90.5674 73.6812 84.2025C117.26 55.0636 236.651 7.27415 236.651 7.27415C236.651 7.27415 240.277 17.847 245.833 32.7125C256.967 62.5069 275.883 109.577 288.903 123.09Z" fill="url(#paint2_linear_166_261)"/>
<path d="M245.833 32.7125C194.959 46.8591 120.186 88.6008 95.1626 103.001C89.7338 106.131 86.6589 107.97 86.6589 107.97L81.3149 110.444L60.5328 120.087C58.7515 104.989 57.7124 94.4794 57.7124 94.4794L70.7754 86.0845L73.7019 84.2025C117.26 55.0636 236.651 7.27415 236.651 7.27415C236.651 7.27415 240.277 17.847 245.833 32.7125Z" fill="url(#paint3_linear_166_261)"/>
<path d="M81.3149 110.444L60.5328 120.087C58.7515 104.989 57.7124 94.4794 57.7124 94.4794L70.7754 86.0845L81.3362 110.444H81.3149Z" fill="url(#paint4_linear_166_261)"/>
<path d="M93.5725 84.6043C94.9297 73.0164 76.6075 69.6965 75.2927 83.1241L71.4332 85.6404C71.4332 85.6404 69.5034 69.6119 85.5141 70.5212C98.2378 71.2401 97.8561 81.3267 96.9655 85.1964C96.7534 86.1268 95.8203 86.6766 94.8873 86.4651C94.039 86.2748 93.4664 85.4713 93.5725 84.6254V84.6043Z" fill="url(#paint5_linear_166_261)"/>
<path d="M125.742 68.3009C128.372 56.9456 110.537 51.6169 107.738 64.8118L103.624 66.8841C103.624 66.8841 103.497 50.7499 119.295 53.4143C131.871 55.5288 130.344 65.5308 129.05 69.2736C128.732 70.1617 127.736 70.6269 126.845 70.3097C126.018 70.0137 125.53 69.1679 125.742 68.322V68.3009Z" fill="url(#paint6_linear_166_261)"/>
<path d="M163.574 49.9041C166.204 38.5488 148.369 33.22 145.57 46.415L141.456 48.4873C141.456 48.4873 141.329 32.3531 157.128 35.0174C169.703 37.132 168.176 47.134 166.882 50.8768C166.564 51.7649 165.568 52.2301 164.677 51.9129C163.85 51.6169 163.362 50.771 163.574 49.9252V49.9041Z" fill="url(#paint7_linear_166_261)"/>
<path d="M198.692 34.1716C201.321 22.8163 183.487 17.4876 180.688 30.6825L176.574 32.7548C176.574 32.7548 176.447 16.6206 192.245 19.285C204.82 21.3995 203.294 31.4015 202 35.1443C201.682 36.0324 200.685 36.4976 199.795 36.1804C198.968 35.8844 198.48 35.0386 198.692 34.1927V34.1716Z" fill="url(#paint8_linear_166_261)"/>
<path d="M231.604 20.1308C234.234 8.7755 216.399 3.44676 213.6 16.6417L209.486 18.714C209.486 18.714 209.359 2.57979 225.157 5.24415C237.733 7.35873 236.206 17.3607 234.912 21.1035C234.594 21.9916 233.597 22.4568 232.707 22.1396C231.88 21.8436 231.392 20.9978 231.604 20.1519V20.1308Z" fill="url(#paint9_linear_166_261)"/>
<path opacity="0.25" d="M106.444 112.77C118.511 103.487 150.278 90.3982 150.278 90.3982" stroke="url(#paint10_linear_166_261)" stroke-width="3" stroke-miterlimit="10" stroke-linecap="round"/>
<path opacity="0.15" d="M123.733 119.961L109.877 127.573C108.01 128.599 107.33 130.939 108.359 132.801L114.816 144.488C115.844 146.349 118.191 147.027 120.058 146.002L133.915 138.39C135.782 137.364 136.461 135.024 135.433 133.162L128.976 121.475C127.948 119.614 125.6 118.936 123.733 119.961Z" fill="url(#paint11_linear_166_261)"/>
<path opacity="0.15" d="M151.921 104.466L138.065 112.078C136.198 113.103 135.518 115.444 136.547 117.306L143.004 128.993C144.032 130.854 146.379 131.532 148.246 130.507L162.103 122.895C163.97 121.869 164.649 119.529 163.621 117.667L157.164 105.98C156.136 104.119 153.788 103.441 151.921 104.466Z" fill="url(#paint12_linear_166_261)"/>
<path opacity="0.15" d="M180.149 88.961L166.293 96.5726C164.426 97.5982 163.746 99.9388 164.775 101.8L171.232 113.487C172.26 115.349 174.607 116.027 176.474 115.001L190.331 107.39C192.198 106.364 192.877 104.024 191.849 102.162L185.392 90.4749C184.364 88.6132 182.017 87.9354 180.149 88.961Z" fill="url(#paint13_linear_166_261)"/>
<path opacity="0.15" d="M208.359 73.4659L194.503 81.0775C192.636 82.1031 191.956 84.4437 192.984 86.3054L199.441 97.9923C200.47 99.854 202.817 100.532 204.684 99.5062L218.54 91.8946C220.407 90.869 221.087 88.5284 220.058 86.6668L213.602 74.9798C212.573 73.1181 210.226 72.4403 208.359 73.4659Z" fill="url(#paint14_linear_166_261)"/>
<path opacity="0.15" d="M236.558 57.9894L222.701 65.601C220.834 66.6266 220.155 68.9672 221.183 70.8289L227.64 82.5158C228.668 84.3775 231.016 85.0553 232.883 84.0297L246.739 76.4181C248.606 75.3925 249.286 73.0519 248.257 71.1902L241.801 59.5033C240.772 57.6416 238.425 56.9638 236.558 57.9894Z" fill="url(#paint15_linear_166_261)"/>
<path opacity="0.15" d="M138.332 143.675L124.475 151.286C122.608 152.312 121.929 154.652 122.957 156.514L129.414 168.201C130.442 170.063 132.789 170.74 134.656 169.715L148.513 162.103C150.38 161.078 151.06 158.737 150.031 156.875L143.574 145.188C142.546 143.327 140.199 142.649 138.332 143.675Z" fill="url(#paint16_linear_166_261)"/>
<path opacity="0.15" d="M166.541 128.158L152.685 135.77C150.818 136.796 150.138 139.136 151.166 140.998L157.623 152.685C158.652 154.546 160.999 155.224 162.866 154.199L176.722 146.587C178.589 145.561 179.269 143.221 178.241 141.359L171.784 129.672C170.755 127.811 168.408 127.133 166.541 128.158Z" fill="url(#paint17_linear_166_261)"/>
<path opacity="0.15" d="M194.729 112.663L180.873 120.275C179.006 121.3 178.326 123.641 179.354 125.503L185.811 137.19C186.84 139.051 189.187 139.729 191.054 138.704L204.91 131.092C206.777 130.066 207.457 127.726 206.429 125.864L199.972 114.177C198.943 112.315 196.596 111.638 194.729 112.663Z" fill="url(#paint18_linear_166_261)"/>
<path d="M222.949 97.1867L209.092 104.798C207.225 105.824 206.546 108.164 207.574 110.026L214.031 121.713C215.059 123.575 217.407 124.253 219.274 123.227L233.13 115.615C234.997 114.59 235.677 112.249 234.648 110.388L228.192 98.7006C227.163 96.8389 224.816 96.1611 222.949 97.1867Z" fill="url(#paint19_linear_166_261)"/>
<path opacity="0.15" d="M251.177 81.6814L237.32 89.293C235.453 90.3186 234.774 92.6592 235.802 94.5209L242.259 106.208C243.287 108.069 245.635 108.747 247.502 107.722L261.358 100.11C263.225 99.0845 263.905 96.7439 262.876 94.8822L256.42 83.1953C255.391 81.3336 253.044 80.6558 251.177 81.6814Z" fill="url(#paint20_linear_166_261)"/>
<path opacity="0.15" d="M151.542 167.551L137.685 175.163C135.818 176.188 135.138 178.529 136.167 180.391L142.624 192.078C143.652 193.939 145.999 194.617 147.866 193.591L161.723 185.98C163.59 184.954 164.27 182.614 163.241 180.752L156.784 169.065C155.756 167.203 153.409 166.526 151.542 167.551Z" fill="url(#paint21_linear_166_261)"/>
<path opacity="0.15" d="M179.761 152.075L165.905 159.686C164.038 160.712 163.358 163.052 164.387 164.914L170.843 176.601C171.872 178.463 174.219 179.14 176.086 178.115L189.943 170.503C191.81 169.478 192.489 167.137 191.461 165.275L185.004 153.588C183.976 151.727 181.628 151.049 179.761 152.075Z" fill="url(#paint22_linear_166_261)"/>
<path opacity="0.15" d="M207.949 136.58L194.093 144.191C192.226 145.217 191.546 147.557 192.575 149.419L199.031 161.106C200.06 162.968 202.407 163.645 204.274 162.62L218.131 155.008C219.998 153.983 220.677 151.642 219.649 149.78L213.192 138.093C212.164 136.232 209.816 135.554 207.949 136.58Z" fill="url(#paint23_linear_166_261)"/>
<path opacity="0.15" d="M236.159 121.084L222.302 128.696C220.435 129.722 219.756 132.062 220.784 133.924L227.241 145.611C228.269 147.473 230.617 148.15 232.484 147.125L246.34 139.513C248.207 138.488 248.887 136.147 247.858 134.285L241.402 122.598C240.373 120.737 238.026 120.059 236.159 121.084Z" fill="url(#paint24_linear_166_261)"/>
<path opacity="0.15" d="M264.368 105.589L250.512 113.201C248.645 114.227 247.965 116.567 248.994 118.429L255.45 130.116C256.479 131.977 258.826 132.655 260.693 131.63L274.549 124.018C276.417 122.992 277.096 120.652 276.068 118.79L269.611 107.103C268.583 105.242 266.235 104.564 264.368 105.589Z" fill="url(#paint25_linear_166_261)"/>
<path d="M216.335 111.206L222.294 113.764L224.86 103.91" stroke="white" stroke-linecap="round" stroke-linejoin="round"/>
<path d="M141.456 7.27415C141.456 11.2918 138.19 14.5483 134.161 14.5483C130.132 14.5483 126.866 11.2918 126.866 7.27415C126.866 3.25645 130.132 0 134.161 0C138.19 0 141.456 3.25645 141.456 7.27415Z" fill="url(#paint26_linear_166_261)"/>
<path d="M223.63 219.726C223.63 223.744 220.365 227 216.335 227C212.306 227 209.041 223.744 209.041 219.726C209.041 215.708 212.306 212.452 216.335 212.452C220.365 212.452 223.63 215.708 223.63 219.726Z" fill="url(#paint27_linear_166_261)"/>
<path d="M281.757 33.6007L283.474 29.6252C283.941 28.5468 283.453 27.2992 282.372 26.834C281.29 26.3688 280.039 26.8552 279.573 27.9336L277.855 31.909L273.868 30.1962C272.787 29.731 271.535 30.2173 271.069 31.2958C270.602 32.3742 271.09 33.6218 272.172 34.087L276.158 35.7998L274.441 39.7752C273.974 40.8537 274.462 42.1013 275.543 42.5665C276.073 42.7991 276.667 42.7991 277.176 42.5876C277.685 42.3973 278.109 41.9955 278.343 41.4669L280.06 37.4915L284.047 39.2043C284.577 39.4369 285.171 39.4369 285.68 39.2254C286.189 39.0351 286.613 38.6334 286.846 38.1047C287.313 37.0263 286.825 35.7787 285.744 35.3135L281.757 33.6007Z" fill="url(#paint28_linear_166_261)"/>
<path d="M26.8364 139.478L28.5541 135.502C29.0206 134.424 28.5329 133.176 27.4513 132.711C26.3698 132.246 25.1187 132.732 24.6521 133.811L22.9344 137.786L18.9476 136.073C17.8661 135.608 16.6149 136.094 16.1484 137.173C15.6819 138.251 16.1696 139.499 17.2511 139.964L21.2379 141.677L19.5202 145.652C19.0537 146.731 19.5414 147.978 20.6229 148.443C21.1531 148.676 21.7469 148.676 22.2558 148.465C22.7648 148.274 23.1889 147.872 23.4222 147.344L25.1399 143.368L29.1266 145.081C29.6568 145.314 30.2506 145.314 30.7595 145.102C31.2685 144.912 31.6926 144.51 31.9259 143.982C32.3924 142.903 31.9046 141.656 30.8231 141.19L26.8364 139.478Z" fill="url(#paint29_linear_166_261)"/>
</g>
<defs>
<linearGradient id="paint0_linear_166_261" x1="63.2687" y1="-26.7494" x2="117.848" y2="274.908" gradientUnits="userSpaceOnUse">
<stop stop-color="#B9A5FF"/>
<stop offset="1" stop-color="#F9F7ED"/>
</linearGradient>
<linearGradient id="paint1_linear_166_261" x1="92.5544" y1="107.907" x2="142.828" y2="263.857" gradientUnits="userSpaceOnUse">
<stop stop-color="#B9A5FF"/>
<stop offset="1" stop-color="#F9F7ED"/>
</linearGradient>
<linearGradient id="paint2_linear_166_261" x1="288.14" y1="518.389" x2="162.13" y2="27.9923" gradientUnits="userSpaceOnUse">
<stop stop-color="#B9A5FF"/>
<stop offset="1" stop-color="#F9F7ED"/>
</linearGradient>
<linearGradient id="paint3_linear_166_261" x1="141.647" y1="14.7809" x2="168.557" y2="159.488" gradientUnits="userSpaceOnUse">
<stop stop-color="#FF998B"/>
<stop offset="1" stop-color="#FF4B6B"/>
</linearGradient>
<linearGradient id="paint4_linear_166_261" x1="69.2486" y1="29.4561" x2="69.5227" y2="110.17" gradientUnits="userSpaceOnUse">
<stop stop-color="#FF998B"/>
<stop offset="1" stop-color="#FF4B6B"/>
</linearGradient>
<linearGradient id="paint5_linear_166_261" x1="67.2767" y1="53.3931" x2="93.4832" y2="97.3154" gradientUnits="userSpaceOnUse">
<stop stop-color="#6D5EB7"/>
<stop offset="1" stop-color="#453777"/>
</linearGradient>
<linearGradient id="paint6_linear_166_261" x1="103.095" y1="34.3608" x2="124.266" y2="80.917" gradientUnits="userSpaceOnUse">
<stop stop-color="#6D5EB7"/>
<stop offset="1" stop-color="#453777"/>
</linearGradient>
<linearGradient id="paint7_linear_166_261" x1="140.93" y1="15.9524" x2="162.101" y2="62.5086" gradientUnits="userSpaceOnUse">
<stop stop-color="#6D5EB7"/>
<stop offset="1" stop-color="#453777"/>
</linearGradient>
<linearGradient id="paint8_linear_166_261" x1="176.051" y1="0.240598" x2="197.222" y2="46.7968" gradientUnits="userSpaceOnUse">
<stop stop-color="#6D5EB7"/>
<stop offset="1" stop-color="#453777"/>
</linearGradient>
<linearGradient id="paint9_linear_166_261" x1="208.955" y1="-13.7828" x2="230.107" y2="32.7499" gradientUnits="userSpaceOnUse">
<stop stop-color="#6D5EB7"/>
<stop offset="1" stop-color="#453777"/>
</linearGradient>
<linearGradient id="paint10_linear_166_261" x1="130.305" y1="111.188" x2="126.417" y2="91.9626" gradientUnits="userSpaceOnUse">
<stop stop-color="#6D5EB7"/>
<stop offset="1" stop-color="#453777"/>
</linearGradient>
<linearGradient id="paint11_linear_166_261" x1="116.689" y1="127.022" x2="206.663" y2="230.556" gradientUnits="userSpaceOnUse">
<stop stop-color="#6D5EB7"/>
<stop offset="1" stop-color="#453777"/>
</linearGradient>
<linearGradient id="paint12_linear_166_261" x1="140.403" y1="106.396" x2="230.376" y2="209.909" gradientUnits="userSpaceOnUse">
<stop stop-color="#6D5EB7"/>
<stop offset="1" stop-color="#453777"/>
</linearGradient>
<linearGradient id="paint13_linear_166_261" x1="164.12" y1="85.7806" x2="254.114" y2="189.292" gradientUnits="userSpaceOnUse">
<stop stop-color="#6D5EB7"/>
<stop offset="1" stop-color="#453777"/>
</linearGradient>
<linearGradient id="paint14_linear_166_261" x1="187.886" y1="65.1515" x2="277.86" y2="168.685" gradientUnits="userSpaceOnUse">
<stop stop-color="#6D5EB7"/>
<stop offset="1" stop-color="#453777"/>
</linearGradient>
<linearGradient id="paint15_linear_166_261" x1="211.583" y1="44.536" x2="301.557" y2="148.07" gradientUnits="userSpaceOnUse">
<stop stop-color="#6D5EB7"/>
<stop offset="1" stop-color="#453777"/>
</linearGradient>
<linearGradient id="paint16_linear_166_261" x1="131.3" y1="150.745" x2="221.273" y2="254.258" gradientUnits="userSpaceOnUse">
<stop stop-color="#6D5EB7"/>
<stop offset="1" stop-color="#453777"/>
</linearGradient>
<linearGradient id="paint17_linear_166_261" x1="155.017" y1="130.108" x2="244.99" y2="233.621" gradientUnits="userSpaceOnUse">
<stop stop-color="#6D5EB7"/>
<stop offset="1" stop-color="#453777"/>
</linearGradient>
<linearGradient id="paint18_linear_166_261" x1="178.731" y1="109.461" x2="268.726" y2="212.994" gradientUnits="userSpaceOnUse">
<stop stop-color="#6D5EB7"/>
<stop offset="1" stop-color="#453777"/>
</linearGradient>
<linearGradient id="paint19_linear_166_261" x1="222.161" y1="158.794" x2="220.537" y2="83.7478" gradientUnits="userSpaceOnUse">
<stop stop-color="#51C991"/>
<stop offset="1" stop-color="#C5FFC3"/>
</linearGradient>
<linearGradient id="paint20_linear_166_261" x1="226.215" y1="68.238" x2="316.189" y2="171.772" gradientUnits="userSpaceOnUse">
<stop stop-color="#6D5EB7"/>
<stop offset="1" stop-color="#453777"/>
</linearGradient>
<linearGradient id="paint21_linear_166_261" x1="144.506" y1="174.629" x2="234.48" y2="278.163" gradientUnits="userSpaceOnUse">
<stop stop-color="#6D5EB7"/>
<stop offset="1" stop-color="#453777"/>
</linearGradient>
<linearGradient id="paint22_linear_166_261" x1="168.224" y1="154.013" x2="258.218" y2="257.525" gradientUnits="userSpaceOnUse">
<stop stop-color="#6D5EB7"/>
<stop offset="1" stop-color="#453777"/>
</linearGradient>
<linearGradient id="paint23_linear_166_261" x1="191.94" y1="133.397" x2="281.914" y2="236.91" gradientUnits="userSpaceOnUse">
<stop stop-color="#6D5EB7"/>
<stop offset="1" stop-color="#453777"/>
</linearGradient>
<linearGradient id="paint24_linear_166_261" x1="215.676" y1="112.771" x2="305.649" y2="216.284" gradientUnits="userSpaceOnUse">
<stop stop-color="#6D5EB7"/>
<stop offset="1" stop-color="#453777"/>
</linearGradient>
<linearGradient id="paint25_linear_166_261" x1="239.393" y1="92.1346" x2="329.388" y2="195.668" gradientUnits="userSpaceOnUse">
<stop stop-color="#6D5EB7"/>
<stop offset="1" stop-color="#453777"/>
</linearGradient>
<linearGradient id="paint26_linear_166_261" x1="139.06" y1="43.8986" x2="131.785" y2="-10.9167" gradientUnits="userSpaceOnUse">
<stop stop-color="#7BB8EF"/>
<stop offset="1" stop-color="#E3FBFF"/>
</linearGradient>
<linearGradient id="paint27_linear_166_261" x1="206.241" y1="253.897" x2="218.624" y2="211.777" gradientUnits="userSpaceOnUse">
<stop stop-color="#B9A5FF"/>
<stop offset="1" stop-color="#FFDBFF"/>
</linearGradient>
<linearGradient id="paint28_linear_166_261" x1="280.145" y1="51.0882" x2="278.669" y2="30.3013" gradientUnits="userSpaceOnUse">
<stop stop-color="#B9A5FF"/>
<stop offset="1" stop-color="#FFDBFF"/>
</linearGradient>
<linearGradient id="paint29_linear_166_261" x1="26.0305" y1="197.946" x2="22.2562" y2="88.3463" gradientUnits="userSpaceOnUse">
<stop stop-color="#7BB8EF"/>
<stop offset="1" stop-color="#E3FBFF"/>
</linearGradient>
<clipPath id="clip0_166_261">
<rect width="295" height="227" fill="white" transform="translate(16)"/>
</clipPath>
</defs>
</svg>
