<svg width="120" height="120" viewBox="0 0 120 120" fill="none" xmlns="http://www.w3.org/2000/svg">
<g clip-path="url(#clip0_174_139)">
<path d="M120 0H0V120H120V0Z" fill="#EBEBF0"/>
<path d="M14.3996 9.60001H9.59961V14.4H14.3996V9.60001Z" fill="black"/>
<path d="M19.2004 9.60001H14.4004V14.4H19.2004V9.60001Z" fill="black"/>
<path d="M24.0002 9.60001H19.2002V14.4H24.0002V9.60001Z" fill="black"/>
<path d="M28.8 9.60001H24V14.4H28.8V9.60001Z" fill="black"/>
<path d="M33.5998 9.60001H28.7998V14.4H33.5998V9.60001Z" fill="black"/>
<path d="M38.3996 9.60001H33.5996V14.4H38.3996V9.60001Z" fill="black"/>
<path d="M43.2004 9.60001H38.4004V14.4H43.2004V9.60001Z" fill="black"/>
<path d="M62.3996 9.60001H57.5996V14.4H62.3996V9.60001Z" fill="black"/>
<path d="M72.0002 9.60001H67.2002V14.4H72.0002V9.60001Z" fill="black"/>
<path d="M81.5998 9.60001H76.7998V14.4H81.5998V9.60001Z" fill="black"/>
<path d="M86.3996 9.60001H81.5996V14.4H86.3996V9.60001Z" fill="black"/>
<path d="M91.2004 9.60001H86.4004V14.4H91.2004V9.60001Z" fill="black"/>
<path d="M96.0002 9.60001H91.2002V14.4H96.0002V9.60001Z" fill="black"/>
<path d="M100.8 9.60001H96V14.4H100.8V9.60001Z" fill="black"/>
<path d="M105.6 9.60001H100.8V14.4H105.6V9.60001Z" fill="black"/>
<path d="M110.4 9.60001H105.6V14.4H110.4V9.60001Z" fill="black"/>
<path d="M14.3996 14.4H9.59961V19.2H14.3996V14.4Z" fill="black"/>
<path d="M43.2004 14.4H38.4004V19.2H43.2004V14.4Z" fill="black"/>
<path d="M72.0002 14.4H67.2002V19.2H72.0002V14.4Z" fill="black"/>
<path d="M81.5998 14.4H76.7998V19.2H81.5998V14.4Z" fill="black"/>
<path d="M110.4 14.4H105.6V19.2H110.4V14.4Z" fill="black"/>
<path d="M14.3996 19.2H9.59961V24H14.3996V19.2Z" fill="black"/>
<path d="M24.0002 19.2H19.2002V24H24.0002V19.2Z" fill="black"/>
<path d="M28.8 19.2H24V24H28.8V19.2Z" fill="black"/>
<path d="M33.5998 19.2H28.7998V24H33.5998V19.2Z" fill="black"/>
<path d="M43.2004 19.2H38.4004V24H43.2004V19.2Z" fill="black"/>
<path d="M52.8 19.2H48V24H52.8V19.2Z" fill="black"/>
<path d="M62.3996 19.2H57.5996V24H62.3996V19.2Z" fill="black"/>
<path d="M81.5998 19.2H76.7998V24H81.5998V19.2Z" fill="black"/>
<path d="M91.2004 19.2H86.4004V24H91.2004V19.2Z" fill="black"/>
<path d="M96.0002 19.2H91.2002V24H96.0002V19.2Z" fill="black"/>
<path d="M100.8 19.2H96V24H100.8V19.2Z" fill="black"/>
<path d="M110.4 19.2H105.6V24H110.4V19.2Z" fill="black"/>
<path d="M14.3996 24H9.59961V28.8H14.3996V24Z" fill="black"/>
<path d="M24.0002 24H19.2002V28.8H24.0002V24Z" fill="black"/>
<path d="M28.8 24H24V28.8H28.8V24Z" fill="black"/>
<path d="M33.5998 24H28.7998V28.8H33.5998V24Z" fill="black"/>
<path d="M43.2004 24H38.4004V28.8H43.2004V24Z" fill="black"/>
<path d="M72.0002 24H67.2002V28.8H72.0002V24Z" fill="black"/>
<path d="M81.5998 24H76.7998V28.8H81.5998V24Z" fill="black"/>
<path d="M91.2004 24H86.4004V28.8H91.2004V24Z" fill="black"/>
<path d="M96.0002 24H91.2002V28.8H96.0002V24Z" fill="black"/>
<path d="M100.8 24H96V28.8H100.8V24Z" fill="black"/>
<path d="M110.4 24H105.6V28.8H110.4V24Z" fill="black"/>
<path d="M14.3996 28.8H9.59961V33.6H14.3996V28.8Z" fill="black"/>
<path d="M24.0002 28.8H19.2002V33.6H24.0002V28.8Z" fill="black"/>
<path d="M28.8 28.8H24V33.6H28.8V28.8Z" fill="black"/>
<path d="M33.5998 28.8H28.7998V33.6H33.5998V28.8Z" fill="black"/>
<path d="M43.2004 28.8H38.4004V33.6H43.2004V28.8Z" fill="black"/>
<path d="M57.5998 28.8H52.7998V33.6H57.5998V28.8Z" fill="black"/>
<path d="M67.2004 28.8H62.4004V33.6H67.2004V28.8Z" fill="black"/>
<path d="M72.0002 28.8H67.2002V33.6H72.0002V28.8Z" fill="black"/>
<path d="M81.5998 28.8H76.7998V33.6H81.5998V28.8Z" fill="black"/>
<path d="M91.2004 28.8H86.4004V33.6H91.2004V28.8Z" fill="black"/>
<path d="M96.0002 28.8H91.2002V33.6H96.0002V28.8Z" fill="black"/>
<path d="M100.8 28.8H96V33.6H100.8V28.8Z" fill="black"/>
<path d="M110.4 28.8H105.6V33.6H110.4V28.8Z" fill="black"/>
<path d="M14.3996 33.6H9.59961V38.4H14.3996V33.6Z" fill="black"/>
<path d="M43.2004 33.6H38.4004V38.4H43.2004V33.6Z" fill="black"/>
<path d="M57.5998 33.6H52.7998V38.4H57.5998V33.6Z" fill="black"/>
<path d="M62.3996 33.6H57.5996V38.4H62.3996V33.6Z" fill="black"/>
<path d="M67.2004 33.6H62.4004V38.4H67.2004V33.6Z" fill="black"/>
<path d="M81.5998 33.6H76.7998V38.4H81.5998V33.6Z" fill="black"/>
<path d="M110.4 33.6H105.6V38.4H110.4V33.6Z" fill="black"/>
<path d="M14.3996 38.4H9.59961V43.2H14.3996V38.4Z" fill="black"/>
<path d="M19.2004 38.4H14.4004V43.2H19.2004V38.4Z" fill="black"/>
<path d="M24.0002 38.4H19.2002V43.2H24.0002V38.4Z" fill="black"/>
<path d="M28.8 38.4H24V43.2H28.8V38.4Z" fill="black"/>
<path d="M33.5998 38.4H28.7998V43.2H33.5998V38.4Z" fill="black"/>
<path d="M38.3996 38.4H33.5996V43.2H38.3996V38.4Z" fill="black"/>
<path d="M43.2004 38.4H38.4004V43.2H43.2004V38.4Z" fill="black"/>
<path d="M52.8 38.4H48V43.2H52.8V38.4Z" fill="black"/>
<path d="M62.3996 38.4H57.5996V43.2H62.3996V38.4Z" fill="black"/>
<path d="M72.0002 38.4H67.2002V43.2H72.0002V38.4Z" fill="black"/>
<path d="M81.5998 38.4H76.7998V43.2H81.5998V38.4Z" fill="black"/>
<path d="M86.3996 38.4H81.5996V43.2H86.3996V38.4Z" fill="black"/>
<path d="M91.2004 38.4H86.4004V43.2H91.2004V38.4Z" fill="black"/>
<path d="M96.0002 38.4H91.2002V43.2H96.0002V38.4Z" fill="black"/>
<path d="M100.8 38.4H96V43.2H100.8V38.4Z" fill="black"/>
<path d="M105.6 38.4H100.8V43.2H105.6V38.4Z" fill="black"/>
<path d="M110.4 38.4H105.6V43.2H110.4V38.4Z" fill="black"/>
<path d="M52.8 43.2H48V48H52.8V43.2Z" fill="black"/>
<path d="M62.3996 43.2H57.5996V48H62.3996V43.2Z" fill="black"/>
<path d="M14.3996 48H9.59961V52.8H14.3996V48Z" fill="black"/>
<path d="M19.2004 48H14.4004V52.8H19.2004V48Z" fill="black"/>
<path d="M24.0002 48H19.2002V52.8H24.0002V48Z" fill="black"/>
<path d="M33.5998 48H28.7998V52.8H33.5998V48Z" fill="black"/>
<path d="M38.3996 48H33.5996V52.8H38.3996V48Z" fill="black"/>
<path d="M43.2004 48H38.4004V52.8H43.2004V48Z" fill="black"/>
<path d="M48.0002 48H43.2002V52.8H48.0002V48Z" fill="black"/>
<path d="M52.8 48H48V52.8H52.8V48Z" fill="black"/>
<path d="M62.3996 48H57.5996V52.8H62.3996V48Z" fill="black"/>
<path d="M72.0002 48H67.2002V52.8H72.0002V48Z" fill="black"/>
<path d="M76.8 48H72V52.8H76.8V48Z" fill="black"/>
<path d="M81.5998 48H76.7998V52.8H81.5998V48Z" fill="black"/>
<path d="M100.8 48H96V52.8H100.8V48Z" fill="black"/>
<path d="M14.3996 52.8H9.59961V57.6H14.3996V52.8Z" fill="black"/>
<path d="M24.0002 52.8H19.2002V57.6H24.0002V52.8Z" fill="black"/>
<path d="M38.3996 52.8H33.5996V57.6H38.3996V52.8Z" fill="black"/>
<path d="M52.8 52.8H48V57.6H52.8V52.8Z" fill="black"/>
<path d="M62.3996 52.8H57.5996V57.6H62.3996V52.8Z" fill="black"/>
<path d="M67.2004 52.8H62.4004V57.6H67.2004V52.8Z" fill="black"/>
<path d="M76.8 52.8H72V57.6H76.8V52.8Z" fill="black"/>
<path d="M86.3996 52.8H81.5996V57.6H86.3996V52.8Z" fill="black"/>
<path d="M96.0002 52.8H91.2002V57.6H96.0002V52.8Z" fill="black"/>
<path d="M105.6 52.8H100.8V57.6H105.6V52.8Z" fill="black"/>
<path d="M24.0002 57.6H19.2002V62.4H24.0002V57.6Z" fill="black"/>
<path d="M33.5998 57.6H28.7998V62.4H33.5998V57.6Z" fill="black"/>
<path d="M43.2004 57.6H38.4004V62.4H43.2004V57.6Z" fill="black"/>
<path d="M57.5998 57.6H52.7998V62.4H57.5998V57.6Z" fill="black"/>
<path d="M67.2004 57.6H62.4004V62.4H67.2004V57.6Z" fill="black"/>
<path d="M76.8 57.6H72V62.4H76.8V57.6Z" fill="black"/>
<path d="M81.5998 57.6H76.7998V62.4H81.5998V57.6Z" fill="black"/>
<path d="M86.3996 57.6H81.5996V62.4H86.3996V57.6Z" fill="black"/>
<path d="M96.0002 57.6H91.2002V62.4H96.0002V57.6Z" fill="black"/>
<path d="M100.8 57.6H96V62.4H100.8V57.6Z" fill="black"/>
<path d="M105.6 57.6H100.8V62.4H105.6V57.6Z" fill="black"/>
<path d="M19.2004 62.4H14.4004V67.2H19.2004V62.4Z" fill="black"/>
<path d="M33.5998 62.4H28.7998V67.2H33.5998V62.4Z" fill="black"/>
<path d="M38.3996 62.4H33.5996V67.2H38.3996V62.4Z" fill="black"/>
<path d="M48.0002 62.4H43.2002V67.2H48.0002V62.4Z" fill="black"/>
<path d="M57.5998 62.4H52.7998V67.2H57.5998V62.4Z" fill="black"/>
<path d="M62.3996 62.4H57.5996V67.2H62.3996V62.4Z" fill="black"/>
<path d="M67.2004 62.4H62.4004V67.2H67.2004V62.4Z" fill="black"/>
<path d="M72.0002 62.4H67.2002V67.2H72.0002V62.4Z" fill="black"/>
<path d="M76.8 62.4H72V67.2H76.8V62.4Z" fill="black"/>
<path d="M86.3996 62.4H81.5996V67.2H86.3996V62.4Z" fill="black"/>
<path d="M91.2004 62.4H86.4004V67.2H91.2004V62.4Z" fill="black"/>
<path d="M96.0002 62.4H91.2002V67.2H96.0002V62.4Z" fill="black"/>
<path d="M105.6 62.4H100.8V67.2H105.6V62.4Z" fill="black"/>
<path d="M110.4 62.4H105.6V67.2H110.4V62.4Z" fill="black"/>
<path d="M14.3996 67.2H9.59961V72H14.3996V67.2Z" fill="black"/>
<path d="M19.2004 67.2H14.4004V72H19.2004V67.2Z" fill="black"/>
<path d="M28.8 67.2H24V72H28.8V67.2Z" fill="black"/>
<path d="M33.5998 67.2H28.7998V72H33.5998V67.2Z" fill="black"/>
<path d="M38.3996 67.2H33.5996V72H38.3996V67.2Z" fill="black"/>
<path d="M43.2004 67.2H38.4004V72H43.2004V67.2Z" fill="black"/>
<path d="M48.0002 67.2H43.2002V72H48.0002V67.2Z" fill="black"/>
<path d="M57.5998 67.2H52.7998V72H57.5998V67.2Z" fill="black"/>
<path d="M62.3996 67.2H57.5996V72H62.3996V67.2Z" fill="black"/>
<path d="M67.2004 67.2H62.4004V72H67.2004V67.2Z" fill="black"/>
<path d="M76.8 67.2H72V72H76.8V67.2Z" fill="black"/>
<path d="M81.5998 67.2H76.7998V72H81.5998V67.2Z" fill="black"/>
<path d="M86.3996 67.2H81.5996V72H86.3996V67.2Z" fill="black"/>
<path d="M96.0002 67.2H91.2002V72H96.0002V67.2Z" fill="black"/>
<path d="M100.8 67.2H96V72H100.8V67.2Z" fill="black"/>
<path d="M105.6 67.2H100.8V72H105.6V67.2Z" fill="black"/>
<path d="M52.8 72H48V76.8H52.8V72Z" fill="black"/>
<path d="M57.5998 72H52.7998V76.8H57.5998V72Z" fill="black"/>
<path d="M62.3996 72H57.5996V76.8H62.3996V72Z" fill="black"/>
<path d="M81.5998 72H76.7998V76.8H81.5998V72Z" fill="black"/>
<path d="M100.8 72H96V76.8H100.8V72Z" fill="black"/>
<path d="M105.6 72H100.8V76.8H105.6V72Z" fill="black"/>
<path d="M14.3996 76.8H9.59961V81.6H14.3996V76.8Z" fill="black"/>
<path d="M19.2004 76.8H14.4004V81.6H19.2004V76.8Z" fill="black"/>
<path d="M24.0002 76.8H19.2002V81.6H24.0002V76.8Z" fill="black"/>
<path d="M28.8 76.8H24V81.6H28.8V76.8Z" fill="black"/>
<path d="M33.5998 76.8H28.7998V81.6H33.5998V76.8Z" fill="black"/>
<path d="M38.3996 76.8H33.5996V81.6H38.3996V76.8Z" fill="black"/>
<path d="M43.2004 76.8H38.4004V81.6H43.2004V76.8Z" fill="black"/>
<path d="M52.8 76.8H48V81.6H52.8V76.8Z" fill="black"/>
<path d="M72.0002 76.8H67.2002V81.6H72.0002V76.8Z" fill="black"/>
<path d="M91.2004 76.8H86.4004V81.6H91.2004V76.8Z" fill="black"/>
<path d="M110.4 76.8H105.6V81.6H110.4V76.8Z" fill="black"/>
<path d="M14.3996 81.6H9.59961V86.4H14.3996V81.6Z" fill="black"/>
<path d="M43.2004 81.6H38.4004V86.4H43.2004V81.6Z" fill="black"/>
<path d="M52.8 81.6H48V86.4H52.8V81.6Z" fill="black"/>
<path d="M57.5998 81.6H52.7998V86.4H57.5998V81.6Z" fill="black"/>
<path d="M62.3996 81.6H57.5996V86.4H62.3996V81.6Z" fill="black"/>
<path d="M81.5998 81.6H76.7998V86.4H81.5998V81.6Z" fill="black"/>
<path d="M100.8 81.6H96V86.4H100.8V81.6Z" fill="black"/>
<path d="M105.6 81.6H100.8V86.4H105.6V81.6Z" fill="black"/>
<path d="M14.3996 86.4H9.59961V91.2H14.3996V86.4Z" fill="black"/>
<path d="M24.0002 86.4H19.2002V91.2H24.0002V86.4Z" fill="black"/>
<path d="M28.8 86.4H24V91.2H28.8V86.4Z" fill="black"/>
<path d="M33.5998 86.4H28.7998V91.2H33.5998V86.4Z" fill="black"/>
<path d="M43.2004 86.4H38.4004V91.2H43.2004V86.4Z" fill="black"/>
<path d="M52.8 86.4H48V91.2H52.8V86.4Z" fill="black"/>
<path d="M72.0002 86.4H67.2002V91.2H72.0002V86.4Z" fill="black"/>
<path d="M81.5998 86.4H76.7998V91.2H81.5998V86.4Z" fill="black"/>
<path d="M91.2004 86.4H86.4004V91.2H91.2004V86.4Z" fill="black"/>
<path d="M100.8 86.4H96V91.2H100.8V86.4Z" fill="black"/>
<path d="M110.4 86.4H105.6V91.2H110.4V86.4Z" fill="black"/>
<path d="M14.3996 91.2H9.59961V96H14.3996V91.2Z" fill="black"/>
<path d="M24.0002 91.2H19.2002V96H24.0002V91.2Z" fill="black"/>
<path d="M28.8 91.2H24V96H28.8V91.2Z" fill="black"/>
<path d="M33.5998 91.2H28.7998V96H33.5998V91.2Z" fill="black"/>
<path d="M43.2004 91.2H38.4004V96H43.2004V91.2Z" fill="black"/>
<path d="M57.5998 91.2H52.7998V96H57.5998V91.2Z" fill="black"/>
<path d="M67.2004 91.2H62.4004V96H67.2004V91.2Z" fill="black"/>
<path d="M76.8 91.2H72V96H76.8V91.2Z" fill="black"/>
<path d="M86.3996 91.2H81.5996V96H86.3996V91.2Z" fill="black"/>
<path d="M96.0002 91.2H91.2002V96H96.0002V91.2Z" fill="black"/>
<path d="M105.6 91.2H100.8V96H105.6V91.2Z" fill="black"/>
<path d="M14.3996 96H9.59961V100.8H14.3996V96Z" fill="black"/>
<path d="M24.0002 96H19.2002V100.8H24.0002V96Z" fill="black"/>
<path d="M28.8 96H24V100.8H28.8V96Z" fill="black"/>
<path d="M33.5998 96H28.7998V100.8H33.5998V96Z" fill="black"/>
<path d="M43.2004 96H38.4004V100.8H43.2004V96Z" fill="black"/>
<path d="M52.8 96H48V100.8H52.8V96Z" fill="black"/>
<path d="M62.3996 96H57.5996V100.8H62.3996V96Z" fill="black"/>
<path d="M67.2004 96H62.4004V100.8H67.2004V96Z" fill="black"/>
<path d="M76.8 96H72V100.8H76.8V96Z" fill="black"/>
<path d="M81.5998 96H76.7998V100.8H81.5998V96Z" fill="black"/>
<path d="M86.3996 96H81.5996V100.8H86.3996V96Z" fill="black"/>
<path d="M96.0002 96H91.2002V100.8H96.0002V96Z" fill="black"/>
<path d="M100.8 96H96V100.8H100.8V96Z" fill="black"/>
<path d="M110.4 96H105.6V100.8H110.4V96Z" fill="black"/>
<path d="M14.3996 100.8H9.59961V105.6H14.3996V100.8Z" fill="black"/>
<path d="M43.2004 100.8H38.4004V105.6H43.2004V100.8Z" fill="black"/>
<path d="M52.8 100.8H48V105.6H52.8V100.8Z" fill="black"/>
<path d="M57.5998 100.8H52.7998V105.6H57.5998V100.8Z" fill="black"/>
<path d="M67.2004 100.8H62.4004V105.6H67.2004V100.8Z" fill="black"/>
<path d="M72.0002 100.8H67.2002V105.6H72.0002V100.8Z" fill="black"/>
<path d="M76.8 100.8H72V105.6H76.8V100.8Z" fill="black"/>
<path d="M86.3996 100.8H81.5996V105.6H86.3996V100.8Z" fill="black"/>
<path d="M91.2004 100.8H86.4004V105.6H91.2004V100.8Z" fill="black"/>
<path d="M96.0002 100.8H91.2002V105.6H96.0002V100.8Z" fill="black"/>
<path d="M105.6 100.8H100.8V105.6H105.6V100.8Z" fill="black"/>
<path d="M14.3996 105.6H9.59961V110.4H14.3996V105.6Z" fill="black"/>
<path d="M19.2004 105.6H14.4004V110.4H19.2004V105.6Z" fill="black"/>
<path d="M24.0002 105.6H19.2002V110.4H24.0002V105.6Z" fill="black"/>
<path d="M28.8 105.6H24V110.4H28.8V105.6Z" fill="black"/>
<path d="M33.5998 105.6H28.7998V110.4H33.5998V105.6Z" fill="black"/>
<path d="M38.3996 105.6H33.5996V110.4H38.3996V105.6Z" fill="black"/>
<path d="M43.2004 105.6H38.4004V110.4H43.2004V105.6Z" fill="black"/>
<path d="M52.8 105.6H48V110.4H52.8V105.6Z" fill="black"/>
<path d="M57.5998 105.6H52.7998V110.4H57.5998V105.6Z" fill="black"/>
<path d="M67.2004 105.6H62.4004V110.4H67.2004V105.6Z" fill="black"/>
<path d="M76.8 105.6H72V110.4H76.8V105.6Z" fill="black"/>
<path d="M81.5998 105.6H76.7998V110.4H81.5998V105.6Z" fill="black"/>
<path d="M86.3996 105.6H81.5996V110.4H86.3996V105.6Z" fill="black"/>
<path d="M96.0002 105.6H91.2002V110.4H96.0002V105.6Z" fill="black"/>
<path d="M100.8 105.6H96V110.4H100.8V105.6Z" fill="black"/>
<path d="M105.6 105.6H100.8V110.4H105.6V105.6Z" fill="black"/>
<path d="M110.4 105.6H105.6V110.4H110.4V105.6Z" fill="black"/>
</g>
<defs>
<clipPath id="clip0_174_139">
<rect width="120" height="120" fill="white"/>
</clipPath>
</defs>
</svg>
