<svg width="12" height="2" viewBox="0 0 12 2" fill="none" xmlns="http://www.w3.org/2000/svg">
<mask id="mask0_172_104" style="mask-type:alpha" maskUnits="userSpaceOnUse" x="-5" y="-10" width="22" height="22">
<rect x="-4.66667" y="-9.91146" width="21.3333" height="21.3333" fill="#D9D9D9"/>
</mask>
<g mask="url(#mask0_172_104)">
<path d="M0.711466 1.42187C0.518755 1.42187 0.352 1.35147 0.2112 1.21067C0.0704 1.06987 0 0.903112 0 0.7104C0 0.5184 0.0704 0.352 0.2112 0.2112C0.352 0.0704 0.518755 0 0.711466 0H11.2885C11.4812 0 11.648 0.0704 11.7888 0.2112C11.9296 0.352 12 0.5184 12 0.7104C12 0.903112 11.9296 1.06987 11.7888 1.21067C11.648 1.35147 11.4812 1.42187 11.2885 1.42187H0.711466Z" fill="#0A0A0C"/>
</g>
</svg>
