<svg width="27" height="27" viewBox="0 0 27 27" fill="none" xmlns="http://www.w3.org/2000/svg">
<mask id="mask0_74_2170" style="mask-type:alpha" maskUnits="userSpaceOnUse" x="-7" y="-8" width="41" height="41">
<rect x="-6.75049" y="-7.80455" width="40.501" height="40.501" fill="#D9D9D9"/>
</mask>
<g mask="url(#mask0_74_2170)">
<path d="M5.73697 4.26172C5.31508 4.26172 4.94956 4.40921 4.6404 4.70419C4.33124 4.99985 4.17666 5.37246 4.17666 5.82202C4.17666 6.2439 4.33124 6.60267 4.6404 6.89833C4.94956 7.19331 5.31508 7.3408 5.73697 7.3408C6.15885 7.3408 6.52471 7.19331 6.83454 6.89833C7.1437 6.60267 7.29828 6.23006 7.29828 5.7805C7.29828 5.35862 7.1437 4.99985 6.83454 4.70419C6.52471 4.40921 6.15885 4.26172 5.73697 4.26172ZM5.73697 19.238C5.31508 19.238 4.94956 19.3858 4.6404 19.6815C4.33124 19.9764 4.17666 20.349 4.17666 20.7993C4.17666 21.2212 4.33124 21.5796 4.6404 21.8746C4.94956 22.1702 5.31508 22.3181 5.73697 22.3181C6.15885 22.3181 6.52471 22.1702 6.83454 21.8746C7.1437 21.5796 7.29828 21.207 7.29828 20.7568C7.29828 20.3349 7.1437 19.9764 6.83454 19.6815C6.52471 19.3858 6.15885 19.238 5.73697 19.238ZM1.22313 0H25.7769C26.1144 0 26.4026 0.112727 26.6416 0.338183C26.8805 0.562963 27 0.858283 27 1.22414V10.0837C27 10.5616 26.8805 10.9343 26.6416 11.2016C26.4026 11.4689 26.1144 11.6025 25.7769 11.6025H1.22313C0.885622 11.6025 0.59739 11.4689 0.358434 11.2016C0.119478 10.9343 0 10.5616 0 10.0837V1.22414C0 0.858283 0.119478 0.562963 0.358434 0.338183C0.59739 0.112727 0.885622 0 1.22313 0ZM1.43374 1.43475V10.2103H25.5662V1.43475H1.43374ZM1.22313 14.9773H25.6503C26.0438 14.9773 26.3672 15.118 26.6203 15.3995C26.8734 15.6803 27 16.0178 27 16.412V25.0185C27 25.5247 26.8734 25.9112 26.6203 26.1778C26.3672 26.4451 26.0438 26.5788 25.6503 26.5788H1.3497C0.956161 26.5788 0.632828 26.4451 0.379697 26.1778C0.126566 25.9112 0 25.5247 0 25.0185V16.412C0 16.0178 0.105303 15.6803 0.315908 15.3995C0.527188 15.118 0.829595 14.9773 1.22313 14.9773ZM1.43374 16.3695V25.1866H25.5662V16.3695H1.43374Z" fill="#0A0A0C"/>
</g>
</svg>
