<svg width="15" height="15" viewBox="0 0 15 15" fill="none" xmlns="http://www.w3.org/2000/svg">
<mask id="mask0_174_427" style="mask-type:alpha" maskUnits="userSpaceOnUse" x="-3" y="-3" width="21" height="21">
<rect x="-2.9603" y="-2.9603" width="20.8987" height="20.8987" fill="#D9D9D9"/>
</mask>
<g mask="url(#mask0_174_427)">
<path d="M8.66459 14.7816C8.53432 14.9272 8.37479 15 8.18601 15C7.99722 15 7.83038 14.9272 7.68549 14.7816L0.218391 7.31453C0.145942 7.24209 0.0912576 7.16232 0.0543366 7.07524C0.0181122 6.98817 0 6.90109 0 6.81401V0.696971C0 0.508186 0.0689656 0.344828 0.206897 0.206897C0.344828 0.0689656 0.508186 0 0.696971 0H6.81401C6.88646 0 6.96274 0.011146 7.04285 0.0334379C7.12296 0.0550332 7.19924 0.102055 7.27169 0.174504L14.7597 7.6416C14.9053 7.7865 14.9816 7.95682 14.9885 8.15257C14.9962 8.34902 14.9272 8.51238 14.7816 8.64264L8.66459 14.7816ZM8.16407 14.2811L14.303 8.16407L6.81401 0.696971H0.696971V6.81401L8.16407 14.2811ZM2.78684 3.65727C3.03344 3.65727 3.24034 3.57402 3.40753 3.40753C3.57402 3.24034 3.65727 3.03344 3.65727 2.78684C3.65727 2.54023 3.57402 2.33334 3.40753 2.16615C3.24034 1.99965 3.03344 1.91641 2.78684 1.91641C2.54023 1.91641 2.33334 1.99965 2.16615 2.16615C1.99965 2.33334 1.91641 2.54023 1.91641 2.78684C1.91641 3.03344 1.99965 3.24034 2.16615 3.40753C2.33334 3.57402 2.54023 3.65727 2.78684 3.65727Z" fill="#1C1B1F"/>
</g>
</svg>
