<svg width="14" height="13" viewBox="0 0 14 13" fill="none" xmlns="http://www.w3.org/2000/svg">
<mask id="mask0_74_2116" style="mask-type:alpha" maskUnits="userSpaceOnUse" x="-2" y="-2" width="18" height="17">
<rect x="-1.31167" y="-1.92408" width="16.7893" height="16.7893" fill="#D9D9D9"/>
</mask>
<g mask="url(#mask0_74_2116)">
<path d="M7.94052 12.9244C7.68364 12.9244 7.497 12.8396 7.38059 12.6701C7.26419 12.5011 7.25244 12.3002 7.34534 12.0673L9.72439 5.77134C9.79434 5.59617 9.9197 5.45038 10.1005 5.33397C10.2812 5.21757 10.4648 5.15937 10.6512 5.15937C10.8258 5.15937 11.0007 5.21757 11.1758 5.33397C11.351 5.45038 11.4733 5.59617 11.5427 5.77134L13.9394 12.0673C14.0323 12.3119 14.0177 12.5159 13.8957 12.6793C13.7731 12.8427 13.5837 12.9244 13.3274 12.9244C13.2104 12.9244 13.0996 12.8864 12.995 12.8103C12.8897 12.7347 12.8139 12.6443 12.7675 12.5391L12.2252 10.9299H9.07716L8.53486 12.5215C8.48841 12.6385 8.40978 12.7347 8.29897 12.8103C8.18816 12.8864 8.06868 12.9244 7.94052 12.9244ZM9.47926 9.81085H11.7878L10.6512 6.62843H10.6159L9.47926 9.81085ZM3.95305 4.19734C4.11591 4.5001 4.29667 4.78552 4.49535 5.05359C4.69346 5.32222 4.92068 5.60204 5.17699 5.89306C5.66668 5.38043 6.06319 4.85296 6.36652 4.31066C6.66985 3.76837 6.92616 3.1883 7.13547 2.57045H0.6296C0.454991 2.57045 0.306405 2.50917 0.183843 2.38661C0.0612811 2.2646 0 2.11602 0 1.94085C0 1.75449 0.0612811 1.60002 0.183843 1.47746C0.306405 1.3549 0.460867 1.29362 0.647229 1.29362H4.51298V0.64639C4.51298 0.460028 4.57398 0.305566 4.69598 0.183004C4.81854 0.0610012 4.973 0 5.15937 0C5.34629 0 5.50075 0.0610012 5.62275 0.183004C5.74531 0.305566 5.80659 0.460028 5.80659 0.64639V1.29362H9.6715C9.85842 1.29362 10.0129 1.3549 10.1349 1.47746C10.2574 1.60002 10.3187 1.75449 10.3187 1.94085C10.3187 2.11602 10.2574 2.2646 10.1349 2.38661C10.0129 2.50917 9.85842 2.57045 9.6715 2.57045H8.42993C8.20831 3.33996 7.90806 4.08317 7.52918 4.80007C7.1503 5.51754 6.67516 6.19695 6.10377 6.8383L7.64335 8.41146L7.1531 9.74118L5.17699 7.76507L2.39668 10.5278C2.27971 10.6559 2.13085 10.72 1.95008 10.72C1.76932 10.72 1.61485 10.65 1.4867 10.5101C1.35854 10.3937 1.29446 10.2451 1.29446 10.0644C1.29446 9.88361 1.35854 9.72327 1.4867 9.58336L4.28548 6.78541C3.9939 6.45914 3.72556 6.12699 3.48043 5.78897C3.23587 5.45038 3.0204 5.09473 2.83404 4.722C2.70532 4.50038 2.69945 4.30199 2.81641 4.12682C2.93282 3.95221 3.12506 3.86491 3.39313 3.86491C3.49834 3.86491 3.60327 3.89681 3.70793 3.96061C3.81314 4.02497 3.89485 4.10388 3.95305 4.19734Z" fill="#0A0A0C"/>
</g>
</svg>
