<svg width="12" height="16" viewBox="0 0 12 16" fill="none" xmlns="http://www.w3.org/2000/svg">
<mask id="mask0_74_1727" style="mask-type:alpha" maskUnits="userSpaceOnUse" x="-5" y="-2" width="22" height="22">
<rect x="-4.35913" y="-1.58555" width="20.7183" height="20.7183" fill="#D9D9D9"/>
</mask>
<g mask="url(#mask0_74_1727)">
<path d="M0.949932 15.8095C0.690954 15.8095 0.467887 15.7159 0.280732 15.5288C0.0935774 15.3416 0 15.1185 0 14.8596V5.5146C0 5.25562 0.0935774 5.03255 0.280732 4.8454C0.467887 4.65893 0.690954 4.5657 0.949932 4.5657H3.82045V2.2349C3.82045 2.17689 3.8277 2.11542 3.8422 2.05051C3.8567 1.98628 3.87466 1.92516 3.89607 1.86715C3.91748 1.80983 3.94614 1.75976 3.98205 1.71694C4.01796 1.67343 4.05767 1.62992 4.10118 1.58642L5.4603 0.227298C5.59013 0.069149 5.76658 -0.00647265 5.98965 0.000433437C6.21202 0.00803013 6.39538 0.0836518 6.53972 0.227298L7.92059 1.5657C7.99241 1.66653 8.05733 1.77081 8.11534 1.87854C8.17266 1.98628 8.20132 2.10506 8.20132 2.2349V7.99665H11.0501C11.3091 7.99665 11.5321 8.09022 11.7193 8.27738C11.9064 8.46453 12 8.6876 12 8.94658V14.8596C12 15.1185 11.9064 15.3416 11.7193 15.5288C11.5321 15.7159 11.3091 15.8095 11.0501 15.8095H0.949932ZM0.949932 14.8596H3.43198V12.3775H0.949932V14.8596ZM0.949932 11.4276H3.43198V8.94658H0.949932V11.4276ZM0.949932 7.99665H3.43198V5.5146H0.949932V7.99665ZM4.76934 14.8596H7.25139V12.3775H4.76934V14.8596ZM4.76934 11.4276H7.25139V8.94658H4.76934V11.4276ZM4.76934 7.99665H7.25139V5.5146H4.76934V7.99665ZM4.76934 4.5657H7.25139V2.08365H4.76934V4.5657ZM8.56804 14.8596H11.0501V12.3775H8.56804V14.8596ZM8.56804 11.4276H11.0501V8.94658H8.56804V11.4276Z" fill="#0A0A0C"/>
</g>
</svg>
