<svg width="9" height="15" viewBox="0 0 9 15" fill="none" xmlns="http://www.w3.org/2000/svg">
<mask id="mask0_174_456" style="mask-type:alpha" maskUnits="userSpaceOnUse" x="-7" y="-3" width="21" height="21">
<rect x="-6.02922" y="-2.54526" width="20.0257" height="20.0257" fill="#D9D9D9"/>
</mask>
<g mask="url(#mask0_174_456)">
<path d="M0.229294 14.7689C0.0904495 14.6294 0.0210269 14.4692 0.0210269 14.2883C0.0210269 14.1081 0.0904495 13.9482 0.229294 13.8087L6.57043 7.46758L0.208267 1.10542C0.0694226 0.966573 0 0.81371 0 0.64683C0 0.479949 0.0764315 0.326753 0.229294 0.18724C0.354789 0.0624134 0.511323 0 0.698896 0C0.88647 0 1.043 0.0624134 1.1685 0.18724L7.94719 6.94591C8.03063 7.04337 8.08971 7.13382 8.12442 7.21726C8.1598 7.3007 8.17749 7.38414 8.17749 7.46758C8.17749 7.55102 8.1598 7.63446 8.12442 7.7179C8.08971 7.80134 8.03063 7.89179 7.94719 7.98925L1.14747 14.789C0.994609 14.9425 0.838075 15.0123 0.67787 14.9982C0.517664 14.9842 0.368139 14.9078 0.229294 14.7689Z" fill="#1C1B1F"/>
</g>
</svg>
