<svg width="11" height="19" viewBox="0 0 11 19" fill="none" xmlns="http://www.w3.org/2000/svg">
<mask id="mask0_74_1758" style="mask-type:alpha" maskUnits="userSpaceOnUse" x="-7" y="-3" width="25" height="25">
<rect x="-6.9162" y="-2.82815" width="24.682" height="24.682" fill="#D9D9D9"/>
</mask>
<g mask="url(#mask0_74_1758)">
<path d="M8.81868 18.6915L0.257104 10.1556C0.171403 10.0699 0.107298 9.97119 0.0647905 9.85943C0.021597 9.74836 0 9.63284 0 9.51286C0 9.39287 0.021597 9.27701 0.0647905 9.16525C0.107298 9.05418 0.171403 8.9558 0.257104 8.8701L8.81868 0.308525C9.02436 0.102842 9.26432 0 9.53857 0C9.81281 0 10.0613 0.111412 10.2842 0.334236C10.4899 0.522779 10.5927 0.758286 10.5927 1.04076C10.5927 1.32392 10.4899 1.56834 10.2842 1.77402L2.51962 9.51286L10.2842 17.2774C10.4727 17.4659 10.567 17.6973 10.567 17.9716C10.567 18.2458 10.4641 18.4858 10.2585 18.6915C10.0528 18.8972 9.81281 19 9.53857 19C9.26432 19 9.02436 18.8972 8.81868 18.6915Z" fill="#0A0A0C"/>
</g>
</svg>
